<?xml version="1.0" encoding="UTF-8" standalone="no"?>
<!DOCTYPE svg PUBLIC "-//W3C//DTD SVG 1.1//EN" "http://www.w3.org/Graphics/SVG/1.1/DTD/svg11.dtd">
<svg width="511px" height="161px" version="1.1" xmlns="http://www.w3.org/2000/svg" xmlns:xlink="http://www.w3.org/1999/xlink" xml:space="preserve" xmlns:serif="http://www.serif.com/" style="fill-rule:evenodd;clip-rule:evenodd;stroke-linejoin:round;stroke-miterlimit:2;">
    <g transform="matrix(1,0,0,1,-1123,-1449)">
        <g transform="matrix(1.88574,0,0,2.11455,0,0)">
            <g id="MapInstruction-Node" serif:id="MapInstruction Node" transform="matrix(0.567083,0,0,0.194125,334.009,624.486)">
                <rect x="461.325" y="313.788" width="477.583" height="389.292" style="fill:none;"/>
                <clipPath id="_clip1">
                    <rect x="461.325" y="313.788" width="477.583" height="389.292"/>
                </clipPath>
                <g clip-path="url(#_clip1)">
                    <g transform="matrix(0.860484,0,0,1.13643,169.719,31.5814)">
                        <path d="M893.902,254.534L893.902,584.679C893.902,588.105 892.492,590.885 890.756,590.885L342.031,590.885C340.295,590.885 338.885,588.105 338.885,584.679L338.885,254.534C338.885,251.109 340.295,248.328 342.031,248.328L890.756,248.328C892.492,248.328 893.902,251.109 893.902,254.534Z" style="fill:rgb(30,30,30);"/>
                        <path d="M893.902,254.534L893.902,584.679C893.902,588.105 892.492,590.885 890.756,590.885L342.031,590.885C340.295,590.885 338.885,588.105 338.885,584.679L338.885,254.534C338.885,251.109 340.295,248.328 342.031,248.328L890.756,248.328C892.492,248.328 893.902,251.109 893.902,254.534ZM890.902,254.534C890.902,254.374 890.837,254.244 890.756,254.244L342.031,254.244C341.95,254.244 341.884,254.374 341.884,254.534L341.884,584.679C341.884,584.839 341.95,584.969 342.031,584.969L890.756,584.969C890.837,584.969 890.902,584.839 890.902,584.679L890.902,254.534Z" style="fill:rgb(128,128,128);"/>
                    </g>
                    <g id="Tag-Column" serif:id="Tag Column" transform="matrix(0.935126,0,0,2.43614,246.455,-595.01)">
                        <g transform="matrix(18,0,0,18,591.738,442.78)">
                            <path d="M0.513,-0.611C0.469,-0.62 0.43,-0.625 0.398,-0.625C0.321,-0.625 0.283,-0.585 0.283,-0.505L0.283,-0.419L0.498,-0.419L0.498,-0.348L0.283,-0.348L0.283,-0.069L0.445,-0.069L0.445,-0L0.055,-0L0.055,-0.069L0.197,-0.069L0.197,-0.348L0.039,-0.348L0.039,-0.419L0.197,-0.419L0.197,-0.5C0.197,-0.631 0.265,-0.696 0.401,-0.696C0.435,-0.696 0.472,-0.692 0.513,-0.684L0.513,-0.611Z" style="fill:rgb(189,142,200);fill-rule:nonzero;"/>
                        </g>
                        <g transform="matrix(18,0,0,18,591.738,442.78)">
                        </g>
                        <g transform="matrix(18,0,0,18,641.22,442.78)">
                            <path d="M0.228,-0.49L0.231,-0.411C0.243,-0.425 0.255,-0.438 0.267,-0.448C0.279,-0.459 0.292,-0.469 0.306,-0.476C0.32,-0.484 0.335,-0.489 0.352,-0.493C0.368,-0.497 0.386,-0.499 0.406,-0.499C0.421,-0.499 0.437,-0.498 0.453,-0.497C0.469,-0.495 0.484,-0.493 0.497,-0.49L0.497,-0.407C0.481,-0.412 0.465,-0.416 0.447,-0.419C0.429,-0.422 0.413,-0.424 0.398,-0.424C0.381,-0.424 0.365,-0.422 0.352,-0.418C0.338,-0.415 0.325,-0.409 0.313,-0.401C0.301,-0.393 0.288,-0.383 0.276,-0.37C0.264,-0.358 0.251,-0.343 0.237,-0.325L0.237,-0.069L0.383,-0.069L0.383,-0L0.046,-0L0.046,-0.069L0.151,-0.069L0.151,-0.423L0.046,-0.423L0.046,-0.49L0.228,-0.49Z" style="fill:rgb(189,142,200);fill-rule:nonzero;"/>
                        </g>
                        <g transform="matrix(18,0,0,18,641.22,442.78)">
                        </g>
                        <text x="601.634px" y="442.78px" style="font-family:'Consolas', monospace;font-size:18px;fill:rgb(189,142,200);"><tspan x="601.634px " y="442.78px ">o</tspan>lde</text>
                        <g transform="matrix(18,0,0,18,591.738,466.78)">
                            <path d="M0.513,-0.611C0.469,-0.62 0.43,-0.625 0.398,-0.625C0.321,-0.625 0.283,-0.585 0.283,-0.505L0.283,-0.419L0.498,-0.419L0.498,-0.348L0.283,-0.348L0.283,-0.069L0.445,-0.069L0.445,-0L0.055,-0L0.055,-0.069L0.197,-0.069L0.197,-0.348L0.039,-0.348L0.039,-0.419L0.197,-0.419L0.197,-0.5C0.197,-0.631 0.265,-0.696 0.401,-0.696C0.435,-0.696 0.472,-0.692 0.513,-0.684L0.513,-0.611Z" style="fill:rgb(189,142,200);fill-rule:nonzero;"/>
                        </g>
                        <g transform="matrix(18,0,0,18,591.738,466.78)">
                        </g>
                        <text x="601.634px" y="466.78px" style="font-family:'Consolas', monospace;font-size:18px;fill:rgb(189,142,200);"><tspan x="601.634px " y="466.78px ">i</tspan>le</text>
                        <g transform="matrix(18,0,0,18,611.531,490.78)">
                            <path d="M0.228,-0.49L0.231,-0.411C0.243,-0.425 0.255,-0.438 0.267,-0.448C0.279,-0.459 0.292,-0.469 0.306,-0.476C0.32,-0.484 0.335,-0.489 0.352,-0.493C0.368,-0.497 0.386,-0.499 0.406,-0.499C0.421,-0.499 0.437,-0.498 0.453,-0.497C0.469,-0.495 0.484,-0.493 0.497,-0.49L0.497,-0.407C0.481,-0.412 0.465,-0.416 0.447,-0.419C0.429,-0.422 0.413,-0.424 0.398,-0.424C0.381,-0.424 0.365,-0.422 0.352,-0.418C0.338,-0.415 0.325,-0.409 0.313,-0.401C0.301,-0.393 0.288,-0.383 0.276,-0.37C0.264,-0.358 0.251,-0.343 0.237,-0.325L0.237,-0.069L0.383,-0.069L0.383,-0L0.046,-0L0.046,-0.069L0.151,-0.069L0.151,-0.423L0.046,-0.423L0.046,-0.49L0.228,-0.49Z" style="fill:rgb(189,142,200);fill-rule:nonzero;"/>
                        </g>
                        <g transform="matrix(18,0,0,18,611.531,490.78)">
                        </g>
                        <g transform="matrix(18,0,0,18,661.013,490.78)">
                            <path d="M0.513,-0.611C0.469,-0.62 0.43,-0.625 0.398,-0.625C0.321,-0.625 0.283,-0.585 0.283,-0.505L0.283,-0.419L0.498,-0.419L0.498,-0.348L0.283,-0.348L0.283,-0.069L0.445,-0.069L0.445,-0L0.055,-0L0.055,-0.069L0.197,-0.069L0.197,-0.348L0.039,-0.348L0.039,-0.419L0.197,-0.419L0.197,-0.5C0.197,-0.631 0.265,-0.696 0.401,-0.696C0.435,-0.696 0.472,-0.692 0.513,-0.684L0.513,-0.611Z" style="fill:rgb(189,142,200);fill-rule:nonzero;"/>
                        </g>
                        <g transform="matrix(18,0,0,18,661.013,490.78)">
                        </g>
                        <g transform="matrix(18,0,0,18,710.496,490.78)">
                            <path d="M0.228,-0.49L0.231,-0.411C0.243,-0.425 0.255,-0.438 0.267,-0.448C0.279,-0.459 0.292,-0.469 0.306,-0.476C0.32,-0.484 0.335,-0.489 0.352,-0.493C0.368,-0.497 0.386,-0.499 0.406,-0.499C0.421,-0.499 0.437,-0.498 0.453,-0.497C0.469,-0.495 0.484,-0.493 0.497,-0.49L0.497,-0.407C0.481,-0.412 0.465,-0.416 0.447,-0.419C0.429,-0.422 0.413,-0.424 0.398,-0.424C0.381,-0.424 0.365,-0.422 0.352,-0.418C0.338,-0.415 0.325,-0.409 0.313,-0.401C0.301,-0.393 0.288,-0.383 0.276,-0.37C0.264,-0.358 0.251,-0.343 0.237,-0.325L0.237,-0.069L0.383,-0.069L0.383,-0L0.046,-0L0.046,-0.069L0.151,-0.069L0.151,-0.423L0.046,-0.423L0.046,-0.49L0.228,-0.49Z" style="fill:rgb(189,142,200);fill-rule:nonzero;"/>
                        </g>
                        <g transform="matrix(18,0,0,18,710.496,490.78)">
                        </g>
                        <text x="591.738px" y="490.78px" style="font-family:'Consolas', monospace;font-size:18px;fill:rgb(189,142,200);">ta<tspan x="621.427px " y="490.78px ">g</tspan>et_<tspan x="670.91px " y="490.78px ">o</tspan>lde</text>
                        <g transform="matrix(18,0,0,18,611.531,514.78)">
                            <path d="M0.228,-0.49L0.231,-0.411C0.243,-0.425 0.255,-0.438 0.267,-0.448C0.279,-0.459 0.292,-0.469 0.306,-0.476C0.32,-0.484 0.335,-0.489 0.352,-0.493C0.368,-0.497 0.386,-0.499 0.406,-0.499C0.421,-0.499 0.437,-0.498 0.453,-0.497C0.469,-0.495 0.484,-0.493 0.497,-0.49L0.497,-0.407C0.481,-0.412 0.465,-0.416 0.447,-0.419C0.429,-0.422 0.413,-0.424 0.398,-0.424C0.381,-0.424 0.365,-0.422 0.352,-0.418C0.338,-0.415 0.325,-0.409 0.313,-0.401C0.301,-0.393 0.288,-0.383 0.276,-0.37C0.264,-0.358 0.251,-0.343 0.237,-0.325L0.237,-0.069L0.383,-0.069L0.383,-0L0.046,-0L0.046,-0.069L0.151,-0.069L0.151,-0.423L0.046,-0.423L0.046,-0.49L0.228,-0.49Z" style="fill:rgb(189,142,200);fill-rule:nonzero;"/>
                        </g>
                        <g transform="matrix(18,0,0,18,611.531,514.78)">
                        </g>
                        <g transform="matrix(18,0,0,18,661.013,514.78)">
                            <path d="M0.513,-0.611C0.469,-0.62 0.43,-0.625 0.398,-0.625C0.321,-0.625 0.283,-0.585 0.283,-0.505L0.283,-0.419L0.498,-0.419L0.498,-0.348L0.283,-0.348L0.283,-0.069L0.445,-0.069L0.445,-0L0.055,-0L0.055,-0.069L0.197,-0.069L0.197,-0.348L0.039,-0.348L0.039,-0.419L0.197,-0.419L0.197,-0.5C0.197,-0.631 0.265,-0.696 0.401,-0.696C0.435,-0.696 0.472,-0.692 0.513,-0.684L0.513,-0.611Z" style="fill:rgb(189,142,200);fill-rule:nonzero;"/>
                        </g>
                        <g transform="matrix(18,0,0,18,661.013,514.78)">
                        </g>
                        <g transform="matrix(18,0,0,18,700.599,514.78)">
                        </g>
                        <text x="591.738px" y="514.78px" style="font-family:'Consolas', monospace;font-size:18px;fill:rgb(189,142,200);">ta<tspan x="621.427px " y="514.78px ">g</tspan>et_<tspan x="670.91px " y="514.78px ">i</tspan>le</text>
                    </g>
                    <g id="Attrib-or-Elem-Column" serif:id="Attrib or Elem Column" transform="matrix(1.45999,0,0,1.38165,-1383.05,-178.7)">
                        <g transform="matrix(0.358901,0,0,0.987999,1098.91,-21.9285)">
                            <g id="At">
                                <path d="M1091.25,498.511C1091.16,500.64 1090.54,502.476 1089.38,504.019C1088.22,505.562 1086.48,506.333 1084.16,506.333C1083.4,506.333 1082.74,506.118 1082.19,505.688C1081.63,505.259 1081.23,504.658 1081,503.887C1080.57,504.688 1080.04,505.288 1079.39,505.688C1078.76,506.089 1078.01,506.289 1077.15,506.289C1075.77,506.289 1074.71,505.708 1073.97,504.546C1073.24,503.384 1072.97,501.846 1073.16,499.932C1073.41,497.451 1074.11,495.464 1075.27,493.97C1076.42,492.476 1077.83,491.729 1079.48,491.729C1080.61,491.729 1081.52,491.855 1082.21,492.109C1082.9,492.363 1083.65,492.754 1084.47,493.281L1084.43,493.34L1084.5,493.34L1083.75,501.733C1083.68,502.661 1083.75,503.296 1083.96,503.638C1084.16,503.98 1084.44,504.15 1084.79,504.15C1085.92,504.15 1086.82,503.618 1087.5,502.554C1088.17,501.489 1088.55,500.142 1088.63,498.511C1088.79,495.063 1088.12,492.373 1086.63,490.439C1085.14,488.506 1082.84,487.539 1079.72,487.539C1076.77,487.539 1074.4,488.579 1072.63,490.659C1070.87,492.739 1069.91,495.527 1069.76,499.023C1069.6,502.49 1070.31,505.225 1071.9,507.227C1073.5,509.229 1075.79,510.23 1078.77,510.23C1079.6,510.23 1080.46,510.132 1081.34,509.937C1082.23,509.741 1082.99,509.497 1083.62,509.204L1084.18,511.357C1083.52,511.768 1082.69,512.087 1081.68,512.317C1080.67,512.546 1079.68,512.661 1078.71,512.661C1074.85,512.661 1071.87,511.445 1069.77,509.014C1067.68,506.582 1066.71,503.252 1066.88,499.023C1067.05,494.854 1068.3,491.516 1070.62,489.011C1072.94,486.506 1076,485.254 1079.78,485.254C1083.56,485.254 1086.46,486.438 1088.47,488.806C1090.48,491.174 1091.41,494.409 1091.25,498.511ZM1076.46,499.932C1076.36,501.172 1076.45,502.112 1076.73,502.751C1077.01,503.391 1077.46,503.711 1078.08,503.711C1078.63,503.711 1079.13,503.584 1079.57,503.33C1080.02,503.076 1080.41,502.607 1080.77,501.924L1080.77,501.829C1080.77,501.804 1080.77,501.772 1080.78,501.733L1081.42,494.468C1081.2,494.399 1080.97,494.346 1080.75,494.307C1080.53,494.268 1080.29,494.248 1080.05,494.248C1078.96,494.248 1078.14,494.719 1077.57,495.662C1077.01,496.604 1076.63,498.027 1076.46,499.932Z" style="fill:rgb(0,211,255);fill-rule:nonzero;"/>
                                <path d="M1086.69,509.077L1087.09,510.605C1087.41,511.873 1086.88,513.208 1085.77,513.903C1084.87,514.468 1083.74,514.931 1082.35,515.247C1081.11,515.528 1079.9,515.666 1078.71,515.666C1073.85,515.666 1070.13,514.037 1067.5,510.975C1064.96,508.029 1063.67,504.028 1063.88,498.906L1063.88,498.897C1064.09,493.918 1065.65,489.96 1068.42,486.97C1071.3,483.856 1075.07,482.249 1079.78,482.249C1084.58,482.249 1088.21,483.856 1090.76,486.861C1093.21,489.74 1094.45,493.639 1094.26,498.625L1094.26,498.635C1094.14,501.418 1093.3,503.809 1091.78,505.826C1090.53,507.49 1088.84,508.603 1086.69,509.077ZM1091.25,498.511C1091.41,494.409 1090.48,491.174 1088.47,488.806C1086.46,486.438 1083.56,485.254 1079.78,485.254C1076,485.254 1072.94,486.506 1070.62,489.011C1068.3,491.516 1067.05,494.854 1066.88,499.023C1066.71,503.252 1067.68,506.582 1069.77,509.014C1071.87,511.445 1074.85,512.661 1078.71,512.661C1079.68,512.661 1080.67,512.546 1081.68,512.317C1082.69,512.087 1083.52,511.768 1084.18,511.357L1083.62,509.204C1082.99,509.497 1082.23,509.741 1081.34,509.937C1080.46,510.132 1079.6,510.23 1078.77,510.23C1075.79,510.23 1073.5,509.229 1071.9,507.227C1070.31,505.225 1069.6,502.49 1069.76,499.023C1069.91,495.527 1070.87,492.739 1072.63,490.659C1074.4,488.579 1076.77,487.539 1079.72,487.539C1082.84,487.539 1085.14,488.506 1086.63,490.439C1088.12,492.373 1088.79,495.063 1088.63,498.511C1088.55,500.142 1088.17,501.489 1087.5,502.554C1086.82,503.618 1085.92,504.15 1084.79,504.15C1084.44,504.15 1084.16,503.98 1083.96,503.638C1083.75,503.296 1083.68,502.661 1083.75,501.733L1084.5,493.34L1084.43,493.34L1084.47,493.281C1083.65,492.754 1082.9,492.363 1082.21,492.109C1081.52,491.855 1080.61,491.729 1079.48,491.729C1077.83,491.729 1076.42,492.476 1075.27,493.97C1074.11,495.464 1073.41,497.451 1073.16,499.932C1072.97,501.846 1073.24,503.384 1073.97,504.546C1074.71,505.708 1075.77,506.289 1077.15,506.289C1078.01,506.289 1078.76,506.089 1079.39,505.688C1080.04,505.288 1080.57,504.688 1081,503.887C1081.23,504.658 1081.63,505.259 1082.19,505.688C1082.74,506.118 1083.4,506.333 1084.16,506.333C1086.48,506.333 1088.22,505.562 1089.38,504.019C1090.54,502.476 1091.16,500.64 1091.25,498.511ZM1076.46,499.932C1076.63,498.027 1077.01,496.604 1077.57,495.662C1078.14,494.719 1078.96,494.248 1080.05,494.248C1080.29,494.248 1080.53,494.268 1080.75,494.307C1080.97,494.346 1081.2,494.399 1081.42,494.468L1080.78,501.733C1080.77,501.772 1080.77,501.804 1080.77,501.829L1080.77,501.924C1080.41,502.607 1080.02,503.076 1079.57,503.33C1079.13,503.584 1078.63,503.711 1078.08,503.711C1077.46,503.711 1077.01,503.391 1076.73,502.751C1076.45,502.112 1076.36,501.172 1076.46,499.932ZM1082.04,491.518L1082.3,491.593C1082.36,491.612 1082.42,491.632 1082.48,491.654C1082.31,491.43 1082.17,491.346 1082.07,491.48L1082.04,491.518ZM1084.31,495.983L1084.29,496.119L1084.39,496.219L1084.31,495.983ZM1084.54,496.285L1084.5,496.286L1084.5,496.289L1084.53,496.291L1084.54,496.285ZM1084.53,496.291L1084.5,496.307L1084.5,496.345L1084.56,496.292L1084.53,496.291ZM1084.56,496.292C1084.73,496.299 1085.12,496.29 1085.59,496.102L1085.59,496.072C1085.27,496.2 1084.92,496.273 1084.57,496.285L1084.56,496.292ZM1084.57,496.285L1084.6,496.259L1084.54,496.285L1084.57,496.285Z" style="fill:rgb(28,53,233);"/>
                            </g>
                        </g>
                        <g transform="matrix(0.358901,0,0,0.987999,1098.91,20.0359)">
                            <g id="At1" serif:id="At">
                                <path d="M1091.25,498.511C1091.16,500.64 1090.54,502.476 1089.38,504.019C1088.22,505.562 1086.48,506.333 1084.16,506.333C1083.4,506.333 1082.74,506.118 1082.19,505.688C1081.63,505.259 1081.23,504.658 1081,503.887C1080.57,504.688 1080.04,505.288 1079.39,505.688C1078.76,506.089 1078.01,506.289 1077.15,506.289C1075.77,506.289 1074.71,505.708 1073.97,504.546C1073.24,503.384 1072.97,501.846 1073.16,499.932C1073.41,497.451 1074.11,495.464 1075.27,493.97C1076.42,492.476 1077.83,491.729 1079.48,491.729C1080.61,491.729 1081.52,491.855 1082.21,492.109C1082.9,492.363 1083.65,492.754 1084.47,493.281L1084.43,493.34L1084.5,493.34L1083.75,501.733C1083.68,502.661 1083.75,503.296 1083.96,503.638C1084.16,503.98 1084.44,504.15 1084.79,504.15C1085.92,504.15 1086.82,503.618 1087.5,502.554C1088.17,501.489 1088.55,500.142 1088.63,498.511C1088.79,495.063 1088.12,492.373 1086.63,490.439C1085.14,488.506 1082.84,487.539 1079.72,487.539C1076.77,487.539 1074.4,488.579 1072.63,490.659C1070.87,492.739 1069.91,495.527 1069.76,499.023C1069.6,502.49 1070.31,505.225 1071.9,507.227C1073.5,509.229 1075.79,510.23 1078.77,510.23C1079.6,510.23 1080.46,510.132 1081.34,509.937C1082.23,509.741 1082.99,509.497 1083.62,509.204L1084.18,511.357C1083.52,511.768 1082.69,512.087 1081.68,512.317C1080.67,512.546 1079.68,512.661 1078.71,512.661C1074.85,512.661 1071.87,511.445 1069.77,509.014C1067.68,506.582 1066.71,503.252 1066.88,499.023C1067.05,494.854 1068.3,491.516 1070.62,489.011C1072.94,486.506 1076,485.254 1079.78,485.254C1083.56,485.254 1086.46,486.438 1088.47,488.806C1090.48,491.174 1091.41,494.409 1091.25,498.511ZM1076.46,499.932C1076.36,501.172 1076.45,502.112 1076.73,502.751C1077.01,503.391 1077.46,503.711 1078.08,503.711C1078.63,503.711 1079.13,503.584 1079.57,503.33C1080.02,503.076 1080.41,502.607 1080.77,501.924L1080.77,501.829C1080.77,501.804 1080.77,501.772 1080.78,501.733L1081.42,494.468C1081.2,494.399 1080.97,494.346 1080.75,494.307C1080.53,494.268 1080.29,494.248 1080.05,494.248C1078.96,494.248 1078.14,494.719 1077.57,495.662C1077.01,496.604 1076.63,498.027 1076.46,499.932Z" style="fill:rgb(0,211,255);fill-rule:nonzero;"/>
                                <path d="M1086.69,509.077L1087.09,510.605C1087.41,511.873 1086.88,513.208 1085.77,513.903C1084.87,514.468 1083.74,514.931 1082.35,515.247C1081.11,515.528 1079.9,515.666 1078.71,515.666C1073.85,515.666 1070.13,514.037 1067.5,510.975C1064.96,508.029 1063.67,504.028 1063.88,498.906L1063.88,498.897C1064.09,493.918 1065.65,489.96 1068.42,486.97C1071.3,483.856 1075.07,482.249 1079.78,482.249C1084.58,482.249 1088.21,483.856 1090.76,486.861C1093.21,489.74 1094.45,493.639 1094.26,498.625L1094.26,498.635C1094.14,501.418 1093.3,503.809 1091.78,505.826C1090.53,507.49 1088.84,508.603 1086.69,509.077ZM1091.25,498.511C1091.41,494.409 1090.48,491.174 1088.47,488.806C1086.46,486.438 1083.56,485.254 1079.78,485.254C1076,485.254 1072.94,486.506 1070.62,489.011C1068.3,491.516 1067.05,494.854 1066.88,499.023C1066.71,503.252 1067.68,506.582 1069.77,509.014C1071.87,511.445 1074.85,512.661 1078.71,512.661C1079.68,512.661 1080.67,512.546 1081.68,512.317C1082.69,512.087 1083.52,511.768 1084.18,511.357L1083.62,509.204C1082.99,509.497 1082.23,509.741 1081.34,509.937C1080.46,510.132 1079.6,510.23 1078.77,510.23C1075.79,510.23 1073.5,509.229 1071.9,507.227C1070.31,505.225 1069.6,502.49 1069.76,499.023C1069.91,495.527 1070.87,492.739 1072.63,490.659C1074.4,488.579 1076.77,487.539 1079.72,487.539C1082.84,487.539 1085.14,488.506 1086.63,490.439C1088.12,492.373 1088.79,495.063 1088.63,498.511C1088.55,500.142 1088.17,501.489 1087.5,502.554C1086.82,503.618 1085.92,504.15 1084.79,504.15C1084.44,504.15 1084.16,503.98 1083.96,503.638C1083.75,503.296 1083.68,502.661 1083.75,501.733L1084.5,493.34L1084.43,493.34L1084.47,493.281C1083.65,492.754 1082.9,492.363 1082.21,492.109C1081.52,491.855 1080.61,491.729 1079.48,491.729C1077.83,491.729 1076.42,492.476 1075.27,493.97C1074.11,495.464 1073.41,497.451 1073.16,499.932C1072.97,501.846 1073.24,503.384 1073.97,504.546C1074.71,505.708 1075.77,506.289 1077.15,506.289C1078.01,506.289 1078.76,506.089 1079.39,505.688C1080.04,505.288 1080.57,504.688 1081,503.887C1081.23,504.658 1081.63,505.259 1082.19,505.688C1082.74,506.118 1083.4,506.333 1084.16,506.333C1086.48,506.333 1088.22,505.562 1089.38,504.019C1090.54,502.476 1091.16,500.64 1091.25,498.511ZM1076.46,499.932C1076.63,498.027 1077.01,496.604 1077.57,495.662C1078.14,494.719 1078.96,494.248 1080.05,494.248C1080.29,494.248 1080.53,494.268 1080.75,494.307C1080.97,494.346 1081.2,494.399 1081.42,494.468L1080.78,501.733C1080.77,501.772 1080.77,501.804 1080.77,501.829L1080.77,501.924C1080.41,502.607 1080.02,503.076 1079.57,503.33C1079.13,503.584 1078.63,503.711 1078.08,503.711C1077.46,503.711 1077.01,503.391 1076.73,502.751C1076.45,502.112 1076.36,501.172 1076.46,499.932ZM1084.54,496.285L1084.5,496.286L1084.5,496.289L1084.53,496.291L1084.54,496.285ZM1084.53,496.291L1084.5,496.307L1084.5,496.345L1084.56,496.292L1084.53,496.291ZM1084.56,496.292C1084.73,496.299 1085.12,496.29 1085.59,496.102L1085.59,496.072C1085.27,496.2 1084.92,496.273 1084.57,496.285L1084.56,496.292ZM1084.57,496.285L1084.6,496.259L1084.54,496.285L1084.57,496.285ZM1082.04,491.518L1082.3,491.593C1082.36,491.612 1082.42,491.632 1082.48,491.654C1082.31,491.43 1082.17,491.346 1082.07,491.48L1082.04,491.518ZM1084.31,495.983L1084.29,496.119L1084.39,496.219L1084.31,495.983Z" style="fill:rgb(28,53,233);"/>
                            </g>
                        </g>
                        <g transform="matrix(0.358901,0,0,0.987999,1098.91,103.965)">
                            <g id="At2" serif:id="At">
                                <path d="M1091.25,498.511C1091.16,500.64 1090.54,502.476 1089.38,504.019C1088.22,505.562 1086.48,506.333 1084.16,506.333C1083.4,506.333 1082.74,506.118 1082.19,505.688C1081.63,505.259 1081.23,504.658 1081,503.887C1080.57,504.688 1080.04,505.288 1079.39,505.688C1078.76,506.089 1078.01,506.289 1077.15,506.289C1075.77,506.289 1074.71,505.708 1073.97,504.546C1073.24,503.384 1072.97,501.846 1073.16,499.932C1073.41,497.451 1074.11,495.464 1075.27,493.97C1076.42,492.476 1077.83,491.729 1079.48,491.729C1080.61,491.729 1081.52,491.855 1082.21,492.109C1082.9,492.363 1083.65,492.754 1084.47,493.281L1084.43,493.34L1084.5,493.34L1083.75,501.733C1083.68,502.661 1083.75,503.296 1083.96,503.638C1084.16,503.98 1084.44,504.15 1084.79,504.15C1085.92,504.15 1086.82,503.618 1087.5,502.554C1088.17,501.489 1088.55,500.142 1088.63,498.511C1088.79,495.063 1088.12,492.373 1086.63,490.439C1085.14,488.506 1082.84,487.539 1079.72,487.539C1076.77,487.539 1074.4,488.579 1072.63,490.659C1070.87,492.739 1069.91,495.527 1069.76,499.023C1069.6,502.49 1070.31,505.225 1071.9,507.227C1073.5,509.229 1075.79,510.23 1078.77,510.23C1079.6,510.23 1080.46,510.132 1081.34,509.937C1082.23,509.741 1082.99,509.497 1083.62,509.204L1084.18,511.357C1083.52,511.768 1082.69,512.087 1081.68,512.317C1080.67,512.546 1079.68,512.661 1078.71,512.661C1074.85,512.661 1071.87,511.445 1069.77,509.014C1067.68,506.582 1066.71,503.252 1066.88,499.023C1067.05,494.854 1068.3,491.516 1070.62,489.011C1072.94,486.506 1076,485.254 1079.78,485.254C1083.56,485.254 1086.46,486.438 1088.47,488.806C1090.48,491.174 1091.41,494.409 1091.25,498.511ZM1076.46,499.932C1076.36,501.172 1076.45,502.112 1076.73,502.751C1077.01,503.391 1077.46,503.711 1078.08,503.711C1078.63,503.711 1079.13,503.584 1079.57,503.33C1080.02,503.076 1080.41,502.607 1080.77,501.924L1080.77,501.829C1080.77,501.804 1080.77,501.772 1080.78,501.733L1081.42,494.468C1081.2,494.399 1080.97,494.346 1080.75,494.307C1080.53,494.268 1080.29,494.248 1080.05,494.248C1078.96,494.248 1078.14,494.719 1077.57,495.662C1077.01,496.604 1076.63,498.027 1076.46,499.932Z" style="fill:rgb(0,211,255);fill-rule:nonzero;"/>
                                <path d="M1086.69,509.077L1087.09,510.605C1087.41,511.873 1086.88,513.208 1085.77,513.903C1084.87,514.468 1083.74,514.931 1082.35,515.247C1081.11,515.528 1079.9,515.666 1078.71,515.666C1073.85,515.666 1070.13,514.037 1067.5,510.975C1064.96,508.029 1063.67,504.028 1063.88,498.906L1063.88,498.897C1064.09,493.918 1065.65,489.96 1068.42,486.97C1071.3,483.856 1075.07,482.249 1079.78,482.249C1084.58,482.249 1088.21,483.856 1090.76,486.861C1093.21,489.74 1094.45,493.639 1094.26,498.625L1094.26,498.635C1094.14,501.418 1093.3,503.809 1091.78,505.826C1090.53,507.49 1088.84,508.603 1086.69,509.077ZM1082.04,491.518L1082.3,491.593C1082.36,491.612 1082.42,491.632 1082.48,491.654C1082.31,491.43 1082.17,491.346 1082.07,491.48L1082.04,491.518ZM1084.31,495.983L1084.29,496.119L1084.39,496.219L1084.31,495.983ZM1091.25,498.511C1091.41,494.409 1090.48,491.174 1088.47,488.806C1086.46,486.438 1083.56,485.254 1079.78,485.254C1076,485.254 1072.94,486.506 1070.62,489.011C1068.3,491.516 1067.05,494.854 1066.88,499.023C1066.71,503.252 1067.68,506.582 1069.77,509.014C1071.87,511.445 1074.85,512.661 1078.71,512.661C1079.68,512.661 1080.67,512.546 1081.68,512.317C1082.69,512.087 1083.52,511.768 1084.18,511.357L1083.62,509.204C1082.99,509.497 1082.23,509.741 1081.34,509.937C1080.46,510.132 1079.6,510.23 1078.77,510.23C1075.79,510.23 1073.5,509.229 1071.9,507.227C1070.31,505.225 1069.6,502.49 1069.76,499.023C1069.91,495.527 1070.87,492.739 1072.63,490.659C1074.4,488.579 1076.77,487.539 1079.72,487.539C1082.84,487.539 1085.14,488.506 1086.63,490.439C1088.12,492.373 1088.79,495.063 1088.63,498.511C1088.55,500.142 1088.17,501.489 1087.5,502.554C1086.82,503.618 1085.92,504.15 1084.79,504.15C1084.44,504.15 1084.16,503.98 1083.96,503.638C1083.75,503.296 1083.68,502.661 1083.75,501.733L1084.5,493.34L1084.43,493.34L1084.47,493.281C1083.65,492.754 1082.9,492.363 1082.21,492.109C1081.52,491.855 1080.61,491.729 1079.48,491.729C1077.83,491.729 1076.42,492.476 1075.27,493.97C1074.11,495.464 1073.41,497.451 1073.16,499.932C1072.97,501.846 1073.24,503.384 1073.97,504.546C1074.71,505.708 1075.77,506.289 1077.15,506.289C1078.01,506.289 1078.76,506.089 1079.39,505.688C1080.04,505.288 1080.57,504.688 1081,503.887C1081.23,504.658 1081.63,505.259 1082.19,505.688C1082.74,506.118 1083.4,506.333 1084.16,506.333C1086.48,506.333 1088.22,505.562 1089.38,504.019C1090.54,502.476 1091.16,500.64 1091.25,498.511ZM1076.46,499.932C1076.63,498.027 1077.01,496.604 1077.57,495.662C1078.14,494.719 1078.96,494.248 1080.05,494.248C1080.29,494.248 1080.53,494.268 1080.75,494.307C1080.97,494.346 1081.2,494.399 1081.42,494.468L1080.78,501.733C1080.77,501.772 1080.77,501.804 1080.77,501.829L1080.77,501.924C1080.41,502.607 1080.02,503.076 1079.57,503.33C1079.13,503.584 1078.63,503.711 1078.08,503.711C1077.46,503.711 1077.01,503.391 1076.73,502.751C1076.45,502.112 1076.36,501.172 1076.46,499.932ZM1084.54,496.285L1084.5,496.286L1084.5,496.289L1084.53,496.291L1084.54,496.285ZM1084.53,496.291L1084.5,496.307L1084.5,496.345L1084.56,496.292L1084.53,496.291ZM1084.56,496.292C1084.73,496.299 1085.12,496.29 1085.59,496.102L1085.59,496.072C1085.27,496.2 1084.92,496.273 1084.57,496.285L1084.56,496.292ZM1084.57,496.285L1084.6,496.259L1084.54,496.285L1084.57,496.285Z" style="fill:rgb(28,53,233);"/>
                            </g>
                        </g>
                        <g transform="matrix(0.358901,0,0,0.987999,1098.91,62.0002)">
                            <g id="At3" serif:id="At">
                                <path d="M1091.25,498.511C1091.16,500.64 1090.54,502.476 1089.38,504.019C1088.22,505.562 1086.48,506.333 1084.16,506.333C1083.4,506.333 1082.74,506.118 1082.19,505.688C1081.63,505.259 1081.23,504.658 1081,503.887C1080.57,504.688 1080.04,505.288 1079.39,505.688C1078.76,506.089 1078.01,506.289 1077.15,506.289C1075.77,506.289 1074.71,505.708 1073.97,504.546C1073.24,503.384 1072.97,501.846 1073.16,499.932C1073.41,497.451 1074.11,495.464 1075.27,493.97C1076.42,492.476 1077.83,491.729 1079.48,491.729C1080.61,491.729 1081.52,491.855 1082.21,492.109C1082.9,492.363 1083.65,492.754 1084.47,493.281L1084.43,493.34L1084.5,493.34L1083.75,501.733C1083.68,502.661 1083.75,503.296 1083.96,503.638C1084.16,503.98 1084.44,504.15 1084.79,504.15C1085.92,504.15 1086.82,503.618 1087.5,502.554C1088.17,501.489 1088.55,500.142 1088.63,498.511C1088.79,495.063 1088.12,492.373 1086.63,490.439C1085.14,488.506 1082.84,487.539 1079.72,487.539C1076.77,487.539 1074.4,488.579 1072.63,490.659C1070.87,492.739 1069.91,495.527 1069.76,499.023C1069.6,502.49 1070.31,505.225 1071.9,507.227C1073.5,509.229 1075.79,510.23 1078.77,510.23C1079.6,510.23 1080.46,510.132 1081.34,509.937C1082.23,509.741 1082.99,509.497 1083.62,509.204L1084.18,511.357C1083.52,511.768 1082.69,512.087 1081.68,512.317C1080.67,512.546 1079.68,512.661 1078.71,512.661C1074.85,512.661 1071.87,511.445 1069.77,509.014C1067.68,506.582 1066.71,503.252 1066.88,499.023C1067.05,494.854 1068.3,491.516 1070.62,489.011C1072.94,486.506 1076,485.254 1079.78,485.254C1083.56,485.254 1086.46,486.438 1088.47,488.806C1090.48,491.174 1091.41,494.409 1091.25,498.511ZM1076.46,499.932C1076.36,501.172 1076.45,502.112 1076.73,502.751C1077.01,503.391 1077.46,503.711 1078.08,503.711C1078.63,503.711 1079.13,503.584 1079.57,503.33C1080.02,503.076 1080.41,502.607 1080.77,501.924L1080.77,501.829C1080.77,501.804 1080.77,501.772 1080.78,501.733L1081.42,494.468C1081.2,494.399 1080.97,494.346 1080.75,494.307C1080.53,494.268 1080.29,494.248 1080.05,494.248C1078.96,494.248 1078.14,494.719 1077.57,495.662C1077.01,496.604 1076.63,498.027 1076.46,499.932Z" style="fill:rgb(0,211,255);fill-rule:nonzero;"/>
                                <path d="M1086.69,509.077L1087.09,510.605C1087.41,511.873 1086.88,513.208 1085.77,513.903C1084.87,514.468 1083.74,514.931 1082.35,515.247C1081.11,515.528 1079.9,515.666 1078.71,515.666C1073.85,515.666 1070.13,514.037 1067.5,510.975C1064.96,508.029 1063.67,504.028 1063.88,498.906L1063.88,498.897C1064.09,493.918 1065.65,489.96 1068.42,486.97C1071.3,483.856 1075.07,482.249 1079.78,482.249C1084.58,482.249 1088.21,483.856 1090.76,486.861C1093.21,489.74 1094.45,493.639 1094.26,498.625L1094.26,498.635C1094.14,501.418 1093.3,503.809 1091.78,505.826C1090.53,507.49 1088.84,508.603 1086.69,509.077ZM1082.04,491.518L1082.3,491.593C1082.36,491.612 1082.42,491.632 1082.48,491.654C1082.31,491.43 1082.17,491.346 1082.07,491.48L1082.04,491.518ZM1084.54,496.285L1084.5,496.286L1084.5,496.289L1084.53,496.291L1084.54,496.285ZM1084.53,496.291L1084.5,496.307L1084.5,496.345L1084.56,496.292L1084.53,496.291ZM1084.56,496.292C1084.73,496.299 1085.12,496.29 1085.59,496.102L1085.59,496.072C1085.27,496.2 1084.92,496.273 1084.57,496.285L1084.56,496.292ZM1084.57,496.285L1084.6,496.259L1084.54,496.285L1084.57,496.285ZM1084.31,495.983L1084.29,496.119L1084.39,496.219L1084.31,495.983ZM1091.25,498.511C1091.41,494.409 1090.48,491.174 1088.47,488.806C1086.46,486.438 1083.56,485.254 1079.78,485.254C1076,485.254 1072.94,486.506 1070.62,489.011C1068.3,491.516 1067.05,494.854 1066.88,499.023C1066.71,503.252 1067.68,506.582 1069.77,509.014C1071.87,511.445 1074.85,512.661 1078.71,512.661C1079.68,512.661 1080.67,512.546 1081.68,512.317C1082.69,512.087 1083.52,511.768 1084.18,511.357L1083.62,509.204C1082.99,509.497 1082.23,509.741 1081.34,509.937C1080.46,510.132 1079.6,510.23 1078.77,510.23C1075.79,510.23 1073.5,509.229 1071.9,507.227C1070.31,505.225 1069.6,502.49 1069.76,499.023C1069.91,495.527 1070.87,492.739 1072.63,490.659C1074.4,488.579 1076.77,487.539 1079.72,487.539C1082.84,487.539 1085.14,488.506 1086.63,490.439C1088.12,492.373 1088.79,495.063 1088.63,498.511C1088.55,500.142 1088.17,501.489 1087.5,502.554C1086.82,503.618 1085.92,504.15 1084.79,504.15C1084.44,504.15 1084.16,503.98 1083.96,503.638C1083.75,503.296 1083.68,502.661 1083.75,501.733L1084.5,493.34L1084.43,493.34L1084.47,493.281C1083.65,492.754 1082.9,492.363 1082.21,492.109C1081.52,491.855 1080.61,491.729 1079.48,491.729C1077.83,491.729 1076.42,492.476 1075.27,493.97C1074.11,495.464 1073.41,497.451 1073.16,499.932C1072.97,501.846 1073.24,503.384 1073.97,504.546C1074.71,505.708 1075.77,506.289 1077.15,506.289C1078.01,506.289 1078.76,506.089 1079.39,505.688C1080.04,505.288 1080.57,504.688 1081,503.887C1081.23,504.658 1081.63,505.259 1082.19,505.688C1082.74,506.118 1083.4,506.333 1084.16,506.333C1086.48,506.333 1088.22,505.562 1089.38,504.019C1090.54,502.476 1091.16,500.64 1091.25,498.511ZM1076.46,499.932C1076.63,498.027 1077.01,496.604 1077.57,495.662C1078.14,494.719 1078.96,494.248 1080.05,494.248C1080.29,494.248 1080.53,494.268 1080.75,494.307C1080.97,494.346 1081.2,494.399 1081.42,494.468L1080.78,501.733C1080.77,501.772 1080.77,501.804 1080.77,501.829L1080.77,501.924C1080.41,502.607 1080.02,503.076 1079.57,503.33C1079.13,503.584 1078.63,503.711 1078.08,503.711C1077.46,503.711 1077.01,503.391 1076.73,502.751C1076.45,502.112 1076.36,501.172 1076.46,499.932Z" style="fill:rgb(28,53,233);"/>
                            </g>
                        </g>
                    </g>
                    <g id="Default-Column" serif:id="Default Column" transform="matrix(0.935126,0,0,2.43614,-629.492,-650.796)">
                        <g transform="matrix(18,0,0,18,1428.69,465.679)">
                            <path d="M0.513,-0.611C0.469,-0.62 0.43,-0.625 0.398,-0.625C0.321,-0.625 0.283,-0.585 0.283,-0.505L0.283,-0.419L0.498,-0.419L0.498,-0.348L0.283,-0.348L0.283,-0.069L0.445,-0.069L0.445,-0L0.055,-0L0.055,-0.069L0.197,-0.069L0.197,-0.348L0.039,-0.348L0.039,-0.419L0.197,-0.419L0.197,-0.5C0.197,-0.631 0.265,-0.696 0.401,-0.696C0.435,-0.696 0.472,-0.692 0.513,-0.684L0.513,-0.611Z" style="fill:rgb(185,213,145);fill-rule:nonzero;"/>
                        </g>
                        <g transform="matrix(18,0,0,18,1428.69,465.679)">
                        </g>
                        <text x="1418.8px" y="465.679px" style="font-family:'Consolas', monospace;font-size:18px;fill:rgb(185,213,145);">0</text>
                        <g transform="matrix(18,0,0,18,1428.69,489.679)">
                            <path d="M0.513,-0.611C0.469,-0.62 0.43,-0.625 0.398,-0.625C0.321,-0.625 0.283,-0.585 0.283,-0.505L0.283,-0.419L0.498,-0.419L0.498,-0.348L0.283,-0.348L0.283,-0.069L0.445,-0.069L0.445,-0L0.055,-0L0.055,-0.069L0.197,-0.069L0.197,-0.348L0.039,-0.348L0.039,-0.419L0.197,-0.419L0.197,-0.5C0.197,-0.631 0.265,-0.696 0.401,-0.696C0.435,-0.696 0.472,-0.692 0.513,-0.684L0.513,-0.611Z" style="fill:rgb(185,213,145);fill-rule:nonzero;"/>
                        </g>
                        <g transform="matrix(18,0,0,18,1428.69,489.679)">
                        </g>
                        <text x="1418.8px" y="489.679px" style="font-family:'Consolas', monospace;font-size:18px;fill:rgb(185,213,145);">0</text>
                        <g transform="matrix(18,0,0,18,1438.59,513.679)">
                            <path d="M0.513,-0.611C0.469,-0.62 0.43,-0.625 0.398,-0.625C0.321,-0.625 0.283,-0.585 0.283,-0.505L0.283,-0.419L0.498,-0.419L0.498,-0.348L0.283,-0.348L0.283,-0.069L0.445,-0.069L0.445,-0L0.055,-0L0.055,-0.069L0.197,-0.069L0.197,-0.348L0.039,-0.348L0.039,-0.419L0.197,-0.419L0.197,-0.5C0.197,-0.631 0.265,-0.696 0.401,-0.696C0.435,-0.696 0.472,-0.692 0.513,-0.684L0.513,-0.611Z" style="fill:rgb(185,213,145);fill-rule:nonzero;"/>
                        </g>
                        <g transform="matrix(18,0,0,18,1438.59,513.679)">
                        </g>
                        <text x="1418.8px" y="513.679px" style="font-family:'Consolas', monospace;font-size:18px;fill:rgb(185,213,145);">-1</text>
                        <g transform="matrix(18,0,0,18,1438.59,537.679)">
                            <path d="M0.513,-0.611C0.469,-0.62 0.43,-0.625 0.398,-0.625C0.321,-0.625 0.283,-0.585 0.283,-0.505L0.283,-0.419L0.498,-0.419L0.498,-0.348L0.283,-0.348L0.283,-0.069L0.445,-0.069L0.445,-0L0.055,-0L0.055,-0.069L0.197,-0.069L0.197,-0.348L0.039,-0.348L0.039,-0.419L0.197,-0.419L0.197,-0.5C0.197,-0.631 0.265,-0.696 0.401,-0.696C0.435,-0.696 0.472,-0.692 0.513,-0.684L0.513,-0.611Z" style="fill:rgb(185,213,145);fill-rule:nonzero;"/>
                        </g>
                        <g transform="matrix(18,0,0,18,1438.59,537.679)">
                        </g>
                        <text x="1418.8px" y="537.679px" style="font-family:'Consolas', monospace;font-size:18px;fill:rgb(185,213,145);">-1</text>
                    </g>
                    <g id="Type-Column" serif:id="Type Column" transform="matrix(0.935126,0,0,2.43614,-689.033,-650.796)">
                        <text x="1418.8px" y="465.679px" style="font-family:'Consolas', monospace;font-size:18px;fill:rgb(60,158,212);">int</text>
                        <text x="1418.8px" y="489.679px" style="font-family:'Consolas', monospace;font-size:18px;fill:rgb(60,158,212);">int</text>
                        <text x="1418.8px" y="513.679px" style="font-family:'Consolas', monospace;font-size:18px;fill:rgb(60,158,212);">int</text>
                        <g transform="matrix(18,0,0,18,1448.49,537.679)">
                        </g>
                        <text x="1418.8px" y="537.679px" style="font-family:'Consolas', monospace;font-size:18px;fill:rgb(60,158,212);">int</text>
                    </g>
                    <g id="Name-Column" serif:id="Name Column" transform="matrix(0.935126,0,0,2.43614,-58.9264,-595.01)">
                        <g transform="matrix(18,0,0,18,591.738,442.78)">
                            <path d="M0.513,-0.611C0.469,-0.62 0.43,-0.625 0.398,-0.625C0.321,-0.625 0.283,-0.585 0.283,-0.505L0.283,-0.419L0.498,-0.419L0.498,-0.348L0.283,-0.348L0.283,-0.069L0.445,-0.069L0.445,-0L0.055,-0L0.055,-0.069L0.197,-0.069L0.197,-0.348L0.039,-0.348L0.039,-0.419L0.197,-0.419L0.197,-0.5C0.197,-0.631 0.265,-0.696 0.401,-0.696C0.435,-0.696 0.472,-0.692 0.513,-0.684L0.513,-0.611Z" style="fill:rgb(133,188,233);fill-rule:nonzero;"/>
                        </g>
                        <g transform="matrix(18,0,0,18,591.738,442.78)">
                        </g>
                        <g transform="matrix(18,0,0,18,641.22,442.78)">
                            <path d="M0.228,-0.49L0.231,-0.411C0.243,-0.425 0.255,-0.438 0.267,-0.448C0.279,-0.459 0.292,-0.469 0.306,-0.476C0.32,-0.484 0.335,-0.489 0.352,-0.493C0.368,-0.497 0.386,-0.499 0.406,-0.499C0.421,-0.499 0.437,-0.498 0.453,-0.497C0.469,-0.495 0.484,-0.493 0.497,-0.49L0.497,-0.407C0.481,-0.412 0.465,-0.416 0.447,-0.419C0.429,-0.422 0.413,-0.424 0.398,-0.424C0.381,-0.424 0.365,-0.422 0.352,-0.418C0.338,-0.415 0.325,-0.409 0.313,-0.401C0.301,-0.393 0.288,-0.383 0.276,-0.37C0.264,-0.358 0.251,-0.343 0.237,-0.325L0.237,-0.069L0.383,-0.069L0.383,-0L0.046,-0L0.046,-0.069L0.151,-0.069L0.151,-0.423L0.046,-0.423L0.046,-0.49L0.228,-0.49Z" style="fill:rgb(133,188,233);fill-rule:nonzero;"/>
                        </g>
                        <g transform="matrix(18,0,0,18,641.22,442.78)">
                        </g>
                        <text x="601.634px" y="442.78px" style="font-family:'Consolas', monospace;font-size:18px;fill:rgb(133,188,233);"><tspan x="601.634px " y="442.78px ">o</tspan>lde</text>
                        <g transform="matrix(18,0,0,18,591.738,466.78)">
                            <path d="M0.513,-0.611C0.469,-0.62 0.43,-0.625 0.398,-0.625C0.321,-0.625 0.283,-0.585 0.283,-0.505L0.283,-0.419L0.498,-0.419L0.498,-0.348L0.283,-0.348L0.283,-0.069L0.445,-0.069L0.445,-0L0.055,-0L0.055,-0.069L0.197,-0.069L0.197,-0.348L0.039,-0.348L0.039,-0.419L0.197,-0.419L0.197,-0.5C0.197,-0.631 0.265,-0.696 0.401,-0.696C0.435,-0.696 0.472,-0.692 0.513,-0.684L0.513,-0.611Z" style="fill:rgb(133,188,233);fill-rule:nonzero;"/>
                        </g>
                        <g transform="matrix(18,0,0,18,591.738,466.78)">
                        </g>
                        <text x="601.634px" y="466.78px" style="font-family:'Consolas', monospace;font-size:18px;fill:rgb(133,188,233);"><tspan x="601.634px " y="466.78px ">i</tspan>le</text>
                        <g transform="matrix(18,0,0,18,611.531,490.78)">
                            <path d="M0.228,-0.49L0.231,-0.411C0.243,-0.425 0.255,-0.438 0.267,-0.448C0.279,-0.459 0.292,-0.469 0.306,-0.476C0.32,-0.484 0.335,-0.489 0.352,-0.493C0.368,-0.497 0.386,-0.499 0.406,-0.499C0.421,-0.499 0.437,-0.498 0.453,-0.497C0.469,-0.495 0.484,-0.493 0.497,-0.49L0.497,-0.407C0.481,-0.412 0.465,-0.416 0.447,-0.419C0.429,-0.422 0.413,-0.424 0.398,-0.424C0.381,-0.424 0.365,-0.422 0.352,-0.418C0.338,-0.415 0.325,-0.409 0.313,-0.401C0.301,-0.393 0.288,-0.383 0.276,-0.37C0.264,-0.358 0.251,-0.343 0.237,-0.325L0.237,-0.069L0.383,-0.069L0.383,-0L0.046,-0L0.046,-0.069L0.151,-0.069L0.151,-0.423L0.046,-0.423L0.046,-0.49L0.228,-0.49Z" style="fill:rgb(133,188,233);fill-rule:nonzero;"/>
                        </g>
                        <g transform="matrix(18,0,0,18,611.531,490.78)">
                        </g>
                        <g transform="matrix(18,0,0,18,661.013,490.78)">
                            <path d="M0.513,-0.611C0.469,-0.62 0.43,-0.625 0.398,-0.625C0.321,-0.625 0.283,-0.585 0.283,-0.505L0.283,-0.419L0.498,-0.419L0.498,-0.348L0.283,-0.348L0.283,-0.069L0.445,-0.069L0.445,-0L0.055,-0L0.055,-0.069L0.197,-0.069L0.197,-0.348L0.039,-0.348L0.039,-0.419L0.197,-0.419L0.197,-0.5C0.197,-0.631 0.265,-0.696 0.401,-0.696C0.435,-0.696 0.472,-0.692 0.513,-0.684L0.513,-0.611Z" style="fill:rgb(133,188,233);fill-rule:nonzero;"/>
                        </g>
                        <g transform="matrix(18,0,0,18,661.013,490.78)">
                        </g>
                        <g transform="matrix(18,0,0,18,710.496,490.78)">
                            <path d="M0.228,-0.49L0.231,-0.411C0.243,-0.425 0.255,-0.438 0.267,-0.448C0.279,-0.459 0.292,-0.469 0.306,-0.476C0.32,-0.484 0.335,-0.489 0.352,-0.493C0.368,-0.497 0.386,-0.499 0.406,-0.499C0.421,-0.499 0.437,-0.498 0.453,-0.497C0.469,-0.495 0.484,-0.493 0.497,-0.49L0.497,-0.407C0.481,-0.412 0.465,-0.416 0.447,-0.419C0.429,-0.422 0.413,-0.424 0.398,-0.424C0.381,-0.424 0.365,-0.422 0.352,-0.418C0.338,-0.415 0.325,-0.409 0.313,-0.401C0.301,-0.393 0.288,-0.383 0.276,-0.37C0.264,-0.358 0.251,-0.343 0.237,-0.325L0.237,-0.069L0.383,-0.069L0.383,-0L0.046,-0L0.046,-0.069L0.151,-0.069L0.151,-0.423L0.046,-0.423L0.046,-0.49L0.228,-0.49Z" style="fill:rgb(133,188,233);fill-rule:nonzero;"/>
                        </g>
                        <g transform="matrix(18,0,0,18,710.496,490.78)">
                        </g>
                        <text x="591.738px" y="490.78px" style="font-family:'Consolas', monospace;font-size:18px;fill:rgb(133,188,233);">ta<tspan x="621.427px " y="490.78px ">g</tspan>et_<tspan x="670.91px " y="490.78px ">o</tspan>lde</text>
                        <g transform="matrix(18,0,0,18,611.531,514.78)">
                            <path d="M0.228,-0.49L0.231,-0.411C0.243,-0.425 0.255,-0.438 0.267,-0.448C0.279,-0.459 0.292,-0.469 0.306,-0.476C0.32,-0.484 0.335,-0.489 0.352,-0.493C0.368,-0.497 0.386,-0.499 0.406,-0.499C0.421,-0.499 0.437,-0.498 0.453,-0.497C0.469,-0.495 0.484,-0.493 0.497,-0.49L0.497,-0.407C0.481,-0.412 0.465,-0.416 0.447,-0.419C0.429,-0.422 0.413,-0.424 0.398,-0.424C0.381,-0.424 0.365,-0.422 0.352,-0.418C0.338,-0.415 0.325,-0.409 0.313,-0.401C0.301,-0.393 0.288,-0.383 0.276,-0.37C0.264,-0.358 0.251,-0.343 0.237,-0.325L0.237,-0.069L0.383,-0.069L0.383,-0L0.046,-0L0.046,-0.069L0.151,-0.069L0.151,-0.423L0.046,-0.423L0.046,-0.49L0.228,-0.49Z" style="fill:rgb(133,188,233);fill-rule:nonzero;"/>
                        </g>
                        <g transform="matrix(18,0,0,18,611.531,514.78)">
                        </g>
                        <g transform="matrix(18,0,0,18,661.013,514.78)">
                            <path d="M0.513,-0.611C0.469,-0.62 0.43,-0.625 0.398,-0.625C0.321,-0.625 0.283,-0.585 0.283,-0.505L0.283,-0.419L0.498,-0.419L0.498,-0.348L0.283,-0.348L0.283,-0.069L0.445,-0.069L0.445,-0L0.055,-0L0.055,-0.069L0.197,-0.069L0.197,-0.348L0.039,-0.348L0.039,-0.419L0.197,-0.419L0.197,-0.5C0.197,-0.631 0.265,-0.696 0.401,-0.696C0.435,-0.696 0.472,-0.692 0.513,-0.684L0.513,-0.611Z" style="fill:rgb(133,188,233);fill-rule:nonzero;"/>
                        </g>
                        <g transform="matrix(18,0,0,18,661.013,514.78)">
                        </g>
                        <g transform="matrix(18,0,0,18,700.599,514.78)">
                        </g>
                        <text x="591.738px" y="514.78px" style="font-family:'Consolas', monospace;font-size:18px;fill:rgb(133,188,233);">ta<tspan x="621.427px " y="514.78px ">g</tspan>et_<tspan x="670.91px " y="514.78px ">i</tspan>le</text>
                    </g>
                    <g id="PK-FK-Column" serif:id="PK FK Column" transform="matrix(0.935126,0,0,1.94618,-911.696,-436.973)">
                        <g transform="matrix(1,0,0,1.25175,363.917,-142.505)">
                            <g id="FK">
                                <path d="M1117.92,492.218L1117.92,479.333L1126.61,479.333L1126.61,480.854L1119.62,480.854L1119.62,484.844L1125.67,484.844L1125.67,486.364L1119.62,486.364L1119.62,492.218L1117.92,492.218Z" style="fill:rgb(28,53,233);fill-rule:nonzero;"/>
                                <path d="M1117.02,492.218L1117.02,479.333C1117.02,478.836 1117.42,478.434 1117.92,478.434L1126.61,478.434C1127.11,478.434 1127.51,478.836 1127.51,479.333L1127.51,480.854C1127.51,481.351 1127.11,481.753 1126.61,481.753L1120.52,481.753L1120.52,483.944L1125.67,483.944C1126.17,483.944 1126.57,484.347 1126.57,484.844L1126.57,486.364C1126.57,486.861 1126.17,487.264 1125.67,487.264L1120.52,487.264L1120.52,492.218C1120.52,492.715 1120.12,493.118 1119.62,493.118L1117.92,493.118C1117.42,493.118 1117.02,492.715 1117.02,492.218ZM1117.92,492.218L1119.62,492.218L1119.62,486.364L1125.67,486.364L1125.67,484.844L1119.62,484.844L1119.62,480.854L1126.61,480.854L1126.61,479.333L1117.92,479.333L1117.92,492.218Z" style="fill:rgb(249,194,60);"/>
                            </g>
                        </g>
                        <g transform="matrix(1,0,0,1.25175,363.917,-112.463)">
                            <g id="FK1" serif:id="FK">
                                <path d="M1117.92,492.218L1117.92,479.333L1126.61,479.333L1126.61,480.854L1119.62,480.854L1119.62,484.844L1125.67,484.844L1125.67,486.364L1119.62,486.364L1119.62,492.218L1117.92,492.218Z" style="fill:rgb(28,53,233);fill-rule:nonzero;"/>
                                <path d="M1117.02,492.218L1117.02,479.333C1117.02,478.836 1117.42,478.434 1117.92,478.434L1126.61,478.434C1127.11,478.434 1127.51,478.836 1127.51,479.333L1127.51,480.854C1127.51,481.351 1127.11,481.753 1126.61,481.753L1120.52,481.753L1120.52,483.944L1125.67,483.944C1126.17,483.944 1126.57,484.347 1126.57,484.844L1126.57,486.364C1126.57,486.861 1126.17,487.264 1125.67,487.264L1120.52,487.264L1120.52,492.218C1120.52,492.715 1120.12,493.118 1119.62,493.118L1117.92,493.118C1117.42,493.118 1117.02,492.715 1117.02,492.218ZM1117.92,492.218L1119.62,492.218L1119.62,486.364L1125.67,486.364L1125.67,484.844L1119.62,484.844L1119.62,480.854L1126.61,480.854L1126.61,479.333L1117.92,479.333L1117.92,492.218Z" style="fill:rgb(249,194,60);"/>
                            </g>
                        </g>
                        <g transform="matrix(1,0,0,1.25175,363.917,-82.4211)">
                            <g id="FK2" serif:id="FK">
                                <path d="M1117.92,492.218L1117.92,479.333L1126.61,479.333L1126.61,480.854L1119.62,480.854L1119.62,484.844L1125.67,484.844L1125.67,486.364L1119.62,486.364L1119.62,492.218L1117.92,492.218Z" style="fill:rgb(28,53,233);fill-rule:nonzero;"/>
                                <path d="M1117.02,492.218L1117.02,479.333C1117.02,478.836 1117.42,478.434 1117.92,478.434L1126.61,478.434C1127.11,478.434 1127.51,478.836 1127.51,479.333L1127.51,480.854C1127.51,481.351 1127.11,481.753 1126.61,481.753L1120.52,481.753L1120.52,483.944L1125.67,483.944C1126.17,483.944 1126.57,484.347 1126.57,484.844L1126.57,486.364C1126.57,486.861 1126.17,487.264 1125.67,487.264L1120.52,487.264L1120.52,492.218C1120.52,492.715 1120.12,493.118 1119.62,493.118L1117.92,493.118C1117.42,493.118 1117.02,492.715 1117.02,492.218ZM1117.92,492.218L1119.62,492.218L1119.62,486.364L1125.67,486.364L1125.67,484.844L1119.62,484.844L1119.62,480.854L1126.61,480.854L1126.61,479.333L1117.92,479.333L1117.92,492.218Z" style="fill:rgb(249,194,60);"/>
                            </g>
                        </g>
                        <g transform="matrix(1,0,0,1.25175,363.917,-52.379)">
                            <g id="FK3" serif:id="FK">
                                <path d="M1117.92,492.218L1117.92,479.333L1126.61,479.333L1126.61,480.854L1119.62,480.854L1119.62,484.844L1125.67,484.844L1125.67,486.364L1119.62,486.364L1119.62,492.218L1117.92,492.218Z" style="fill:rgb(28,53,233);fill-rule:nonzero;"/>
                                <path d="M1117.02,492.218L1117.02,479.333C1117.02,478.836 1117.42,478.434 1117.92,478.434L1126.61,478.434C1127.11,478.434 1127.51,478.836 1127.51,479.333L1127.51,480.854C1127.51,481.351 1127.11,481.753 1126.61,481.753L1120.52,481.753L1120.52,483.944L1125.67,483.944C1126.17,483.944 1126.57,484.347 1126.57,484.844L1126.57,486.364C1126.57,486.861 1126.17,487.264 1125.67,487.264L1120.52,487.264L1120.52,492.218C1120.52,492.715 1120.12,493.118 1119.62,493.118L1117.92,493.118C1117.42,493.118 1117.02,492.715 1117.02,492.218ZM1117.92,492.218L1119.62,492.218L1119.62,486.364L1125.67,486.364L1125.67,484.844L1119.62,484.844L1119.62,480.854L1126.61,480.854L1126.61,479.333L1117.92,479.333L1117.92,492.218Z" style="fill:rgb(249,194,60);"/>
                            </g>
                        </g>
                    </g>
                    <g id="Header-Background" serif:id="Header Background" transform="matrix(0.869479,0,0,2.02295,166.269,-211.387)">
                        <rect x="347.803" y="268.787" width="532.459" height="44.59" style="fill:rgb(76,76,76);"/>
                        <g id="SCML-Tag" serif:id="SCML Tag" transform="matrix(1.0755,0,0,1.20425,-861.268,-200.678)">
                            <text x="1332.74px" y="415.661px" style="font-family:'Consolas', monospace;font-size:24px;fill:rgb(146,230,26);">&lt;</text>
                            <g transform="matrix(24,0,0,24,1385.52,415.661)">
                                <path d="M0.228,-0.49L0.231,-0.411C0.243,-0.425 0.255,-0.438 0.267,-0.448C0.279,-0.459 0.292,-0.469 0.306,-0.476C0.32,-0.484 0.335,-0.489 0.352,-0.493C0.368,-0.497 0.386,-0.499 0.406,-0.499C0.421,-0.499 0.437,-0.498 0.453,-0.497C0.469,-0.495 0.484,-0.493 0.497,-0.49L0.497,-0.407C0.481,-0.412 0.465,-0.416 0.447,-0.419C0.429,-0.422 0.413,-0.424 0.398,-0.424C0.381,-0.424 0.365,-0.422 0.352,-0.418C0.338,-0.415 0.325,-0.409 0.313,-0.401C0.301,-0.393 0.288,-0.383 0.276,-0.37C0.264,-0.358 0.251,-0.343 0.237,-0.325L0.237,-0.069L0.383,-0.069L0.383,-0L0.046,-0L0.046,-0.069L0.151,-0.069L0.151,-0.423L0.046,-0.423L0.046,-0.49L0.228,-0.49Z" style="fill:white;fill-rule:nonzero;"/>
                            </g>
                            <g transform="matrix(24,0,0,24,1385.52,415.661)">
                            </g>
                            <g transform="matrix(24,0,0,24,1451.5,415.661)">
                                <path d="M0.228,-0.49L0.231,-0.411C0.243,-0.425 0.255,-0.438 0.267,-0.448C0.279,-0.459 0.292,-0.469 0.306,-0.476C0.32,-0.484 0.335,-0.489 0.352,-0.493C0.368,-0.497 0.386,-0.499 0.406,-0.499C0.421,-0.499 0.437,-0.498 0.453,-0.497C0.469,-0.495 0.484,-0.493 0.497,-0.49L0.497,-0.407C0.481,-0.412 0.465,-0.416 0.447,-0.419C0.429,-0.422 0.413,-0.424 0.398,-0.424C0.381,-0.424 0.365,-0.422 0.352,-0.418C0.338,-0.415 0.325,-0.409 0.313,-0.401C0.301,-0.393 0.288,-0.383 0.276,-0.37C0.264,-0.358 0.251,-0.343 0.237,-0.325L0.237,-0.069L0.383,-0.069L0.383,-0L0.046,-0L0.046,-0.069L0.151,-0.069L0.151,-0.423L0.046,-0.423L0.046,-0.49L0.228,-0.49Z" style="fill:white;fill-rule:nonzero;"/>
                            </g>
                            <g transform="matrix(24,0,0,24,1451.5,415.661)">
                            </g>
                            <text x="1345.93px" y="415.661px" style="font-family:'Consolas', monospace;font-size:24px;fill:white;">cha<tspan x="1398.71px " y="415.661px ">a</tspan>cte<tspan x="1464.69px " y="415.661px ">_</tspan>map</text>
                            <text x="1517.47px" y="415.661px" style="font-family:'Consolas', monospace;font-size:24px;fill:rgb(146,230,26);">&gt;</text>
                            <text x="1530.67px" y="415.661px" style="font-family:'Consolas', monospace;font-size:24px;fill:white;">/</text>
                            <text x="1543.86px" y="415.661px" style="font-family:'Consolas', monospace;font-size:24px;fill:rgb(146,230,26);">&lt;</text>
                            <text x="1557.06px" y="415.661px" style="font-family:'Consolas', monospace;font-size:24px;fill:white;">map</text>
                            <g transform="matrix(24,0,0,24,1609.84,415.661)">
                            </g>
                            <text x="1596.64px" y="415.661px" style="font-family:'Consolas', monospace;font-size:24px;fill:rgb(146,230,26);">&gt;</text>
                        </g>
                        <g id="Class-Name" serif:id="Class Name" transform="matrix(1.0755,0,0,1.20425,-999.46,-200.678)">
                            <g transform="matrix(24,0,0,24,1445.61,415.661)">
                            </g>
                            <text x="1260.88px" y="415.661px" style="font-family:'Consolas-Bold', 'Consolas', monospace;font-weight:700;font-size:24px;fill:white;">MapInstruction</text>
                        </g>
                    </g>
                </g>
            </g>
        </g>
    </g>
</svg>
