<?xml version="1.0" encoding="UTF-8" standalone="no"?>
<!DOCTYPE svg PUBLIC "-//W3C//DTD SVG 1.1//EN" "http://www.w3.org/Graphics/SVG/1.1/DTD/svg11.dtd">
<svg width="478px" height="110px" version="1.1" xmlns="http://www.w3.org/2000/svg" xmlns:xlink="http://www.w3.org/1999/xlink" xml:space="preserve" xmlns:serif="http://www.serif.com/" style="fill-rule:evenodd;clip-rule:evenodd;stroke-linejoin:round;stroke-miterlimit:2;">
    <g transform="matrix(1,0,0,1,-1098,-728)">
        <g transform="matrix(1.88574,0,0,2.11455,0,0)">
            <g id="Metadata-Node" serif:id="Metadata Node" transform="matrix(0.53029,0,0,0.133097,337.81,302.543)">
                <rect x="461.325" y="313.788" width="477.583" height="389.292" style="fill:none;"/>
                <clipPath id="_clip1">
                    <rect x="461.325" y="313.788" width="477.583" height="389.292"/>
                </clipPath>
                <g clip-path="url(#_clip1)">
                    <g transform="matrix(0.860484,0,0,1.13643,169.719,31.5814)">
                        <path d="M893.902,254.534L893.902,584.679C893.902,588.105 892.868,590.885 891.595,590.885L341.192,590.885C339.919,590.885 338.885,588.105 338.885,584.679L338.885,254.534C338.885,251.109 339.919,248.328 341.192,248.328L891.595,248.328C892.868,248.328 893.902,251.109 893.902,254.534Z" style="fill:rgb(30,30,30);"/>
                        <path d="M893.902,254.534L893.902,584.679C893.902,588.105 892.868,590.885 891.595,590.885L341.192,590.885C339.919,590.885 338.885,588.105 338.885,584.679L338.885,254.534C338.885,251.109 339.919,248.328 341.192,248.328L891.595,248.328C892.868,248.328 893.902,251.109 893.902,254.534ZM342.092,256.957L342.092,582.257L890.694,582.257L890.694,256.957L342.092,256.957Z" style="fill:rgb(128,128,128);"/>
                    </g>
                    <g id="Tag-Column" serif:id="Tag Column" transform="matrix(1.00001,0,0,3.55317,217.546,-1011.72)">
                        <g transform="matrix(18,0,0,18,611.531,442.78)">
                            <path d="M0.228,-0.49L0.231,-0.411C0.243,-0.425 0.255,-0.438 0.267,-0.448C0.279,-0.459 0.292,-0.469 0.306,-0.476C0.32,-0.484 0.335,-0.489 0.352,-0.493C0.368,-0.497 0.386,-0.499 0.406,-0.499C0.421,-0.499 0.437,-0.498 0.453,-0.497C0.469,-0.495 0.484,-0.493 0.497,-0.49L0.497,-0.407C0.481,-0.412 0.465,-0.416 0.447,-0.419C0.429,-0.422 0.413,-0.424 0.398,-0.424C0.381,-0.424 0.365,-0.422 0.352,-0.418C0.338,-0.415 0.325,-0.409 0.313,-0.401C0.301,-0.393 0.288,-0.383 0.276,-0.37C0.264,-0.358 0.251,-0.343 0.237,-0.325L0.237,-0.069L0.383,-0.069L0.383,-0L0.046,-0L0.046,-0.069L0.151,-0.069L0.151,-0.423L0.046,-0.423L0.046,-0.49L0.228,-0.49Z" style="fill:rgb(189,142,200);fill-rule:nonzero;"/>
                        </g>
                        <g transform="matrix(18,0,0,18,611.531,442.78)">
                        </g>
                        <text x="591.738px" y="442.78px" style="font-family:'Consolas', monospace;font-size:18px;fill:rgb(189,142,200);">va<tspan x="621.427px " y="442.78px ">l</tspan>ine</text>
                        <text x="591.738px" y="466.78px" style="font-family:'Consolas', monospace;font-size:18px;fill:rgb(189,142,200);">tagline</text>
                        <text x="666.014px" y="466.78px" style="font-family:'Consolas', monospace;font-size:18px;fill:white;">/</text>
                        <g transform="matrix(18,0,0,18,708.922,466.78)">
                        </g>
                        <text x="680.912px" y="466.78px" style="font-family:'ArialMT', 'Arial', sans-serif;font-size:18px;fill:rgb(189,142,200);">key</text>
                    </g>
                    <g id="Attrib-or-Elem-Column" serif:id="Attrib or Elem Column" transform="matrix(1.45999,0,0,1.38165,-1375.37,-114.682)">
                        <g id="LTGT-Small" serif:id="LTGT Small" transform="matrix(0.360903,0,0,1.82771,1158.07,-1068.18)">
                            <path d="M895.891,843.729L905.618,849.12C906.106,849.393 906.431,849.637 906.592,849.852C906.753,850.067 906.833,850.341 906.833,850.673C906.833,851.093 906.682,851.456 906.379,851.764C906.077,852.072 905.725,852.225 905.325,852.225C905.061,852.225 904.665,852.079 904.138,851.786L889.651,843.729L904.138,835.673C904.665,835.389 905.056,835.248 905.31,835.248C905.72,835.248 906.077,835.399 906.379,835.702C906.682,836.005 906.833,836.366 906.833,836.786C906.833,837.118 906.753,837.391 906.592,837.606C906.431,837.821 905.618,838.339 905.618,838.339L895.891,843.729Z" style="fill:rgb(96,246,106);fill-rule:nonzero;"/>
                            <path d="M899.446,843.729L906.892,847.856L906.9,847.861C907.698,848.307 908.189,848.735 908.452,849.085C908.765,849.503 908.962,850.027 908.962,850.673C908.962,851.452 908.661,852.123 908.099,852.694L907.61,853.109L906.97,853.469L906.182,853.718L905.325,853.803L904.757,853.759L904.107,853.606C903.767,853.498 903.347,853.318 902.862,853.049L888.374,844.991C887.838,844.693 887.523,844.226 887.523,843.729C887.523,843.233 887.838,842.765 888.374,842.467L902.861,834.41L902.89,834.395C903.37,834.137 903.783,833.965 904.115,833.861L904.75,833.713L905.31,833.67L906.155,833.751L906.943,833.992L907.591,834.347L908.089,834.762C908.656,835.329 908.962,836 908.962,836.786C908.962,837.431 908.765,837.956 908.452,838.373C908.204,838.703 907.004,839.536 907.004,839.536L906.892,839.602L899.446,843.729ZM895.891,843.729L905.618,838.339C905.618,838.339 906.431,837.821 906.592,837.606C906.753,837.391 906.833,837.118 906.833,836.786C906.833,836.366 906.682,836.005 906.379,835.702C906.077,835.399 905.72,835.248 905.31,835.248C905.056,835.248 904.665,835.389 904.138,835.673L889.651,843.729L904.138,851.786C904.665,852.079 905.061,852.225 905.325,852.225C905.725,852.225 906.077,852.072 906.379,851.764C906.682,851.456 906.833,851.093 906.833,850.673C906.833,850.341 906.753,850.067 906.592,849.852C906.431,849.637 906.106,849.393 905.618,849.12L895.891,843.729Z" style="fill:rgb(24,191,50);"/>
                            <g transform="matrix(1,0,0,1,2.17226,0)">
                                <path d="M920.207,843.729L910.481,838.339C909.993,838.065 909.668,837.821 909.507,837.606C909.346,837.391 909.265,837.118 909.265,836.786C909.265,836.366 909.416,836.005 909.719,835.702C910.022,835.399 910.378,835.248 910.789,835.248C911.042,835.248 911.433,835.389 911.96,835.673L926.448,843.729L911.96,851.786C911.433,852.079 911.042,852.225 910.789,852.225C910.378,852.225 910.022,852.074 909.719,851.771C909.416,851.468 909.265,851.102 909.265,850.673C909.265,850.341 909.346,850.067 909.507,849.852C909.668,849.637 909.993,849.393 910.481,849.12L920.207,843.729Z" style="fill:rgb(96,246,106);fill-rule:nonzero;"/>
                                <path d="M916.653,843.729L909.207,839.602L909.198,839.598C908.401,839.151 907.91,838.724 907.647,838.373C907.334,837.956 907.137,837.431 907.137,836.786C907.137,836 907.443,835.329 908.01,834.762L908.508,834.347L909.156,833.992L909.943,833.751L910.789,833.67L911.349,833.713L911.984,833.861C912.315,833.965 912.728,834.137 913.209,834.395L913.237,834.41L927.725,842.467C928.261,842.765 928.576,843.233 928.576,843.729C928.576,844.226 928.261,844.693 927.725,844.991L913.237,853.049C912.755,853.316 912.34,853.495 912.008,853.602L911.363,853.758L910.789,853.803L909.943,853.722L909.156,853.481L908.508,853.126L908.01,852.711C907.446,852.148 907.137,851.472 907.137,850.673C907.137,850.027 907.334,849.503 907.647,849.085C907.91,848.735 908.401,848.307 909.198,847.861L909.207,847.856L916.653,843.729ZM920.207,843.729L910.481,849.12C909.993,849.393 909.668,849.637 909.507,849.852C909.346,850.067 909.265,850.341 909.265,850.673C909.265,851.102 909.416,851.468 909.719,851.771C910.022,852.074 910.378,852.225 910.789,852.225C911.042,852.225 911.433,852.079 911.96,851.786L926.448,843.729L911.96,835.673C911.433,835.389 911.042,835.248 910.789,835.248C910.378,835.248 910.022,835.399 909.719,835.702C909.416,836.005 909.265,836.366 909.265,836.786C909.265,837.118 909.346,837.391 909.507,837.606C909.668,837.821 909.993,838.065 910.481,838.339L920.207,843.729Z" style="fill:rgb(24,191,50);"/>
                            </g>
                        </g>
                        <g id="LTGT-Small1" serif:id="LTGT Small" transform="matrix(0.360903,0,0,1.82771,1158.07,-1006.98)">
                            <path d="M895.891,843.729L905.618,849.12C906.106,849.393 906.431,849.637 906.592,849.852C906.753,850.067 906.833,850.341 906.833,850.673C906.833,851.093 906.682,851.456 906.379,851.764C906.077,852.072 905.725,852.225 905.325,852.225C905.061,852.225 904.665,852.079 904.138,851.786L889.651,843.729L904.138,835.673C904.665,835.389 905.056,835.248 905.31,835.248C905.72,835.248 906.077,835.399 906.379,835.702C906.682,836.005 906.833,836.366 906.833,836.786C906.833,837.118 906.753,837.391 906.592,837.606C906.431,837.821 905.618,838.339 905.618,838.339L895.891,843.729Z" style="fill:rgb(96,246,106);fill-rule:nonzero;"/>
                            <path d="M899.446,843.729L906.892,847.856L906.9,847.861C907.698,848.307 908.189,848.735 908.452,849.085C908.765,849.503 908.962,850.027 908.962,850.673C908.962,851.452 908.661,852.123 908.099,852.694L907.61,853.109L906.97,853.469L906.182,853.718L905.325,853.803L904.757,853.759L904.107,853.606C903.767,853.498 903.347,853.318 902.862,853.049L888.374,844.991C887.838,844.693 887.523,844.226 887.523,843.729C887.523,843.233 887.838,842.765 888.374,842.467L902.861,834.41L902.89,834.395C903.37,834.137 903.783,833.965 904.115,833.861L904.75,833.713L905.31,833.67L906.155,833.751L906.943,833.992L907.591,834.347L908.089,834.762C908.656,835.329 908.962,836 908.962,836.786C908.962,837.431 908.765,837.956 908.452,838.373C908.204,838.703 907.004,839.536 907.004,839.536L906.892,839.602L899.446,843.729ZM895.891,843.729L905.618,838.339C905.618,838.339 906.431,837.821 906.592,837.606C906.753,837.391 906.833,837.118 906.833,836.786C906.833,836.366 906.682,836.005 906.379,835.702C906.077,835.399 905.72,835.248 905.31,835.248C905.056,835.248 904.665,835.389 904.138,835.673L889.651,843.729L904.138,851.786C904.665,852.079 905.061,852.225 905.325,852.225C905.725,852.225 906.077,852.072 906.379,851.764C906.682,851.456 906.833,851.093 906.833,850.673C906.833,850.341 906.753,850.067 906.592,849.852C906.431,849.637 906.106,849.393 905.618,849.12L895.891,843.729Z" style="fill:rgb(24,191,50);"/>
                            <g transform="matrix(1,0,0,1,2.17226,0)">
                                <path d="M920.207,843.729L910.481,838.339C909.993,838.065 909.668,837.821 909.507,837.606C909.346,837.391 909.265,837.118 909.265,836.786C909.265,836.366 909.416,836.005 909.719,835.702C910.022,835.399 910.378,835.248 910.789,835.248C911.042,835.248 911.433,835.389 911.96,835.673L926.448,843.729L911.96,851.786C911.433,852.079 911.042,852.225 910.789,852.225C910.378,852.225 910.022,852.074 909.719,851.771C909.416,851.468 909.265,851.102 909.265,850.673C909.265,850.341 909.346,850.067 909.507,849.852C909.668,849.637 909.993,849.393 910.481,849.12L920.207,843.729Z" style="fill:rgb(96,246,106);fill-rule:nonzero;"/>
                                <path d="M916.653,843.729L909.207,839.602L909.198,839.598C908.401,839.151 907.91,838.724 907.647,838.373C907.334,837.956 907.137,837.431 907.137,836.786C907.137,836 907.443,835.329 908.01,834.762L908.508,834.347L909.156,833.992L909.943,833.751L910.789,833.67L911.349,833.713L911.984,833.861C912.315,833.965 912.728,834.137 913.209,834.395L913.237,834.41L927.725,842.467C928.261,842.765 928.576,843.233 928.576,843.729C928.576,844.226 928.261,844.693 927.725,844.991L913.237,853.049C912.755,853.316 912.34,853.495 912.008,853.602L911.363,853.758L910.789,853.803L909.943,853.722L909.156,853.481L908.508,853.126L908.01,852.711C907.446,852.148 907.137,851.472 907.137,850.673C907.137,850.027 907.334,849.503 907.647,849.085C907.91,848.735 908.401,848.307 909.198,847.861L909.207,847.856L916.653,843.729ZM920.207,843.729L910.481,849.12C909.993,849.393 909.668,849.637 909.507,849.852C909.346,850.067 909.265,850.341 909.265,850.673C909.265,851.102 909.416,851.468 909.719,851.771C910.022,852.074 910.378,852.225 910.789,852.225C911.042,852.225 911.433,852.079 911.96,851.786L926.448,843.729L911.96,835.673C911.433,835.389 911.042,835.248 910.789,835.248C910.378,835.248 910.022,835.399 909.719,835.702C909.416,836.005 909.265,836.366 909.265,836.786C909.265,837.118 909.346,837.391 909.507,837.606C909.668,837.821 909.993,838.065 910.481,838.339L920.207,843.729Z" style="fill:rgb(24,191,50);"/>
                            </g>
                        </g>
                    </g>
                    <g id="Default-Column" serif:id="Default Column" transform="matrix(1.00001,0,0,3.55317,-665.177,-1093.08)">
                        <text x="1418.8px" y="465.679px" style="font-family:'Consolas', monospace;font-size:18px;fill:rgb(185,213,145);">[]</text>
                        <g transform="matrix(18,0,0,18,1438.59,489.679)">
                        </g>
                        <text x="1418.8px" y="489.679px" style="font-family:'Consolas', monospace;font-size:18px;fill:rgb(185,213,145);">[]</text>
                    </g>
                    <g id="Type-Column" serif:id="Type Column" transform="matrix(1.00001,0,0,3.55317,-802.849,-1093.08)">
                        <g transform="matrix(18,0,0,18,1438.59,465.679)">
                            <path d="M0.228,-0.49L0.231,-0.411C0.243,-0.425 0.255,-0.438 0.267,-0.448C0.279,-0.459 0.292,-0.469 0.306,-0.476C0.32,-0.484 0.335,-0.489 0.352,-0.493C0.368,-0.497 0.386,-0.499 0.406,-0.499C0.421,-0.499 0.437,-0.498 0.453,-0.497C0.469,-0.495 0.484,-0.493 0.497,-0.49L0.497,-0.407C0.481,-0.412 0.465,-0.416 0.447,-0.419C0.429,-0.422 0.413,-0.424 0.398,-0.424C0.381,-0.424 0.365,-0.422 0.352,-0.418C0.338,-0.415 0.325,-0.409 0.313,-0.401C0.301,-0.393 0.288,-0.383 0.276,-0.37C0.264,-0.358 0.251,-0.343 0.237,-0.325L0.237,-0.069L0.383,-0.069L0.383,-0L0.046,-0L0.046,-0.069L0.151,-0.069L0.151,-0.423L0.046,-0.423L0.046,-0.49L0.228,-0.49Z" style="fill:rgb(60,158,212);fill-rule:nonzero;"/>
                        </g>
                        <g transform="matrix(18,0,0,18,1438.59,465.679)">
                        </g>
                        <text x="1418.8px" y="465.679px" style="font-family:'Consolas', monospace;font-size:18px;fill:rgb(60,158,212);">Va<tspan x="1448.49px " y="465.679px ">l</tspan>ine</text>
                        <text x="1488.07px" y="465.679px" style="font-family:'ArialMT', 'Arial', sans-serif;font-size:15px;fill:rgb(122,122,122);">[0..*]</text>
                        <text x="1418.8px" y="489.679px" style="font-family:'Consolas', monospace;font-size:18px;fill:rgb(60,158,212);">TaglineKey</text>
                        <g transform="matrix(15,0,0,15,1548.61,489.679)">
                        </g>
                        <text x="1517.76px" y="489.679px" style="font-family:'ArialMT', 'Arial', sans-serif;font-size:15px;fill:rgb(122,122,122);">[0..*]</text>
                    </g>
                    <g id="Name-Column" serif:id="Name Column" transform="matrix(1.00001,0,0,3.55317,-95.0231,-1011.72)">
                        <g transform="matrix(18,0,0,18,611.531,442.78)">
                            <path d="M0.228,-0.49L0.231,-0.411C0.243,-0.425 0.255,-0.438 0.267,-0.448C0.279,-0.459 0.292,-0.469 0.306,-0.476C0.32,-0.484 0.335,-0.489 0.352,-0.493C0.368,-0.497 0.386,-0.499 0.406,-0.499C0.421,-0.499 0.437,-0.498 0.453,-0.497C0.469,-0.495 0.484,-0.493 0.497,-0.49L0.497,-0.407C0.481,-0.412 0.465,-0.416 0.447,-0.419C0.429,-0.422 0.413,-0.424 0.398,-0.424C0.381,-0.424 0.365,-0.422 0.352,-0.418C0.338,-0.415 0.325,-0.409 0.313,-0.401C0.301,-0.393 0.288,-0.383 0.276,-0.37C0.264,-0.358 0.251,-0.343 0.237,-0.325L0.237,-0.069L0.383,-0.069L0.383,-0L0.046,-0L0.046,-0.069L0.151,-0.069L0.151,-0.423L0.046,-0.423L0.046,-0.49L0.228,-0.49Z" style="fill:rgb(133,188,233);fill-rule:nonzero;"/>
                        </g>
                        <g transform="matrix(18,0,0,18,611.531,442.78)">
                        </g>
                        <text x="591.738px" y="442.78px" style="font-family:'Consolas', monospace;font-size:18px;fill:rgb(133,188,233);">va<tspan x="621.427px " y="442.78px ">l</tspan>ines</text>
                        <g transform="matrix(18,0,0,18,700.599,466.78)">
                        </g>
                        <text x="591.738px" y="466.78px" style="font-family:'Consolas', monospace;font-size:18px;fill:rgb(133,188,233);">taglineKeys</text>
                    </g>
                    <g id="PK-FK-Column" serif:id="PK FK Column">
                    </g>
                    <g id="Header-Background" serif:id="Header Background" transform="matrix(0.867574,0,0,2.95052,167.442,-452.194)">
                        <rect x="347.803" y="268.787" width="532.459" height="44.59" style="fill:rgb(76,76,76);"/>
                        <g id="SCML-Tag" serif:id="SCML Tag" transform="matrix(1.15265,0,0,1.20425,-947.996,-200.678)">
                            <text x="1497.53px" y="415.661px" style="font-family:'Consolas', monospace;font-size:24px;fill:rgb(146,230,26);">&lt;</text>
                            <text x="1510.73px" y="415.661px" style="font-family:'Consolas', monospace;font-size:24px;fill:white;">meta</text>
                            <g transform="matrix(24,0,0,24,1576.7,415.661)">
                            </g>
                            <text x="1563.51px" y="415.661px" style="font-family:'Consolas', monospace;font-size:24px;fill:rgb(146,230,26);">&gt;</text>
                        </g>
                        <g id="Class-Name" serif:id="Class Name" transform="matrix(1.15265,0,0,1.20425,-1096.1,-200.678)">
                            <g transform="matrix(24,0,0,24,1366.44,415.661)">
                            </g>
                            <text x="1260.88px" y="415.661px" style="font-family:'Consolas-Bold', 'Consolas', monospace;font-weight:700;font-size:24px;fill:white;">Metadata</text>
                        </g>
                    </g>
                </g>
            </g>
        </g>
    </g>
</svg>
