<?xml version="1.0" encoding="UTF-8" standalone="no"?>
<!DOCTYPE svg PUBLIC "-//W3C//DTD SVG 1.1//EN" "http://www.w3.org/Graphics/SVG/1.1/DTD/svg11.dtd">
<svg width="546px" height="278px" version="1.1" xmlns="http://www.w3.org/2000/svg" xmlns:xlink="http://www.w3.org/1999/xlink" xml:space="preserve" xmlns:serif="http://www.serif.com/" style="fill-rule:evenodd;clip-rule:evenodd;stroke-linecap:round;stroke-linejoin:round;stroke-miterlimit:1.5;">
    <g transform="matrix(1,0,0,1,-2633,-1747)">
        <g transform="matrix(1.88574,0,0,2.11455,0,0)">
            <g id="Node-Reference" serif:id="Node Reference">
                <g id="Node-Example" serif:id="Node Example" transform="matrix(0.441875,0,0,0.189323,1248.7,781.992)">
                    <rect x="461.325" y="313.788" width="477.583" height="389.292" style="fill:none;"/>
                    <clipPath id="_clip1">
                        <rect x="461.325" y="313.788" width="477.583" height="389.292"/>
                    </clipPath>
                    <g clip-path="url(#_clip1)">
                        <g transform="matrix(0.860484,0,0,1.13643,169.719,31.5814)">
                            <path d="M893.902,254.534L893.902,584.679C893.902,588.105 892.137,590.885 889.964,590.885L342.823,590.885C340.65,590.885 338.885,588.105 338.885,584.679L338.885,254.534C338.885,251.109 340.65,248.328 342.823,248.328L889.964,248.328C892.137,248.328 893.902,251.109 893.902,254.534Z" style="fill:rgb(30,30,30);"/>
                            <path d="M893.902,254.534L893.902,584.679C893.902,588.105 892.137,590.885 889.964,590.885L342.823,590.885C340.65,590.885 338.885,588.105 338.885,584.679L338.885,254.534C338.885,251.109 340.65,248.328 342.823,248.328L889.964,248.328C892.137,248.328 893.902,251.109 893.902,254.534ZM890.053,254.534C890.053,254.457 890.013,254.394 889.964,254.394L342.823,254.394C342.774,254.394 342.734,254.457 342.734,254.534L342.734,584.679C342.734,584.757 342.774,584.819 342.823,584.819L889.964,584.819C890.013,584.819 890.053,584.757 890.053,584.679L890.053,254.534Z" style="fill:rgb(128,128,128);"/>
                        </g>
                        <g id="Tag-Column" serif:id="Tag Column" transform="matrix(1.2001,0,0,2.49792,160.368,-618.058)">
                            <text x="591.738px" y="442.78px" style="font-family:'Consolas', monospace;font-size:18px;fill:rgb(189,142,200);">id</text>
                            <g transform="matrix(18,0,0,18,611.531,466.78)">
                                <path d="M0.513,-0.611C0.469,-0.62 0.43,-0.625 0.398,-0.625C0.321,-0.625 0.283,-0.585 0.283,-0.505L0.283,-0.419L0.498,-0.419L0.498,-0.348L0.283,-0.348L0.283,-0.069L0.445,-0.069L0.445,-0L0.055,-0L0.055,-0.069L0.197,-0.069L0.197,-0.348L0.039,-0.348L0.039,-0.419L0.197,-0.419L0.197,-0.5C0.197,-0.631 0.265,-0.696 0.401,-0.696C0.435,-0.696 0.472,-0.692 0.513,-0.684L0.513,-0.611Z" style="fill:rgb(189,142,200);fill-rule:nonzero;"/>
                            </g>
                            <g transform="matrix(18,0,0,18,611.531,466.78)">
                            </g>
                            <text x="591.738px" y="466.78px" style="font-family:'Consolas', monospace;font-size:18px;fill:rgb(189,142,200);">de</text>
                            <text x="591.738px" y="490.78px" style="font-family:'Consolas', monospace;font-size:18px;fill:rgb(189,142,200);">key</text>
                            <g transform="matrix(18,0,0,18,621.427,514.78)">
                            </g>
                            <text x="591.738px" y="514.78px" style="font-family:'Consolas', monospace;font-size:18px;fill:white;">N/A</text>
                        </g>
                        <g id="Attrib-or-Elem-Column" serif:id="Attrib or Elem Column" transform="matrix(1.45999,0,0,1.38165,-1319.7,-175.159)">
                            <g transform="matrix(0.460598,0,0,1.01306,989.167,-34.0875)">
                                <g id="At">
                                    <path d="M1091.25,498.511C1091.16,500.64 1090.54,502.476 1089.38,504.019C1088.22,505.562 1086.48,506.333 1084.16,506.333C1083.4,506.333 1082.74,506.118 1082.19,505.688C1081.63,505.259 1081.23,504.658 1081,503.887C1080.57,504.688 1080.04,505.288 1079.39,505.688C1078.76,506.089 1078.01,506.289 1077.15,506.289C1075.77,506.289 1074.71,505.708 1073.97,504.546C1073.24,503.384 1072.97,501.846 1073.16,499.932C1073.41,497.451 1074.11,495.464 1075.27,493.97C1076.42,492.476 1077.83,491.729 1079.48,491.729C1080.61,491.729 1081.52,491.855 1082.21,492.109C1082.9,492.363 1083.65,492.754 1084.47,493.281L1084.43,493.34L1084.5,493.34L1083.75,501.733C1083.68,502.661 1083.75,503.296 1083.96,503.638C1084.16,503.98 1084.44,504.15 1084.79,504.15C1085.92,504.15 1086.82,503.618 1087.5,502.554C1088.17,501.489 1088.55,500.142 1088.63,498.511C1088.79,495.063 1088.12,492.373 1086.63,490.439C1085.14,488.506 1082.84,487.539 1079.72,487.539C1076.77,487.539 1074.4,488.579 1072.63,490.659C1070.87,492.739 1069.91,495.527 1069.76,499.023C1069.6,502.49 1070.31,505.225 1071.9,507.227C1073.5,509.229 1075.79,510.23 1078.77,510.23C1079.6,510.23 1080.46,510.132 1081.34,509.937C1082.23,509.741 1082.99,509.497 1083.62,509.204L1084.18,511.357C1083.52,511.768 1082.69,512.087 1081.68,512.317C1080.67,512.546 1079.68,512.661 1078.71,512.661C1074.85,512.661 1071.87,511.445 1069.77,509.014C1067.68,506.582 1066.71,503.252 1066.88,499.023C1067.05,494.854 1068.3,491.516 1070.62,489.011C1072.94,486.506 1076,485.254 1079.78,485.254C1083.56,485.254 1086.46,486.438 1088.47,488.806C1090.48,491.174 1091.41,494.409 1091.25,498.511ZM1076.46,499.932C1076.36,501.172 1076.45,502.112 1076.73,502.751C1077.01,503.391 1077.46,503.711 1078.08,503.711C1078.63,503.711 1079.13,503.584 1079.57,503.33C1080.02,503.076 1080.41,502.607 1080.77,501.924L1080.77,501.829C1080.77,501.804 1080.77,501.772 1080.78,501.733L1081.42,494.468C1081.2,494.399 1080.97,494.346 1080.75,494.307C1080.53,494.268 1080.29,494.248 1080.05,494.248C1078.96,494.248 1078.14,494.719 1077.57,495.662C1077.01,496.604 1076.63,498.027 1076.46,499.932Z" style="fill:rgb(0,211,255);fill-rule:nonzero;"/>
                                    <path d="M1086.69,509.077L1087.09,510.605C1087.41,511.873 1086.88,513.208 1085.77,513.903C1084.87,514.468 1083.74,514.931 1082.35,515.247C1081.11,515.528 1079.9,515.666 1078.71,515.666C1073.85,515.666 1070.13,514.037 1067.5,510.975C1064.96,508.029 1063.67,504.028 1063.88,498.906L1063.88,498.897C1064.09,493.918 1065.65,489.96 1068.42,486.97C1071.3,483.856 1075.07,482.249 1079.78,482.249C1084.58,482.249 1088.21,483.856 1090.76,486.861C1093.21,489.74 1094.45,493.639 1094.26,498.625L1094.26,498.635C1094.14,501.418 1093.3,503.809 1091.78,505.826C1090.53,507.49 1088.84,508.603 1086.69,509.077ZM1084.54,496.285L1084.5,496.286L1084.5,496.289L1084.53,496.291L1084.54,496.285ZM1084.53,496.291L1084.5,496.307L1084.5,496.345L1084.56,496.292L1084.53,496.291ZM1084.56,496.292C1084.73,496.299 1085.12,496.29 1085.59,496.102L1085.59,496.072C1085.27,496.2 1084.92,496.273 1084.57,496.285L1084.56,496.292ZM1084.57,496.285L1084.6,496.259L1084.54,496.285L1084.57,496.285ZM1084.31,495.983L1084.29,496.119L1084.39,496.219L1084.31,495.983ZM1091.25,498.511C1091.41,494.409 1090.48,491.174 1088.47,488.806C1086.46,486.438 1083.56,485.254 1079.78,485.254C1076,485.254 1072.94,486.506 1070.62,489.011C1068.3,491.516 1067.05,494.854 1066.88,499.023C1066.71,503.252 1067.68,506.582 1069.77,509.014C1071.87,511.445 1074.85,512.661 1078.71,512.661C1079.68,512.661 1080.67,512.546 1081.68,512.317C1082.69,512.087 1083.52,511.768 1084.18,511.357L1083.62,509.204C1082.99,509.497 1082.23,509.741 1081.34,509.937C1080.46,510.132 1079.6,510.23 1078.77,510.23C1075.79,510.23 1073.5,509.229 1071.9,507.227C1070.31,505.225 1069.6,502.49 1069.76,499.023C1069.91,495.527 1070.87,492.739 1072.63,490.659C1074.4,488.579 1076.77,487.539 1079.72,487.539C1082.84,487.539 1085.14,488.506 1086.63,490.439C1088.12,492.373 1088.79,495.063 1088.63,498.511C1088.55,500.142 1088.17,501.489 1087.5,502.554C1086.82,503.618 1085.92,504.15 1084.79,504.15C1084.44,504.15 1084.16,503.98 1083.96,503.638C1083.75,503.296 1083.68,502.661 1083.75,501.733L1084.5,493.34L1084.43,493.34L1084.47,493.281C1083.65,492.754 1082.9,492.363 1082.21,492.109C1081.52,491.855 1080.61,491.729 1079.48,491.729C1077.83,491.729 1076.42,492.476 1075.27,493.97C1074.11,495.464 1073.41,497.451 1073.16,499.932C1072.97,501.846 1073.24,503.384 1073.97,504.546C1074.71,505.708 1075.77,506.289 1077.15,506.289C1078.01,506.289 1078.76,506.089 1079.39,505.688C1080.04,505.288 1080.57,504.688 1081,503.887C1081.23,504.658 1081.63,505.259 1082.19,505.688C1082.74,506.118 1083.4,506.333 1084.16,506.333C1086.48,506.333 1088.22,505.562 1089.38,504.019C1090.54,502.476 1091.16,500.64 1091.25,498.511ZM1076.46,499.932C1076.63,498.027 1077.01,496.604 1077.57,495.662C1078.14,494.719 1078.96,494.248 1080.05,494.248C1080.29,494.248 1080.53,494.268 1080.75,494.307C1080.97,494.346 1081.2,494.399 1081.42,494.468L1080.78,501.733C1080.77,501.772 1080.77,501.804 1080.77,501.829L1080.77,501.924C1080.41,502.607 1080.02,503.076 1079.57,503.33C1079.13,503.584 1078.63,503.711 1078.08,503.711C1077.46,503.711 1077.01,503.391 1076.73,502.751C1076.45,502.112 1076.36,501.172 1076.46,499.932ZM1082.04,491.518L1082.3,491.593C1082.36,491.612 1082.42,491.632 1082.48,491.654C1082.31,491.43 1082.17,491.346 1082.07,491.48L1082.04,491.518Z" style="fill:rgb(28,53,233);"/>
                                </g>
                            </g>
                            <g transform="matrix(0.460598,0,0,1.01306,989.167,8.94111)">
                                <g id="At1" serif:id="At">
                                    <path d="M1091.25,498.511C1091.16,500.64 1090.54,502.476 1089.38,504.019C1088.22,505.562 1086.48,506.333 1084.16,506.333C1083.4,506.333 1082.74,506.118 1082.19,505.688C1081.63,505.259 1081.23,504.658 1081,503.887C1080.57,504.688 1080.04,505.288 1079.39,505.688C1078.76,506.089 1078.01,506.289 1077.15,506.289C1075.77,506.289 1074.71,505.708 1073.97,504.546C1073.24,503.384 1072.97,501.846 1073.16,499.932C1073.41,497.451 1074.11,495.464 1075.27,493.97C1076.42,492.476 1077.83,491.729 1079.48,491.729C1080.61,491.729 1081.52,491.855 1082.21,492.109C1082.9,492.363 1083.65,492.754 1084.47,493.281L1084.43,493.34L1084.5,493.34L1083.75,501.733C1083.68,502.661 1083.75,503.296 1083.96,503.638C1084.16,503.98 1084.44,504.15 1084.79,504.15C1085.92,504.15 1086.82,503.618 1087.5,502.554C1088.17,501.489 1088.55,500.142 1088.63,498.511C1088.79,495.063 1088.12,492.373 1086.63,490.439C1085.14,488.506 1082.84,487.539 1079.72,487.539C1076.77,487.539 1074.4,488.579 1072.63,490.659C1070.87,492.739 1069.91,495.527 1069.76,499.023C1069.6,502.49 1070.31,505.225 1071.9,507.227C1073.5,509.229 1075.79,510.23 1078.77,510.23C1079.6,510.23 1080.46,510.132 1081.34,509.937C1082.23,509.741 1082.99,509.497 1083.62,509.204L1084.18,511.357C1083.52,511.768 1082.69,512.087 1081.68,512.317C1080.67,512.546 1079.68,512.661 1078.71,512.661C1074.85,512.661 1071.87,511.445 1069.77,509.014C1067.68,506.582 1066.71,503.252 1066.88,499.023C1067.05,494.854 1068.3,491.516 1070.62,489.011C1072.94,486.506 1076,485.254 1079.78,485.254C1083.56,485.254 1086.46,486.438 1088.47,488.806C1090.48,491.174 1091.41,494.409 1091.25,498.511ZM1076.46,499.932C1076.36,501.172 1076.45,502.112 1076.73,502.751C1077.01,503.391 1077.46,503.711 1078.08,503.711C1078.63,503.711 1079.13,503.584 1079.57,503.33C1080.02,503.076 1080.41,502.607 1080.77,501.924L1080.77,501.829C1080.77,501.804 1080.77,501.772 1080.78,501.733L1081.42,494.468C1081.2,494.399 1080.97,494.346 1080.75,494.307C1080.53,494.268 1080.29,494.248 1080.05,494.248C1078.96,494.248 1078.14,494.719 1077.57,495.662C1077.01,496.604 1076.63,498.027 1076.46,499.932Z" style="fill:rgb(0,211,255);fill-rule:nonzero;"/>
                                    <path d="M1086.69,509.077L1087.09,510.605C1087.41,511.873 1086.88,513.208 1085.77,513.903C1084.87,514.468 1083.74,514.931 1082.35,515.247C1081.11,515.528 1079.9,515.666 1078.71,515.666C1073.85,515.666 1070.13,514.037 1067.5,510.975C1064.96,508.029 1063.67,504.028 1063.88,498.906L1063.88,498.897C1064.09,493.918 1065.65,489.96 1068.42,486.97C1071.3,483.856 1075.07,482.249 1079.78,482.249C1084.58,482.249 1088.21,483.856 1090.76,486.861C1093.21,489.74 1094.45,493.639 1094.26,498.625L1094.26,498.635C1094.14,501.418 1093.3,503.809 1091.78,505.826C1090.53,507.49 1088.84,508.603 1086.69,509.077ZM1084.31,495.983L1084.29,496.119L1084.39,496.219L1084.31,495.983ZM1082.04,491.518L1082.3,491.593C1082.36,491.612 1082.42,491.632 1082.48,491.654C1082.31,491.43 1082.17,491.346 1082.07,491.48L1082.04,491.518ZM1091.25,498.511C1091.41,494.409 1090.48,491.174 1088.47,488.806C1086.46,486.438 1083.56,485.254 1079.78,485.254C1076,485.254 1072.94,486.506 1070.62,489.011C1068.3,491.516 1067.05,494.854 1066.88,499.023C1066.71,503.252 1067.68,506.582 1069.77,509.014C1071.87,511.445 1074.85,512.661 1078.71,512.661C1079.68,512.661 1080.67,512.546 1081.68,512.317C1082.69,512.087 1083.52,511.768 1084.18,511.357L1083.62,509.204C1082.99,509.497 1082.23,509.741 1081.34,509.937C1080.46,510.132 1079.6,510.23 1078.77,510.23C1075.79,510.23 1073.5,509.229 1071.9,507.227C1070.31,505.225 1069.6,502.49 1069.76,499.023C1069.91,495.527 1070.87,492.739 1072.63,490.659C1074.4,488.579 1076.77,487.539 1079.72,487.539C1082.84,487.539 1085.14,488.506 1086.63,490.439C1088.12,492.373 1088.79,495.063 1088.63,498.511C1088.55,500.142 1088.17,501.489 1087.5,502.554C1086.82,503.618 1085.92,504.15 1084.79,504.15C1084.44,504.15 1084.16,503.98 1083.96,503.638C1083.75,503.296 1083.68,502.661 1083.75,501.733L1084.5,493.34L1084.43,493.34L1084.47,493.281C1083.65,492.754 1082.9,492.363 1082.21,492.109C1081.52,491.855 1080.61,491.729 1079.48,491.729C1077.83,491.729 1076.42,492.476 1075.27,493.97C1074.11,495.464 1073.41,497.451 1073.16,499.932C1072.97,501.846 1073.24,503.384 1073.97,504.546C1074.71,505.708 1075.77,506.289 1077.15,506.289C1078.01,506.289 1078.76,506.089 1079.39,505.688C1080.04,505.288 1080.57,504.688 1081,503.887C1081.23,504.658 1081.63,505.259 1082.19,505.688C1082.74,506.118 1083.4,506.333 1084.16,506.333C1086.48,506.333 1088.22,505.562 1089.38,504.019C1090.54,502.476 1091.16,500.64 1091.25,498.511ZM1076.46,499.932C1076.63,498.027 1077.01,496.604 1077.57,495.662C1078.14,494.719 1078.96,494.248 1080.05,494.248C1080.29,494.248 1080.53,494.268 1080.75,494.307C1080.97,494.346 1081.2,494.399 1081.42,494.468L1080.78,501.733C1080.77,501.772 1080.77,501.804 1080.77,501.829L1080.77,501.924C1080.41,502.607 1080.02,503.076 1079.57,503.33C1079.13,503.584 1078.63,503.711 1078.08,503.711C1077.46,503.711 1077.01,503.391 1076.73,502.751C1076.45,502.112 1076.36,501.172 1076.46,499.932ZM1084.54,496.285L1084.5,496.286L1084.5,496.289L1084.53,496.291L1084.54,496.285ZM1084.53,496.291L1084.5,496.307L1084.5,496.345L1084.56,496.292L1084.53,496.291ZM1084.56,496.292C1084.73,496.299 1085.12,496.29 1085.59,496.102L1085.59,496.072C1085.27,496.2 1084.92,496.273 1084.57,496.285L1084.56,496.292ZM1084.57,496.285L1084.6,496.259L1084.54,496.285L1084.57,496.285Z" style="fill:rgb(28,53,233);"/>
                                </g>
                            </g>
                            <g id="LTGT-Small" serif:id="LTGT Small" transform="matrix(0.433116,0,0,1.2849,1092.42,-523.702)">
                                <path d="M895.891,843.729L905.618,849.12C906.106,849.393 906.431,849.637 906.592,849.852C906.753,850.067 906.833,850.341 906.833,850.673C906.833,851.093 906.682,851.456 906.379,851.764C906.077,852.072 905.725,852.225 905.325,852.225C905.061,852.225 904.665,852.079 904.138,851.786L889.651,843.729L904.138,835.673C904.665,835.389 905.056,835.248 905.31,835.248C905.72,835.248 906.077,835.399 906.379,835.702C906.682,836.005 906.833,836.366 906.833,836.786C906.833,837.118 906.753,837.391 906.592,837.606C906.431,837.821 905.618,838.339 905.618,838.339L895.891,843.729Z" style="fill:rgb(96,246,106);fill-rule:nonzero;"/>
                                <path d="M899.446,843.729L906.892,847.856L906.9,847.861C907.698,848.307 908.189,848.735 908.452,849.085C908.765,849.503 908.962,850.027 908.962,850.673C908.962,851.452 908.661,852.123 908.099,852.694L907.61,853.109L906.97,853.469L906.182,853.718L905.325,853.803L904.757,853.759L904.107,853.606C903.767,853.498 903.347,853.318 902.862,853.049L888.374,844.991C887.838,844.693 887.523,844.226 887.523,843.729C887.523,843.233 887.838,842.765 888.374,842.467L902.861,834.41L902.89,834.395C903.37,834.137 903.783,833.965 904.115,833.861L904.75,833.713L905.31,833.67L906.155,833.751L906.943,833.992L907.591,834.347L908.089,834.762C908.656,835.329 908.962,836 908.962,836.786C908.962,837.431 908.765,837.956 908.452,838.373C908.204,838.703 907.004,839.536 907.004,839.536L906.892,839.602L899.446,843.729ZM895.891,843.729L905.618,838.339C905.618,838.339 906.431,837.821 906.592,837.606C906.753,837.391 906.833,837.118 906.833,836.786C906.833,836.366 906.682,836.005 906.379,835.702C906.077,835.399 905.72,835.248 905.31,835.248C905.056,835.248 904.665,835.389 904.138,835.673L889.651,843.729L904.138,851.786C904.665,852.079 905.061,852.225 905.325,852.225C905.725,852.225 906.077,852.072 906.379,851.764C906.682,851.456 906.833,851.093 906.833,850.673C906.833,850.341 906.753,850.067 906.592,849.852C906.431,849.637 906.106,849.393 905.618,849.12L895.891,843.729Z" style="fill:rgb(24,191,50);"/>
                                <g transform="matrix(1,0,0,1,2.17226,0)">
                                    <path d="M920.207,843.729L910.481,838.339C909.993,838.065 909.668,837.821 909.507,837.606C909.346,837.391 909.265,837.118 909.265,836.786C909.265,836.366 909.416,836.005 909.719,835.702C910.022,835.399 910.378,835.248 910.789,835.248C911.042,835.248 911.433,835.389 911.96,835.673L926.448,843.729L911.96,851.786C911.433,852.079 911.042,852.225 910.789,852.225C910.378,852.225 910.022,852.074 909.719,851.771C909.416,851.468 909.265,851.102 909.265,850.673C909.265,850.341 909.346,850.067 909.507,849.852C909.668,849.637 909.993,849.393 910.481,849.12L920.207,843.729Z" style="fill:rgb(96,246,106);fill-rule:nonzero;"/>
                                    <path d="M916.653,843.729L909.207,839.602L909.198,839.598C908.401,839.151 907.91,838.724 907.647,838.373C907.334,837.956 907.137,837.431 907.137,836.786C907.137,836 907.443,835.329 908.01,834.762L908.508,834.347L909.156,833.992L909.943,833.751L910.789,833.67L911.349,833.713L911.984,833.861C912.315,833.965 912.728,834.137 913.209,834.395L913.237,834.41L927.725,842.467C928.261,842.765 928.576,843.233 928.576,843.729C928.576,844.226 928.261,844.693 927.725,844.991L913.237,853.049C912.755,853.316 912.34,853.495 912.008,853.602L911.363,853.758L910.789,853.803L909.943,853.722L909.156,853.481L908.508,853.126L908.01,852.711C907.446,852.148 907.137,851.472 907.137,850.673C907.137,850.027 907.334,849.503 907.647,849.085C907.91,848.735 908.401,848.307 909.198,847.861L909.207,847.856L916.653,843.729ZM920.207,843.729L910.481,849.12C909.993,849.393 909.668,849.637 909.507,849.852C909.346,850.067 909.265,850.341 909.265,850.673C909.265,851.102 909.416,851.468 909.719,851.771C910.022,852.074 910.378,852.225 910.789,852.225C911.042,852.225 911.433,852.079 911.96,851.786L926.448,843.729L911.96,835.673C911.433,835.389 911.042,835.248 910.789,835.248C910.378,835.248 910.022,835.399 909.719,835.702C909.416,836.005 909.265,836.366 909.265,836.786C909.265,837.118 909.346,837.391 909.507,837.606C909.668,837.821 909.993,838.065 910.481,838.339L920.207,843.729Z" style="fill:rgb(24,191,50);"/>
                                </g>
                            </g>
                        </g>
                        <g id="Default-Column" serif:id="Default Column" transform="matrix(1.2001,0,0,2.49792,-925.383,-675.259)">
                            <text x="1418.8px" y="465.679px" style="font-family:'Consolas', monospace;font-size:18px;fill:rgb(185,213,145);">0</text>
                            <text x="1418.8px" y="489.679px" style="font-family:'Consolas', monospace;font-size:18px;fill:rgb(185,213,145);">0</text>
                            <text x="1418.8px" y="513.679px" style="font-family:'Consolas', monospace;font-size:18px;fill:rgb(185,213,145);">[]</text>
                            <g transform="matrix(18,0,0,18,1458.38,537.679)">
                            </g>
                            <text x="1418.8px" y="537.679px" style="font-family:'Consolas', monospace;font-size:18px;fill:rgb(185,213,145);">null</text>
                        </g>
                        <g id="Type-Column" serif:id="Type Column" transform="matrix(1.2001,0,0,2.49792,-1094.2,-675.259)">
                            <text x="1418.8px" y="465.679px" style="font-family:'Consolas', monospace;font-size:18px;fill:rgb(60,158,212);">int</text>
                            <text x="1418.8px" y="489.679px" style="font-family:'Consolas', monospace;font-size:18px;fill:rgb(60,158,212);">int</text>
                            <g transform="matrix(18,0,0,18,1438.59,513.679)">
                                <path d="M0.228,-0.49L0.231,-0.411C0.243,-0.425 0.255,-0.438 0.267,-0.448C0.279,-0.459 0.292,-0.469 0.306,-0.476C0.32,-0.484 0.335,-0.489 0.352,-0.493C0.368,-0.497 0.386,-0.499 0.406,-0.499C0.421,-0.499 0.437,-0.498 0.453,-0.497C0.469,-0.495 0.484,-0.493 0.497,-0.49L0.497,-0.407C0.481,-0.412 0.465,-0.416 0.447,-0.419C0.429,-0.422 0.413,-0.424 0.398,-0.424C0.381,-0.424 0.365,-0.422 0.352,-0.418C0.338,-0.415 0.325,-0.409 0.313,-0.401C0.301,-0.393 0.288,-0.383 0.276,-0.37C0.264,-0.358 0.251,-0.343 0.237,-0.325L0.237,-0.069L0.383,-0.069L0.383,-0L0.046,-0L0.046,-0.069L0.151,-0.069L0.151,-0.423L0.046,-0.423L0.046,-0.49L0.228,-0.49Z" style="fill:rgb(60,158,212);fill-rule:nonzero;"/>
                            </g>
                            <g transform="matrix(18,0,0,18,1438.59,513.679)">
                            </g>
                            <text x="1418.8px" y="513.679px" style="font-family:'Consolas', monospace;font-size:18px;fill:rgb(60,158,212);">Va<tspan x="1448.49px " y="513.679px ">l</tspan>ineKey</text>
                            <text x="1517.76px" y="513.679px" style="font-family:'ArialMT', 'Arial', sans-serif;font-size:15px;fill:rgb(123,123,123);">[0..*]</text>
                            <g transform="matrix(18,0,0,18,1438.59,537.679)">
                                <path d="M0.228,-0.49L0.231,-0.411C0.243,-0.425 0.255,-0.438 0.267,-0.448C0.279,-0.459 0.292,-0.469 0.306,-0.476C0.32,-0.484 0.335,-0.489 0.352,-0.493C0.368,-0.497 0.386,-0.499 0.406,-0.499C0.421,-0.499 0.437,-0.498 0.453,-0.497C0.469,-0.495 0.484,-0.493 0.497,-0.49L0.497,-0.407C0.481,-0.412 0.465,-0.416 0.447,-0.419C0.429,-0.422 0.413,-0.424 0.398,-0.424C0.381,-0.424 0.365,-0.422 0.352,-0.418C0.338,-0.415 0.325,-0.409 0.313,-0.401C0.301,-0.393 0.288,-0.383 0.276,-0.37C0.264,-0.358 0.251,-0.343 0.237,-0.325L0.237,-0.069L0.383,-0.069L0.383,-0L0.046,-0L0.046,-0.069L0.151,-0.069L0.151,-0.423L0.046,-0.423L0.046,-0.49L0.228,-0.49Z" style="fill:rgb(60,158,212);fill-rule:nonzero;"/>
                            </g>
                            <g transform="matrix(18,0,0,18,1438.59,537.679)">
                            </g>
                            <g transform="matrix(18,0,0,18,1468.28,537.679)">
                                <path d="M0.513,-0.611C0.469,-0.62 0.43,-0.625 0.398,-0.625C0.321,-0.625 0.283,-0.585 0.283,-0.505L0.283,-0.419L0.498,-0.419L0.498,-0.348L0.283,-0.348L0.283,-0.069L0.445,-0.069L0.445,-0L0.055,-0L0.055,-0.069L0.197,-0.069L0.197,-0.348L0.039,-0.348L0.039,-0.419L0.197,-0.419L0.197,-0.5C0.197,-0.631 0.265,-0.696 0.401,-0.696C0.435,-0.696 0.472,-0.692 0.513,-0.684L0.513,-0.611Z" style="fill:rgb(60,158,212);fill-rule:nonzero;"/>
                            </g>
                            <g transform="matrix(18,0,0,18,1468.28,537.679)">
                            </g>
                            <g transform="matrix(18,0,0,18,1478.18,537.679)">
                            </g>
                            <text x="1418.8px" y="537.679px" style="font-family:'Consolas', monospace;font-size:18px;fill:rgb(60,158,212);">Va<tspan x="1448.49px " y="537.679px ">D</tspan>e</text>
                        </g>
                        <g id="Name-Column" serif:id="Name Column" transform="matrix(1.2001,0,0,2.49792,-206.344,-618.058)">
                            <text x="591.738px" y="442.78px" style="font-family:'Consolas', monospace;font-size:18px;fill:rgb(133,188,233);">id</text>
                            <g transform="matrix(18,0,0,18,611.531,466.78)">
                                <path d="M0.228,-0.49L0.231,-0.411C0.243,-0.425 0.255,-0.438 0.267,-0.448C0.279,-0.459 0.292,-0.469 0.306,-0.476C0.32,-0.484 0.335,-0.489 0.352,-0.493C0.368,-0.497 0.386,-0.499 0.406,-0.499C0.421,-0.499 0.437,-0.498 0.453,-0.497C0.469,-0.495 0.484,-0.493 0.497,-0.49L0.497,-0.407C0.481,-0.412 0.465,-0.416 0.447,-0.419C0.429,-0.422 0.413,-0.424 0.398,-0.424C0.381,-0.424 0.365,-0.422 0.352,-0.418C0.338,-0.415 0.325,-0.409 0.313,-0.401C0.301,-0.393 0.288,-0.383 0.276,-0.37C0.264,-0.358 0.251,-0.343 0.237,-0.325L0.237,-0.069L0.383,-0.069L0.383,-0L0.046,-0L0.046,-0.069L0.151,-0.069L0.151,-0.423L0.046,-0.423L0.046,-0.49L0.228,-0.49Z" style="fill:rgb(133,188,233);fill-rule:nonzero;"/>
                            </g>
                            <g transform="matrix(18,0,0,18,611.531,466.78)">
                            </g>
                            <g transform="matrix(18,0,0,18,641.22,466.78)">
                                <path d="M0.513,-0.611C0.469,-0.62 0.43,-0.625 0.398,-0.625C0.321,-0.625 0.283,-0.585 0.283,-0.505L0.283,-0.419L0.498,-0.419L0.498,-0.348L0.283,-0.348L0.283,-0.069L0.445,-0.069L0.445,-0L0.055,-0L0.055,-0.069L0.197,-0.069L0.197,-0.348L0.039,-0.348L0.039,-0.419L0.197,-0.419L0.197,-0.5C0.197,-0.631 0.265,-0.696 0.401,-0.696C0.435,-0.696 0.472,-0.692 0.513,-0.684L0.513,-0.611Z" style="fill:rgb(133,188,233);fill-rule:nonzero;"/>
                            </g>
                            <g transform="matrix(18,0,0,18,641.22,466.78)">
                            </g>
                            <text x="591.738px" y="466.78px" style="font-family:'Consolas', monospace;font-size:18px;fill:rgb(133,188,233);">va<tspan x="621.427px 631.324px 651.117px " y="466.78px 466.78px 466.78px ">DeI</tspan>d</text>
                            <text x="591.738px" y="490.78px" style="font-family:'Consolas', monospace;font-size:18px;fill:rgb(133,188,233);">keys</text>
                            <g transform="matrix(18,0,0,18,611.531,514.78)">
                                <path d="M0.228,-0.49L0.231,-0.411C0.243,-0.425 0.255,-0.438 0.267,-0.448C0.279,-0.459 0.292,-0.469 0.306,-0.476C0.32,-0.484 0.335,-0.489 0.352,-0.493C0.368,-0.497 0.386,-0.499 0.406,-0.499C0.421,-0.499 0.437,-0.498 0.453,-0.497C0.469,-0.495 0.484,-0.493 0.497,-0.49L0.497,-0.407C0.481,-0.412 0.465,-0.416 0.447,-0.419C0.429,-0.422 0.413,-0.424 0.398,-0.424C0.381,-0.424 0.365,-0.422 0.352,-0.418C0.338,-0.415 0.325,-0.409 0.313,-0.401C0.301,-0.393 0.288,-0.383 0.276,-0.37C0.264,-0.358 0.251,-0.343 0.237,-0.325L0.237,-0.069L0.383,-0.069L0.383,-0L0.046,-0L0.046,-0.069L0.151,-0.069L0.151,-0.423L0.046,-0.423L0.046,-0.49L0.228,-0.49Z" style="fill:rgb(133,188,233);fill-rule:nonzero;"/>
                            </g>
                            <g transform="matrix(18,0,0,18,611.531,514.78)">
                            </g>
                            <g transform="matrix(18,0,0,18,641.22,514.78)">
                                <path d="M0.513,-0.611C0.469,-0.62 0.43,-0.625 0.398,-0.625C0.321,-0.625 0.283,-0.585 0.283,-0.505L0.283,-0.419L0.498,-0.419L0.498,-0.348L0.283,-0.348L0.283,-0.069L0.445,-0.069L0.445,-0L0.055,-0L0.055,-0.069L0.197,-0.069L0.197,-0.348L0.039,-0.348L0.039,-0.419L0.197,-0.419L0.197,-0.5C0.197,-0.631 0.265,-0.696 0.401,-0.696C0.435,-0.696 0.472,-0.692 0.513,-0.684L0.513,-0.611Z" style="fill:rgb(133,188,233);fill-rule:nonzero;"/>
                            </g>
                            <g transform="matrix(18,0,0,18,641.22,514.78)">
                            </g>
                            <g transform="matrix(18,0,0,18,651.117,514.78)">
                            </g>
                            <text x="591.738px" y="514.78px" style="font-family:'Consolas', monospace;font-size:18px;fill:rgb(133,188,233);">va<tspan x="621.427px " y="514.78px ">D</tspan>e</text>
                        </g>
                        <g id="PK-FK-Column" serif:id="PK FK Column" transform="matrix(1.2001,0,0,1.99553,-1300.75,-456.014)">
                            <g transform="matrix(0.409147,0,0,0.512151,1157.27,22.6364)">
                                <g id="PK">
                                    <path d="M804.167,852.56C803.142,853.605 802.436,854.843 802.05,856.274C801.665,857.704 801.696,859.123 802.146,860.529C802.233,860.803 802.336,861.076 802.453,861.349L790.105,873.683C789.597,874.191 789.287,874.787 789.174,875.471C789.062,876.154 789.145,876.818 789.423,877.463C789.702,878.107 790.178,878.625 790.852,879.015C791.516,879.406 792.233,879.533 793.005,879.396C793.776,879.26 794.431,878.918 794.968,878.371C794.968,878.371 795.095,878.246 795.349,877.997C795.603,877.748 795.886,877.47 796.198,877.162C796.511,876.855 796.76,876.613 796.945,876.437C797.248,876.125 797.351,875.783 797.253,875.412C797.185,875.139 797.172,874.833 797.216,874.496C797.26,874.159 797.39,873.864 797.605,873.61C797.81,873.366 798.015,873.215 798.22,873.156C798.425,873.097 798.625,873.058 798.82,873.039C798.977,873.019 799.135,872.99 799.296,872.951C799.458,872.912 799.611,872.814 799.758,872.658C799.904,872.512 800.007,872.35 800.066,872.175C800.124,871.999 800.139,871.74 800.109,871.398C800.1,871.252 800.183,871.047 800.358,870.783C800.534,870.519 800.759,870.339 801.032,870.241C801.501,870.095 801.96,870.085 802.409,870.212C802.79,870.319 803.112,870.241 803.376,869.977C803.523,869.821 803.803,869.538 804.218,869.128C804.633,868.718 805.105,868.246 805.632,867.714C806.159,867.182 806.672,866.667 807.17,866.169C808.176,866.579 809.223,866.784 810.312,866.784C811.401,866.784 812.458,866.579 813.483,866.169C814.509,865.759 815.427,865.139 816.237,864.308C817.165,863.381 817.829,862.319 818.23,861.122C818.63,859.926 818.769,858.705 818.647,857.46C818.525,856.215 818.139,855.041 817.49,853.937C816.84,852.834 815.935,851.906 814.773,851.154C813.649,850.431 812.448,850.021 811.169,849.924C809.89,849.826 808.637,850.004 807.412,850.458C806.186,850.912 805.105,851.613 804.167,852.56ZM812.224,853.937C812.605,853.547 813.066,853.351 813.608,853.351C814.15,853.351 814.611,853.547 814.992,853.937C815.363,854.318 815.549,854.782 815.549,855.329C815.549,855.876 815.363,856.34 814.992,856.721C814.611,857.101 814.152,857.292 813.615,857.292C813.078,857.292 812.614,857.101 812.224,856.721C811.853,856.34 811.667,855.876 811.667,855.329C811.667,854.782 811.853,854.318 812.224,853.937Z" style="fill:rgb(249,194,60);fill-rule:nonzero;"/>
                                    <path d="M796.884,882.013L795.98,882.685L793.723,883.448L792.463,883.564L791.171,883.456L789.916,883.113L788.78,882.57L786.96,881.12L785.645,879.094L785.069,876.992L785.114,874.803L785.841,872.611L787.196,870.773L797.827,860.154C797.546,858.514 797.629,856.864 798.077,855.202C798.651,853.073 799.704,851.233 801.23,849.678L801.242,849.666C802.611,848.282 804.192,847.263 805.982,846.6C807.776,845.935 809.61,845.677 811.482,845.82C813.44,845.97 815.281,846.588 816.999,847.694L817.008,847.699C818.736,848.817 820.071,850.209 821.036,851.85C821.996,853.481 822.562,855.218 822.743,857.059C822.922,858.884 822.719,860.674 822.132,862.428C821.533,864.217 820.549,865.811 819.166,867.2C817.944,868.447 816.556,869.372 815.012,869.99C813.492,870.597 811.926,870.899 810.312,870.899C809.669,870.899 809.035,870.851 808.412,870.755C807.93,871.24 807.497,871.673 807.111,872.055C806.75,872.411 806.505,872.656 806.378,872.792L806.286,872.887L805.241,873.695L803.906,874.233L803.594,874.263L803.416,874.637L802.718,875.506L801.479,876.477L801.277,876.555L801.191,877.129L800.633,878.364L799.901,879.301L799.776,879.425C799.604,879.587 799.374,879.811 799.085,880.095L798.23,880.935L797.904,881.255L797.815,881.321L794.968,882.486L793.639,879.228C794.142,879.047 794.585,878.761 794.968,878.371L795.349,877.997L796.198,877.162C796.511,876.855 796.76,876.613 796.945,876.437C797.248,876.125 797.351,875.783 797.253,875.412C797.185,875.139 797.172,874.833 797.216,874.496C797.26,874.159 797.39,873.864 797.605,873.61C797.81,873.366 798.015,873.215 798.22,873.156C798.425,873.097 798.625,873.058 798.82,873.039C798.977,873.019 799.135,872.99 799.296,872.951C799.458,872.912 799.611,872.814 799.758,872.658C799.904,872.512 800.007,872.35 800.066,872.175C800.124,871.999 800.139,871.74 800.109,871.398C800.1,871.252 800.183,871.047 800.358,870.783C800.534,870.519 800.759,870.339 801.032,870.241C801.501,870.095 801.96,870.085 802.409,870.212C802.79,870.319 803.112,870.241 803.376,869.977C803.523,869.821 803.803,869.538 804.218,869.128C804.633,868.718 805.105,868.246 805.632,867.714L807.17,866.169C808.176,866.579 809.223,866.784 810.312,866.784C811.401,866.784 812.458,866.579 813.483,866.169C814.509,865.759 815.427,865.139 816.237,864.308C817.165,863.381 817.829,862.319 818.23,861.122C818.63,859.926 818.769,858.705 818.647,857.46C818.525,856.215 818.139,855.041 817.49,853.937C816.84,852.834 815.935,851.906 814.773,851.154C813.649,850.431 812.448,850.021 811.169,849.924C809.89,849.826 808.637,850.004 807.412,850.458C806.186,850.912 805.105,851.613 804.167,852.56C803.142,853.605 802.436,854.843 802.05,856.274C801.665,857.704 801.696,859.123 802.146,860.529C802.233,860.803 802.336,861.076 802.453,861.349L790.105,873.683C789.597,874.191 789.287,874.787 789.174,875.471C789.062,876.154 789.145,876.818 789.423,877.463C789.702,878.107 790.178,878.625 790.852,879.015C790.871,879.027 790.89,879.038 790.909,879.048C790.96,879.358 791.048,879.665 791.173,879.963C791.814,881.491 793.31,882.486 794.968,882.486C795.642,882.486 796.299,882.321 796.884,882.013ZM797.815,881.321L797.853,881.305C797.564,881.589 797.237,881.827 796.884,882.013L797.815,881.321ZM811.945,854.295C812.022,854.168 812.115,854.049 812.224,853.937C812.605,853.547 813.066,853.351 813.608,853.351C814.15,853.351 814.611,853.547 814.992,853.937C815.363,854.318 815.549,854.782 815.549,855.329C815.549,855.876 815.363,856.34 814.992,856.721C814.816,856.896 814.624,857.032 814.415,857.126C814.309,856.745 814.151,856.378 813.943,856.024C813.611,855.46 813.136,854.997 812.542,854.612C812.347,854.487 812.148,854.381 811.945,854.295ZM801.723,874.242L801.291,874.172C801.434,874.212 801.578,874.237 801.723,874.242Z" style="fill:rgb(28,53,233);"/>
                                </g>
                            </g>
                            <g transform="matrix(1,0,0,1.25175,363.917,-113.046)">
                                <g id="FK">
                                    <path d="M1117.92,492.218L1117.92,479.333L1126.61,479.333L1126.61,480.854L1119.62,480.854L1119.62,484.844L1125.67,484.844L1125.67,486.364L1119.62,486.364L1119.62,492.218L1117.92,492.218Z" style="fill:rgb(28,53,233);fill-rule:nonzero;"/>
                                    <path d="M1117.02,492.218L1117.02,479.333C1117.02,478.836 1117.42,478.434 1117.92,478.434L1126.61,478.434C1127.11,478.434 1127.51,478.836 1127.51,479.333L1127.51,480.854C1127.51,481.351 1127.11,481.753 1126.61,481.753L1120.52,481.753L1120.52,483.944L1125.67,483.944C1126.17,483.944 1126.57,484.347 1126.57,484.844L1126.57,486.364C1126.57,486.861 1126.17,487.264 1125.67,487.264L1120.52,487.264L1120.52,492.218C1120.52,492.715 1120.12,493.118 1119.62,493.118L1117.92,493.118C1117.42,493.118 1117.02,492.715 1117.02,492.218ZM1117.92,492.218L1119.62,492.218L1119.62,486.364L1125.67,486.364L1125.67,484.844L1119.62,484.844L1119.62,480.854L1126.61,480.854L1126.61,479.333L1117.92,479.333L1117.92,492.218Z" style="fill:rgb(249,194,60);"/>
                                </g>
                            </g>
                        </g>
                        <g id="Header-Background" serif:id="Header Background" transform="matrix(0.861699,0,0,2.07425,171.059,-224.706)">
                            <rect x="347.803" y="268.787" width="532.459" height="44.59" style="fill:rgb(76,76,76);"/>
                            <g id="SCML-Tag" serif:id="SCML Tag" transform="matrix(1.39272,0,0,1.20425,-1217.88,-200.678)">
                                <text x="1378.32px" y="415.661px" style="font-family:'Consolas', monospace;font-size:24px;fill:rgb(146,230,26);">&lt;</text>
                                <g transform="matrix(24,0,0,24,1417.9,415.661)">
                                    <path d="M0.228,-0.49L0.231,-0.411C0.243,-0.425 0.255,-0.438 0.267,-0.448C0.279,-0.459 0.292,-0.469 0.306,-0.476C0.32,-0.484 0.335,-0.489 0.352,-0.493C0.368,-0.497 0.386,-0.499 0.406,-0.499C0.421,-0.499 0.437,-0.498 0.453,-0.497C0.469,-0.495 0.484,-0.493 0.497,-0.49L0.497,-0.407C0.481,-0.412 0.465,-0.416 0.447,-0.419C0.429,-0.422 0.413,-0.424 0.398,-0.424C0.381,-0.424 0.365,-0.422 0.352,-0.418C0.338,-0.415 0.325,-0.409 0.313,-0.401C0.301,-0.393 0.288,-0.383 0.276,-0.37C0.264,-0.358 0.251,-0.343 0.237,-0.325L0.237,-0.069L0.383,-0.069L0.383,-0L0.046,-0L0.046,-0.069L0.151,-0.069L0.151,-0.423L0.046,-0.423L0.046,-0.49L0.228,-0.49Z" style="fill:white;fill-rule:nonzero;"/>
                                </g>
                                <g transform="matrix(24,0,0,24,1417.9,415.661)">
                                </g>
                                <text x="1391.51px" y="415.661px" style="font-family:'Consolas', monospace;font-size:24px;fill:white;">va<tspan x="1431.1px " y="415.661px ">l</tspan>ine</text>
                                <g transform="matrix(24,0,0,24,1497.08,415.661)">
                                </g>
                                <text x="1483.88px" y="415.661px" style="font-family:'Consolas', monospace;font-size:24px;fill:rgb(146,230,26);">&gt;</text>
                            </g>
                            <g id="Class-Name" serif:id="Class Name" transform="matrix(1.39272,0,0,1.20425,-1396.83,-200.678)">
                                <g transform="matrix(24,0,0,24,1353.25,415.661)">
                                </g>
                                <text x="1260.88px" y="415.661px" style="font-family:'Consolas-Bold', 'Consolas', monospace;font-weight:700;font-size:24px;fill:white;">Varline</text>
                            </g>
                        </g>
                    </g>
                </g>
                <g transform="matrix(0.926154,0,0,0.72,203.378,254.547)">
                    <rect x="1354.61" y="794.545" width="55.867" height="15.33" style="fill:none;"/>
                    <clipPath id="_clip2">
                        <rect x="1354.61" y="794.545" width="55.867" height="15.33"/>
                    </clipPath>
                    <g clip-path="url(#_clip2)">
                        <g transform="matrix(0.572577,0,0,0.656825,-108.009,-308.99)">
                            <g transform="matrix(15,0,0,15,2642.19,1696.33)">
                            </g>
                            <text x="2562.99px" y="1696.34px" style="font-family:'ArialMT', 'Arial', sans-serif;font-size:15px;fill:rgb(128,128,128);">Class name</text>
                        </g>
                        <g transform="matrix(0.530295,0,0,0.472914,-2.55795e-13,0)">
                            <rect x="2554.45" y="1710.9" width="105.35" height="1.621" style="fill:rgb(96,192,246);"/>
                        </g>
                    </g>
                </g>
                <g transform="matrix(0.870178,0,0,1.95322,286.303,-633.328)">
                    <rect x="1354.61" y="794.545" width="55.867" height="15.33" style="fill:none;"/>
                    <clipPath id="_clip3">
                        <rect x="1354.61" y="794.545" width="55.867" height="15.33"/>
                    </clipPath>
                    <g clip-path="url(#_clip3)">
                        <g transform="matrix(0.609409,0,0,0.24212,-202.094,387.758)">
                            <g transform="matrix(15,0,0,15,2645.31,1696)">
                            </g>
                            <text x="2554.45px" y="1696px" style="font-family:'ArialMT', 'Arial', sans-serif;font-size:15px;fill:rgb(128,128,128);">Data Member</text>
                        </g>
                        <g transform="matrix(0.530295,0,0,0.174327,0,496.29)">
                            <rect x="2554.45" y="1710.9" width="105.35" height="1.621" style="fill:rgb(96,192,246);"/>
                        </g>
                    </g>
                </g>
                <g transform="matrix(0.503409,0,0,0.649221,906.761,402.758)">
                    <rect x="1354.61" y="794.545" width="55.867" height="15.33" style="fill:none;"/>
                    <clipPath id="_clip4">
                        <rect x="1354.61" y="794.545" width="55.867" height="15.33"/>
                    </clipPath>
                    <g clip-path="url(#_clip4)">
                        <g transform="matrix(1.05341,0,0,0.728433,-1336.26,-429.298)">
                            <g transform="matrix(15,0,0,15,2604.73,1696.33)">
                            </g>
                            <text x="2557.2px" y="1696.34px" style="font-family:'ArialMT', 'Arial', sans-serif;font-size:15px;fill:rgb(128,128,128);">Default</text>
                        </g>
                        <g transform="matrix(0.530295,0,0,0.524472,4.54747e-13,-102.773)">
                            <rect x="2554.45" y="1710.9" width="105.35" height="1.621" style="fill:rgb(96,192,246);"/>
                        </g>
                    </g>
                </g>
                <g transform="matrix(0.451717,0,0,0.548101,1023.26,483.102)">
                    <rect x="1354.61" y="794.545" width="55.867" height="15.33" style="fill:none;"/>
                    <g transform="matrix(0.530295,0,0,0.621233,0,-268.321)">
                        <rect x="2554.45" y="1710.9" width="105.35" height="1.621" style="fill:rgb(96,192,246);"/>
                    </g>
                </g>
                <g transform="matrix(0.222794,0,0,0.335,1317.83,652.421)">
                    <rect x="1354.61" y="794.545" width="55.867" height="15.33" style="fill:none;"/>
                    <clipPath id="_clip5">
                        <rect x="1354.61" y="794.545" width="55.867" height="15.33"/>
                    </clipPath>
                    <g clip-path="url(#_clip5)">
                        <g transform="matrix(0.530295,0,0,1.01641,-9.09495e-13,-944.433)">
                            <rect x="2554.45" y="1710.9" width="105.35" height="1.621" style="fill:rgb(96,192,246);"/>
                        </g>
                    </g>
                </g>
                <g transform="matrix(1.18279,0,0,0.649221,-82.4374,402.758)">
                    <rect x="1354.61" y="794.545" width="55.867" height="15.33" style="fill:none;"/>
                    <g transform="matrix(0.448341,0,0,0.728433,209.347,-429.298)">
                        <g transform="matrix(15,0,0,15,2633.01,1696.33)">
                        </g>
                        <text x="2600.49px" y="1696.34px" style="font-family:'ArialMT', 'Arial', sans-serif;font-size:15px;fill:rgb(128,128,128);">T<tspan x="2608.83px 2616.33px " y="1696.34px 1696.34px ">yp</tspan>e</text>
                    </g>
                    <g transform="matrix(0.530295,0,0,0.524472,0,-102.773)">
                        <rect x="2554.45" y="1710.9" width="105.35" height="1.621" style="fill:rgb(96,192,246);"/>
                    </g>
                </g>
                <g transform="matrix(0.946917,0,0,0.536581,113.826,440.256)">
                    <rect x="1354.61" y="794.545" width="55.867" height="15.33" style="fill:none;"/>
                    <clipPath id="_clip6">
                        <rect x="1354.61" y="794.545" width="55.867" height="15.33"/>
                    </clipPath>
                    <g clip-path="url(#_clip6)">
                        <g transform="matrix(0.560022,0,0,0.881347,-78.1691,-686.209)">
                            <g transform="matrix(15,0,0,15,2647.16,1694.17)">
                            </g>
                            <text x="2565.48px" y="1694.17px" style="font-family:'ArialMT', 'Arial', sans-serif;font-size:15px;fill:rgb(128,128,128);">Primary Key</text>
                        </g>
                        <g transform="matrix(-4.42346e-17,0.150169,-0.403216,-8.4202e-17,2100.34,410.945)">
                            <rect x="2554.45" y="1710.9" width="105.35" height="1.621" style="fill:rgb(96,192,246);"/>
                        </g>
                    </g>
                </g>
                <g transform="matrix(0.946917,0,0,0.536581,113.826,452.225)">
                    <rect x="1354.61" y="794.545" width="55.867" height="15.33" style="fill:none;"/>
                    <clipPath id="_clip7">
                        <rect x="1354.61" y="794.545" width="55.867" height="15.33"/>
                    </clipPath>
                    <g clip-path="url(#_clip7)">
                        <g transform="matrix(0.560022,0,0,0.881347,-78.1691,-686.209)">
                            <g transform="matrix(15,0,0,15,2646.76,1694.17)">
                            </g>
                            <text x="2565.88px" y="1694.17px" style="font-family:'ArialMT', 'Arial', sans-serif;font-size:15px;fill:rgb(128,128,128);">Foreign Key</text>
                        </g>
                        <g transform="matrix(-4.42346e-17,0.150169,-0.403216,-8.4202e-17,2100.34,410.945)">
                            <rect x="2554.45" y="1710.9" width="105.35" height="1.621" style="fill:rgb(96,192,246);"/>
                        </g>
                    </g>
                </g>
                <g transform="matrix(0.936,0,0,0.72,328.555,254.547)">
                    <rect x="1354.61" y="794.545" width="55.867" height="15.33" style="fill:none;"/>
                    <g id="Tag-name" serif:id="Tag name" transform="matrix(0.566554,0,0,0.656825,-92.623,-308.99)">
                        <g transform="matrix(15,0,0,15,2635.52,1696.33)">
                        </g>
                        <text x="2569.65px" y="1696.34px" style="font-family:'ArialMT', 'Arial', sans-serif;font-size:15px;fill:rgb(128,128,128);">T<tspan x="2577.15px 2585.49px " y="1696.34px 1696.34px ">ag</tspan> name</text>
                    </g>
                    <g transform="matrix(0.530295,0,0,0.472914,0,0)">
                        <rect x="2554.45" y="1710.9" width="105.35" height="1.621" style="fill:rgb(96,192,246);"/>
                    </g>
                </g>
                <g transform="matrix(0.530295,0,0,0.472914,0.602371,-3.61046)">
                    <text x="2993.31px" y="1999.59px" style="font-family:'ArialMT', 'Arial', sans-serif;font-size:15px;fill:rgb(128,128,128);">Attribute</text>
                    <text x="3024.99px" y="2015.08px" style="font-family:'ArialMT', 'Arial', sans-serif;font-size:15px;fill:rgb(128,128,128);">T<tspan x="3032.49px 3040.83px " y="2015.08px 2015.08px ">ag</tspan></text>
                    <g transform="matrix(15,0,0,15,3049.17,2030.57)">
                    </g>
                    <text x="3000.82px" y="2030.57px" style="font-family:'ArialMT', 'Arial', sans-serif;font-size:15px;fill:rgb(128,128,128);">Neither</text>
                </g>
                <g transform="matrix(0.530295,0,0,0.472914,70.1667,-3.03258)">
                    <text x="2990.54px" y="1999.59px" style="font-family:'ArialMT', 'Arial', sans-serif;font-size:15px;fill:rgb(128,128,128);">Attribute</text>
                    <text x="2990.54px" y="2015.08px" style="font-family:'ArialMT', 'Arial', sans-serif;font-size:15px;fill:rgb(128,128,128);">or <tspan x="3007.77px 3015.27px 3023.62px " y="2015.08px 2015.08px 2015.08px ">Tag</tspan></text>
                    <g transform="matrix(15,0,0,15,3030.55,2030.57)">
                    </g>
                    <text x="2990.54px" y="2030.57px" style="font-family:'ArialMT', 'Arial', sans-serif;font-size:15px;fill:rgb(128,128,128);">Name</text>
                </g>
                <g transform="matrix(0.530295,0,0,0.472914,0,0)">
                    <path d="M3065.94,1943.58L3065.94,2003.3L3054.2,2003.3" style="fill:none;stroke:rgb(96,192,246);stroke-width:1.12px;"/>
                </g>
                <g transform="matrix(-0.530295,0,0,0.472914,3273.63,0)">
                    <path d="M3065.94,1943.58L3065.94,2003.3L3054.2,2003.3" style="fill:none;stroke:rgb(96,192,246);stroke-width:1.12px;"/>
                </g>
            </g>
        </g>
    </g>
</svg>
