<?xml version="1.0" encoding="UTF-8" standalone="no"?>
<!DOCTYPE svg PUBLIC "-//W3C//DTD SVG 1.1//EN" "http://www.w3.org/Graphics/SVG/1.1/DTD/svg11.dtd">
<svg width="394px" height="237px" version="1.1" xmlns="http://www.w3.org/2000/svg" xmlns:xlink="http://www.w3.org/1999/xlink" xml:space="preserve" xmlns:serif="http://www.serif.com/" style="fill-rule:evenodd;clip-rule:evenodd;stroke-linejoin:round;stroke-miterlimit:2;">
    <g transform="matrix(1,0,0,1,-1076,-1688)">
        <g transform="matrix(1.88574,0,0,2.11455,0,0)">
            <g id="Ref-Node" serif:id="Ref Node" transform="matrix(0.436185,0,0,0.285912,369.616,709.02)">
                <rect x="461.325" y="313.788" width="477.583" height="389.292" style="fill:none;"/>
                <clipPath id="_clip1">
                    <rect x="461.325" y="313.788" width="477.583" height="389.292"/>
                </clipPath>
                <g clip-path="url(#_clip1)">
                    <g transform="matrix(0.860484,0,0,0.98663,169.719,68.7806)">
                        <path d="M893.902,254.534L893.902,584.679C893.902,588.105 891.558,590.885 888.672,590.885L344.115,590.885C341.229,590.885 338.885,588.105 338.885,584.679L338.885,254.534C338.885,251.109 341.229,248.328 344.115,248.328L888.672,248.328C891.558,248.328 893.902,251.109 893.902,254.534Z" style="fill:rgb(30,30,30);"/>
                        <path d="M893.902,254.534L893.902,584.679C893.902,588.105 891.558,590.885 888.672,590.885L344.115,590.885C341.229,590.885 338.885,588.105 338.885,584.679L338.885,254.534C338.885,251.109 341.229,248.328 344.115,248.328L888.672,248.328C891.558,248.328 893.902,251.109 893.902,254.534ZM890.002,254.534C890.002,253.662 889.406,252.955 888.672,252.955L344.115,252.955C343.381,252.955 342.784,253.662 342.784,254.534L342.784,584.679C342.784,585.551 343.381,586.259 344.115,586.259L888.672,586.259C889.406,586.259 890.002,585.551 890.002,584.679L890.002,254.534Z" style="fill:rgb(128,128,128);"/>
                    </g>
                    <g id="Tag-Column" serif:id="Tag Column" transform="matrix(1.21576,0,0,1.65405,106.595,-271.828)">
                        <text x="591.738px" y="442.78px" style="font-family:'Consolas', monospace;font-size:18px;fill:rgb(189,142,200);">id</text>
                        <g transform="matrix(18,0,0,18,611.531,466.78)">
                            <path d="M0.228,-0.49L0.231,-0.411C0.243,-0.425 0.255,-0.438 0.267,-0.448C0.279,-0.459 0.292,-0.469 0.306,-0.476C0.32,-0.484 0.335,-0.489 0.352,-0.493C0.368,-0.497 0.386,-0.499 0.406,-0.499C0.421,-0.499 0.437,-0.498 0.453,-0.497C0.469,-0.495 0.484,-0.493 0.497,-0.49L0.497,-0.407C0.481,-0.412 0.465,-0.416 0.447,-0.419C0.429,-0.422 0.413,-0.424 0.398,-0.424C0.381,-0.424 0.365,-0.422 0.352,-0.418C0.338,-0.415 0.325,-0.409 0.313,-0.401C0.301,-0.393 0.288,-0.383 0.276,-0.37C0.264,-0.358 0.251,-0.343 0.237,-0.325L0.237,-0.069L0.383,-0.069L0.383,-0L0.046,-0L0.046,-0.069L0.151,-0.069L0.151,-0.423L0.046,-0.423L0.046,-0.49L0.228,-0.49Z" style="fill:rgb(189,142,200);fill-rule:nonzero;"/>
                        </g>
                        <g transform="matrix(18,0,0,18,611.531,466.78)">
                        </g>
                        <text x="591.738px" y="466.78px" style="font-family:'Consolas', monospace;font-size:18px;fill:rgb(189,142,200);">pa<tspan x="621.427px " y="466.78px ">e</tspan>nt</text>
                        <text x="591.738px" y="490.78px" style="font-family:'Consolas', monospace;font-size:18px;fill:rgb(189,142,200);">timeline</text>
                        <text x="591.738px" y="514.78px" style="font-family:'Consolas', monospace;font-size:18px;fill:rgb(189,142,200);">key</text>
                        <g transform="matrix(18,0,0,18,661.013,538.78)">
                        </g>
                        <text x="591.738px" y="538.78px" style="font-family:'Consolas', monospace;font-size:18px;fill:rgb(189,142,200);">z_index</text>
                    </g>
                    <g id="Attrib-or-Elem-Column" serif:id="Attrib or Elem Column" transform="matrix(1.45999,0,0,1.38165,-1359.78,-192.096)">
                        <g transform="matrix(0.466606,0,0,0.670818,982.683,131.985)">
                            <g id="At">
                                <path d="M1091.25,498.511C1091.16,500.64 1090.54,502.476 1089.38,504.019C1088.22,505.562 1086.48,506.333 1084.16,506.333C1083.4,506.333 1082.74,506.118 1082.19,505.688C1081.63,505.259 1081.23,504.658 1081,503.887C1080.57,504.688 1080.04,505.288 1079.39,505.688C1078.76,506.089 1078.01,506.289 1077.15,506.289C1075.77,506.289 1074.71,505.708 1073.97,504.546C1073.24,503.384 1072.97,501.846 1073.16,499.932C1073.41,497.451 1074.11,495.464 1075.27,493.97C1076.42,492.476 1077.83,491.729 1079.48,491.729C1080.61,491.729 1081.52,491.855 1082.21,492.109C1082.9,492.363 1083.65,492.754 1084.47,493.281L1084.43,493.34L1084.5,493.34L1083.75,501.733C1083.68,502.661 1083.75,503.296 1083.96,503.638C1084.16,503.98 1084.44,504.15 1084.79,504.15C1085.92,504.15 1086.82,503.618 1087.5,502.554C1088.17,501.489 1088.55,500.142 1088.63,498.511C1088.79,495.063 1088.12,492.373 1086.63,490.439C1085.14,488.506 1082.84,487.539 1079.72,487.539C1076.77,487.539 1074.4,488.579 1072.63,490.659C1070.87,492.739 1069.91,495.527 1069.76,499.023C1069.6,502.49 1070.31,505.225 1071.9,507.227C1073.5,509.229 1075.79,510.23 1078.77,510.23C1079.6,510.23 1080.46,510.132 1081.34,509.937C1082.23,509.741 1082.99,509.497 1083.62,509.204L1084.18,511.357C1083.52,511.768 1082.69,512.087 1081.68,512.317C1080.67,512.546 1079.68,512.661 1078.71,512.661C1074.85,512.661 1071.87,511.445 1069.77,509.014C1067.68,506.582 1066.71,503.252 1066.88,499.023C1067.05,494.854 1068.3,491.516 1070.62,489.011C1072.94,486.506 1076,485.254 1079.78,485.254C1083.56,485.254 1086.46,486.438 1088.47,488.806C1090.48,491.174 1091.41,494.409 1091.25,498.511ZM1076.46,499.932C1076.36,501.172 1076.45,502.112 1076.73,502.751C1077.01,503.391 1077.46,503.711 1078.08,503.711C1078.63,503.711 1079.13,503.584 1079.57,503.33C1080.02,503.076 1080.41,502.607 1080.77,501.924L1080.77,501.829C1080.77,501.804 1080.77,501.772 1080.78,501.733L1081.42,494.468C1081.2,494.399 1080.97,494.346 1080.75,494.307C1080.53,494.268 1080.29,494.248 1080.05,494.248C1078.96,494.248 1078.14,494.719 1077.57,495.662C1077.01,496.604 1076.63,498.027 1076.46,499.932Z" style="fill:rgb(0,211,255);fill-rule:nonzero;"/>
                                <path d="M1086.69,509.077L1087.09,510.605C1087.41,511.873 1086.88,513.208 1085.77,513.903C1084.87,514.468 1083.74,514.931 1082.35,515.247C1081.11,515.528 1079.9,515.666 1078.71,515.666C1073.85,515.666 1070.13,514.037 1067.5,510.975C1064.96,508.029 1063.67,504.028 1063.88,498.906L1063.88,498.897C1064.09,493.918 1065.65,489.96 1068.42,486.97C1071.3,483.856 1075.07,482.249 1079.78,482.249C1084.58,482.249 1088.21,483.856 1090.76,486.861C1093.21,489.74 1094.45,493.639 1094.26,498.625L1094.26,498.635C1094.14,501.418 1093.3,503.809 1091.78,505.826C1090.53,507.49 1088.84,508.603 1086.69,509.077ZM1084.31,495.983L1084.29,496.119L1084.39,496.219L1084.31,495.983ZM1082.04,491.518L1082.3,491.593C1082.36,491.612 1082.42,491.632 1082.48,491.654C1082.31,491.43 1082.17,491.346 1082.07,491.48L1082.04,491.518ZM1084.54,496.285L1084.5,496.286L1084.5,496.289L1084.53,496.291L1084.54,496.285ZM1084.53,496.291L1084.5,496.307L1084.5,496.345L1084.56,496.292L1084.53,496.291ZM1084.56,496.292C1084.73,496.299 1085.12,496.29 1085.59,496.102L1085.59,496.072C1085.27,496.2 1084.92,496.273 1084.57,496.285L1084.56,496.292ZM1084.57,496.285L1084.6,496.259L1084.54,496.285L1084.57,496.285ZM1091.25,498.511C1091.41,494.409 1090.48,491.174 1088.47,488.806C1086.46,486.438 1083.56,485.254 1079.78,485.254C1076,485.254 1072.94,486.506 1070.62,489.011C1068.3,491.516 1067.05,494.854 1066.88,499.023C1066.71,503.252 1067.68,506.582 1069.77,509.014C1071.87,511.445 1074.85,512.661 1078.71,512.661C1079.68,512.661 1080.67,512.546 1081.68,512.317C1082.69,512.087 1083.52,511.768 1084.18,511.357L1083.62,509.204C1082.99,509.497 1082.23,509.741 1081.34,509.937C1080.46,510.132 1079.6,510.23 1078.77,510.23C1075.79,510.23 1073.5,509.229 1071.9,507.227C1070.31,505.225 1069.6,502.49 1069.76,499.023C1069.91,495.527 1070.87,492.739 1072.63,490.659C1074.4,488.579 1076.77,487.539 1079.72,487.539C1082.84,487.539 1085.14,488.506 1086.63,490.439C1088.12,492.373 1088.79,495.063 1088.63,498.511C1088.55,500.142 1088.17,501.489 1087.5,502.554C1086.82,503.618 1085.92,504.15 1084.79,504.15C1084.44,504.15 1084.16,503.98 1083.96,503.638C1083.75,503.296 1083.68,502.661 1083.75,501.733L1084.5,493.34L1084.43,493.34L1084.47,493.281C1083.65,492.754 1082.9,492.363 1082.21,492.109C1081.52,491.855 1080.61,491.729 1079.48,491.729C1077.83,491.729 1076.42,492.476 1075.27,493.97C1074.11,495.464 1073.41,497.451 1073.16,499.932C1072.97,501.846 1073.24,503.384 1073.97,504.546C1074.71,505.708 1075.77,506.289 1077.15,506.289C1078.01,506.289 1078.76,506.089 1079.39,505.688C1080.04,505.288 1080.57,504.688 1081,503.887C1081.23,504.658 1081.63,505.259 1082.19,505.688C1082.74,506.118 1083.4,506.333 1084.16,506.333C1086.48,506.333 1088.22,505.562 1089.38,504.019C1090.54,502.476 1091.16,500.64 1091.25,498.511ZM1076.46,499.932C1076.63,498.027 1077.01,496.604 1077.57,495.662C1078.14,494.719 1078.96,494.248 1080.05,494.248C1080.29,494.248 1080.53,494.268 1080.75,494.307C1080.97,494.346 1081.2,494.399 1081.42,494.468L1080.78,501.733C1080.77,501.772 1080.77,501.804 1080.77,501.829L1080.77,501.924C1080.41,502.607 1080.02,503.076 1079.57,503.33C1079.13,503.584 1078.63,503.711 1078.08,503.711C1077.46,503.711 1077.01,503.391 1076.73,502.751C1076.45,502.112 1076.36,501.172 1076.46,499.932Z" style="fill:rgb(28,53,233);"/>
                            </g>
                        </g>
                        <g transform="matrix(0.466606,0,0,0.670818,982.683,160.477)">
                            <g id="At1" serif:id="At">
                                <path d="M1091.25,498.511C1091.16,500.64 1090.54,502.476 1089.38,504.019C1088.22,505.562 1086.48,506.333 1084.16,506.333C1083.4,506.333 1082.74,506.118 1082.19,505.688C1081.63,505.259 1081.23,504.658 1081,503.887C1080.57,504.688 1080.04,505.288 1079.39,505.688C1078.76,506.089 1078.01,506.289 1077.15,506.289C1075.77,506.289 1074.71,505.708 1073.97,504.546C1073.24,503.384 1072.97,501.846 1073.16,499.932C1073.41,497.451 1074.11,495.464 1075.27,493.97C1076.42,492.476 1077.83,491.729 1079.48,491.729C1080.61,491.729 1081.52,491.855 1082.21,492.109C1082.9,492.363 1083.65,492.754 1084.47,493.281L1084.43,493.34L1084.5,493.34L1083.75,501.733C1083.68,502.661 1083.75,503.296 1083.96,503.638C1084.16,503.98 1084.44,504.15 1084.79,504.15C1085.92,504.15 1086.82,503.618 1087.5,502.554C1088.17,501.489 1088.55,500.142 1088.63,498.511C1088.79,495.063 1088.12,492.373 1086.63,490.439C1085.14,488.506 1082.84,487.539 1079.72,487.539C1076.77,487.539 1074.4,488.579 1072.63,490.659C1070.87,492.739 1069.91,495.527 1069.76,499.023C1069.6,502.49 1070.31,505.225 1071.9,507.227C1073.5,509.229 1075.79,510.23 1078.77,510.23C1079.6,510.23 1080.46,510.132 1081.34,509.937C1082.23,509.741 1082.99,509.497 1083.62,509.204L1084.18,511.357C1083.52,511.768 1082.69,512.087 1081.68,512.317C1080.67,512.546 1079.68,512.661 1078.71,512.661C1074.85,512.661 1071.87,511.445 1069.77,509.014C1067.68,506.582 1066.71,503.252 1066.88,499.023C1067.05,494.854 1068.3,491.516 1070.62,489.011C1072.94,486.506 1076,485.254 1079.78,485.254C1083.56,485.254 1086.46,486.438 1088.47,488.806C1090.48,491.174 1091.41,494.409 1091.25,498.511ZM1076.46,499.932C1076.36,501.172 1076.45,502.112 1076.73,502.751C1077.01,503.391 1077.46,503.711 1078.08,503.711C1078.63,503.711 1079.13,503.584 1079.57,503.33C1080.02,503.076 1080.41,502.607 1080.77,501.924L1080.77,501.829C1080.77,501.804 1080.77,501.772 1080.78,501.733L1081.42,494.468C1081.2,494.399 1080.97,494.346 1080.75,494.307C1080.53,494.268 1080.29,494.248 1080.05,494.248C1078.96,494.248 1078.14,494.719 1077.57,495.662C1077.01,496.604 1076.63,498.027 1076.46,499.932Z" style="fill:rgb(0,211,255);fill-rule:nonzero;"/>
                                <path d="M1086.69,509.077L1087.09,510.605C1087.41,511.873 1086.88,513.208 1085.77,513.903C1084.87,514.468 1083.74,514.931 1082.35,515.247C1081.11,515.528 1079.9,515.666 1078.71,515.666C1073.85,515.666 1070.13,514.037 1067.5,510.975C1064.96,508.029 1063.67,504.028 1063.88,498.906L1063.88,498.897C1064.09,493.918 1065.65,489.96 1068.42,486.97C1071.3,483.856 1075.07,482.249 1079.78,482.249C1084.58,482.249 1088.21,483.856 1090.76,486.861C1093.21,489.74 1094.45,493.639 1094.26,498.625L1094.26,498.635C1094.14,501.418 1093.3,503.809 1091.78,505.826C1090.53,507.49 1088.84,508.603 1086.69,509.077ZM1084.31,495.983L1084.29,496.119L1084.39,496.219L1084.31,495.983ZM1084.54,496.285L1084.5,496.286L1084.5,496.289L1084.53,496.291L1084.54,496.285ZM1084.53,496.291L1084.5,496.307L1084.5,496.345L1084.56,496.292L1084.53,496.291ZM1084.56,496.292C1084.73,496.299 1085.12,496.29 1085.59,496.102L1085.59,496.072C1085.27,496.2 1084.92,496.273 1084.57,496.285L1084.56,496.292ZM1084.57,496.285L1084.6,496.259L1084.54,496.285L1084.57,496.285ZM1082.04,491.518L1082.3,491.593C1082.36,491.612 1082.42,491.632 1082.48,491.654C1082.31,491.43 1082.17,491.346 1082.07,491.48L1082.04,491.518ZM1091.25,498.511C1091.41,494.409 1090.48,491.174 1088.47,488.806C1086.46,486.438 1083.56,485.254 1079.78,485.254C1076,485.254 1072.94,486.506 1070.62,489.011C1068.3,491.516 1067.05,494.854 1066.88,499.023C1066.71,503.252 1067.68,506.582 1069.77,509.014C1071.87,511.445 1074.85,512.661 1078.71,512.661C1079.68,512.661 1080.67,512.546 1081.68,512.317C1082.69,512.087 1083.52,511.768 1084.18,511.357L1083.62,509.204C1082.99,509.497 1082.23,509.741 1081.34,509.937C1080.46,510.132 1079.6,510.23 1078.77,510.23C1075.79,510.23 1073.5,509.229 1071.9,507.227C1070.31,505.225 1069.6,502.49 1069.76,499.023C1069.91,495.527 1070.87,492.739 1072.63,490.659C1074.4,488.579 1076.77,487.539 1079.72,487.539C1082.84,487.539 1085.14,488.506 1086.63,490.439C1088.12,492.373 1088.79,495.063 1088.63,498.511C1088.55,500.142 1088.17,501.489 1087.5,502.554C1086.82,503.618 1085.92,504.15 1084.79,504.15C1084.44,504.15 1084.16,503.98 1083.96,503.638C1083.75,503.296 1083.68,502.661 1083.75,501.733L1084.5,493.34L1084.43,493.34L1084.47,493.281C1083.65,492.754 1082.9,492.363 1082.21,492.109C1081.52,491.855 1080.61,491.729 1079.48,491.729C1077.83,491.729 1076.42,492.476 1075.27,493.97C1074.11,495.464 1073.41,497.451 1073.16,499.932C1072.97,501.846 1073.24,503.384 1073.97,504.546C1074.71,505.708 1075.77,506.289 1077.15,506.289C1078.01,506.289 1078.76,506.089 1079.39,505.688C1080.04,505.288 1080.57,504.688 1081,503.887C1081.23,504.658 1081.63,505.259 1082.19,505.688C1082.74,506.118 1083.4,506.333 1084.16,506.333C1086.48,506.333 1088.22,505.562 1089.38,504.019C1090.54,502.476 1091.16,500.64 1091.25,498.511ZM1076.46,499.932C1076.63,498.027 1077.01,496.604 1077.57,495.662C1078.14,494.719 1078.96,494.248 1080.05,494.248C1080.29,494.248 1080.53,494.268 1080.75,494.307C1080.97,494.346 1081.2,494.399 1081.42,494.468L1080.78,501.733C1080.77,501.772 1080.77,501.804 1080.77,501.829L1080.77,501.924C1080.41,502.607 1080.02,503.076 1079.57,503.33C1079.13,503.584 1078.63,503.711 1078.08,503.711C1077.46,503.711 1077.01,503.391 1076.73,502.751C1076.45,502.112 1076.36,501.172 1076.46,499.932Z" style="fill:rgb(28,53,233);"/>
                            </g>
                        </g>
                        <g transform="matrix(0.466606,0,0,0.670818,982.683,188.97)">
                            <g id="At2" serif:id="At">
                                <path d="M1091.25,498.511C1091.16,500.64 1090.54,502.476 1089.38,504.019C1088.22,505.562 1086.48,506.333 1084.16,506.333C1083.4,506.333 1082.74,506.118 1082.19,505.688C1081.63,505.259 1081.23,504.658 1081,503.887C1080.57,504.688 1080.04,505.288 1079.39,505.688C1078.76,506.089 1078.01,506.289 1077.15,506.289C1075.77,506.289 1074.71,505.708 1073.97,504.546C1073.24,503.384 1072.97,501.846 1073.16,499.932C1073.41,497.451 1074.11,495.464 1075.27,493.97C1076.42,492.476 1077.83,491.729 1079.48,491.729C1080.61,491.729 1081.52,491.855 1082.21,492.109C1082.9,492.363 1083.65,492.754 1084.47,493.281L1084.43,493.34L1084.5,493.34L1083.75,501.733C1083.68,502.661 1083.75,503.296 1083.96,503.638C1084.16,503.98 1084.44,504.15 1084.79,504.15C1085.92,504.15 1086.82,503.618 1087.5,502.554C1088.17,501.489 1088.55,500.142 1088.63,498.511C1088.79,495.063 1088.12,492.373 1086.63,490.439C1085.14,488.506 1082.84,487.539 1079.72,487.539C1076.77,487.539 1074.4,488.579 1072.63,490.659C1070.87,492.739 1069.91,495.527 1069.76,499.023C1069.6,502.49 1070.31,505.225 1071.9,507.227C1073.5,509.229 1075.79,510.23 1078.77,510.23C1079.6,510.23 1080.46,510.132 1081.34,509.937C1082.23,509.741 1082.99,509.497 1083.62,509.204L1084.18,511.357C1083.52,511.768 1082.69,512.087 1081.68,512.317C1080.67,512.546 1079.68,512.661 1078.71,512.661C1074.85,512.661 1071.87,511.445 1069.77,509.014C1067.68,506.582 1066.71,503.252 1066.88,499.023C1067.05,494.854 1068.3,491.516 1070.62,489.011C1072.94,486.506 1076,485.254 1079.78,485.254C1083.56,485.254 1086.46,486.438 1088.47,488.806C1090.48,491.174 1091.41,494.409 1091.25,498.511ZM1076.46,499.932C1076.36,501.172 1076.45,502.112 1076.73,502.751C1077.01,503.391 1077.46,503.711 1078.08,503.711C1078.63,503.711 1079.13,503.584 1079.57,503.33C1080.02,503.076 1080.41,502.607 1080.77,501.924L1080.77,501.829C1080.77,501.804 1080.77,501.772 1080.78,501.733L1081.42,494.468C1081.2,494.399 1080.97,494.346 1080.75,494.307C1080.53,494.268 1080.29,494.248 1080.05,494.248C1078.96,494.248 1078.14,494.719 1077.57,495.662C1077.01,496.604 1076.63,498.027 1076.46,499.932Z" style="fill:rgb(0,211,255);fill-rule:nonzero;"/>
                                <path d="M1086.69,509.077L1087.09,510.605C1087.41,511.873 1086.88,513.208 1085.77,513.903C1084.87,514.468 1083.74,514.931 1082.35,515.247C1081.11,515.528 1079.9,515.666 1078.71,515.666C1073.85,515.666 1070.13,514.037 1067.5,510.975C1064.96,508.029 1063.67,504.028 1063.88,498.906L1063.88,498.897C1064.09,493.918 1065.65,489.96 1068.42,486.97C1071.3,483.856 1075.07,482.249 1079.78,482.249C1084.58,482.249 1088.21,483.856 1090.76,486.861C1093.21,489.74 1094.45,493.639 1094.26,498.625L1094.26,498.635C1094.14,501.418 1093.3,503.809 1091.78,505.826C1090.53,507.49 1088.84,508.603 1086.69,509.077ZM1082.04,491.518L1082.3,491.593C1082.36,491.612 1082.42,491.632 1082.48,491.654C1082.31,491.43 1082.17,491.346 1082.07,491.48L1082.04,491.518ZM1084.31,495.983L1084.29,496.119L1084.39,496.219L1084.31,495.983ZM1091.25,498.511C1091.41,494.409 1090.48,491.174 1088.47,488.806C1086.46,486.438 1083.56,485.254 1079.78,485.254C1076,485.254 1072.94,486.506 1070.62,489.011C1068.3,491.516 1067.05,494.854 1066.88,499.023C1066.71,503.252 1067.68,506.582 1069.77,509.014C1071.87,511.445 1074.85,512.661 1078.71,512.661C1079.68,512.661 1080.67,512.546 1081.68,512.317C1082.69,512.087 1083.52,511.768 1084.18,511.357L1083.62,509.204C1082.99,509.497 1082.23,509.741 1081.34,509.937C1080.46,510.132 1079.6,510.23 1078.77,510.23C1075.79,510.23 1073.5,509.229 1071.9,507.227C1070.31,505.225 1069.6,502.49 1069.76,499.023C1069.91,495.527 1070.87,492.739 1072.63,490.659C1074.4,488.579 1076.77,487.539 1079.72,487.539C1082.84,487.539 1085.14,488.506 1086.63,490.439C1088.12,492.373 1088.79,495.063 1088.63,498.511C1088.55,500.142 1088.17,501.489 1087.5,502.554C1086.82,503.618 1085.92,504.15 1084.79,504.15C1084.44,504.15 1084.16,503.98 1083.96,503.638C1083.75,503.296 1083.68,502.661 1083.75,501.733L1084.5,493.34L1084.43,493.34L1084.47,493.281C1083.65,492.754 1082.9,492.363 1082.21,492.109C1081.52,491.855 1080.61,491.729 1079.48,491.729C1077.83,491.729 1076.42,492.476 1075.27,493.97C1074.11,495.464 1073.41,497.451 1073.16,499.932C1072.97,501.846 1073.24,503.384 1073.97,504.546C1074.71,505.708 1075.77,506.289 1077.15,506.289C1078.01,506.289 1078.76,506.089 1079.39,505.688C1080.04,505.288 1080.57,504.688 1081,503.887C1081.23,504.658 1081.63,505.259 1082.19,505.688C1082.74,506.118 1083.4,506.333 1084.16,506.333C1086.48,506.333 1088.22,505.562 1089.38,504.019C1090.54,502.476 1091.16,500.64 1091.25,498.511ZM1076.46,499.932C1076.63,498.027 1077.01,496.604 1077.57,495.662C1078.14,494.719 1078.96,494.248 1080.05,494.248C1080.29,494.248 1080.53,494.268 1080.75,494.307C1080.97,494.346 1081.2,494.399 1081.42,494.468L1080.78,501.733C1080.77,501.772 1080.77,501.804 1080.77,501.829L1080.77,501.924C1080.41,502.607 1080.02,503.076 1079.57,503.33C1079.13,503.584 1078.63,503.711 1078.08,503.711C1077.46,503.711 1077.01,503.391 1076.73,502.751C1076.45,502.112 1076.36,501.172 1076.46,499.932ZM1084.54,496.285L1084.5,496.286L1084.5,496.289L1084.53,496.291L1084.54,496.285ZM1084.53,496.291L1084.5,496.307L1084.5,496.345L1084.56,496.292L1084.53,496.291ZM1084.56,496.292C1084.73,496.299 1085.12,496.29 1085.59,496.102L1085.59,496.072C1085.27,496.2 1084.92,496.273 1084.57,496.285L1084.56,496.292ZM1084.57,496.285L1084.6,496.259L1084.54,496.285L1084.57,496.285Z" style="fill:rgb(28,53,233);"/>
                            </g>
                        </g>
                        <g transform="matrix(0.466606,0,0,0.670818,982.683,217.462)">
                            <g id="At3" serif:id="At">
                                <path d="M1091.25,498.511C1091.16,500.64 1090.54,502.476 1089.38,504.019C1088.22,505.562 1086.48,506.333 1084.16,506.333C1083.4,506.333 1082.74,506.118 1082.19,505.688C1081.63,505.259 1081.23,504.658 1081,503.887C1080.57,504.688 1080.04,505.288 1079.39,505.688C1078.76,506.089 1078.01,506.289 1077.15,506.289C1075.77,506.289 1074.71,505.708 1073.97,504.546C1073.24,503.384 1072.97,501.846 1073.16,499.932C1073.41,497.451 1074.11,495.464 1075.27,493.97C1076.42,492.476 1077.83,491.729 1079.48,491.729C1080.61,491.729 1081.52,491.855 1082.21,492.109C1082.9,492.363 1083.65,492.754 1084.47,493.281L1084.43,493.34L1084.5,493.34L1083.75,501.733C1083.68,502.661 1083.75,503.296 1083.96,503.638C1084.16,503.98 1084.44,504.15 1084.79,504.15C1085.92,504.15 1086.82,503.618 1087.5,502.554C1088.17,501.489 1088.55,500.142 1088.63,498.511C1088.79,495.063 1088.12,492.373 1086.63,490.439C1085.14,488.506 1082.84,487.539 1079.72,487.539C1076.77,487.539 1074.4,488.579 1072.63,490.659C1070.87,492.739 1069.91,495.527 1069.76,499.023C1069.6,502.49 1070.31,505.225 1071.9,507.227C1073.5,509.229 1075.79,510.23 1078.77,510.23C1079.6,510.23 1080.46,510.132 1081.34,509.937C1082.23,509.741 1082.99,509.497 1083.62,509.204L1084.18,511.357C1083.52,511.768 1082.69,512.087 1081.68,512.317C1080.67,512.546 1079.68,512.661 1078.71,512.661C1074.85,512.661 1071.87,511.445 1069.77,509.014C1067.68,506.582 1066.71,503.252 1066.88,499.023C1067.05,494.854 1068.3,491.516 1070.62,489.011C1072.94,486.506 1076,485.254 1079.78,485.254C1083.56,485.254 1086.46,486.438 1088.47,488.806C1090.48,491.174 1091.41,494.409 1091.25,498.511ZM1076.46,499.932C1076.36,501.172 1076.45,502.112 1076.73,502.751C1077.01,503.391 1077.46,503.711 1078.08,503.711C1078.63,503.711 1079.13,503.584 1079.57,503.33C1080.02,503.076 1080.41,502.607 1080.77,501.924L1080.77,501.829C1080.77,501.804 1080.77,501.772 1080.78,501.733L1081.42,494.468C1081.2,494.399 1080.97,494.346 1080.75,494.307C1080.53,494.268 1080.29,494.248 1080.05,494.248C1078.96,494.248 1078.14,494.719 1077.57,495.662C1077.01,496.604 1076.63,498.027 1076.46,499.932Z" style="fill:rgb(0,211,255);fill-rule:nonzero;"/>
                                <path d="M1086.69,509.077L1087.09,510.605C1087.41,511.873 1086.88,513.208 1085.77,513.903C1084.87,514.468 1083.74,514.931 1082.35,515.247C1081.11,515.528 1079.9,515.666 1078.71,515.666C1073.85,515.666 1070.13,514.037 1067.5,510.975C1064.96,508.029 1063.67,504.028 1063.88,498.906L1063.88,498.897C1064.09,493.918 1065.65,489.96 1068.42,486.97C1071.3,483.856 1075.07,482.249 1079.78,482.249C1084.58,482.249 1088.21,483.856 1090.76,486.861C1093.21,489.74 1094.45,493.639 1094.26,498.625L1094.26,498.635C1094.14,501.418 1093.3,503.809 1091.78,505.826C1090.53,507.49 1088.84,508.603 1086.69,509.077ZM1084.31,495.983L1084.29,496.119L1084.39,496.219L1084.31,495.983ZM1084.54,496.285L1084.5,496.286L1084.5,496.289L1084.53,496.291L1084.54,496.285ZM1084.53,496.291L1084.5,496.307L1084.5,496.345L1084.56,496.292L1084.53,496.291ZM1084.56,496.292C1084.73,496.299 1085.12,496.29 1085.59,496.102L1085.59,496.072C1085.27,496.2 1084.92,496.273 1084.57,496.285L1084.56,496.292ZM1084.57,496.285L1084.6,496.259L1084.54,496.285L1084.57,496.285ZM1082.04,491.518L1082.3,491.593C1082.36,491.612 1082.42,491.632 1082.48,491.654C1082.31,491.43 1082.17,491.346 1082.07,491.48L1082.04,491.518ZM1091.25,498.511C1091.41,494.409 1090.48,491.174 1088.47,488.806C1086.46,486.438 1083.56,485.254 1079.78,485.254C1076,485.254 1072.94,486.506 1070.62,489.011C1068.3,491.516 1067.05,494.854 1066.88,499.023C1066.71,503.252 1067.68,506.582 1069.77,509.014C1071.87,511.445 1074.85,512.661 1078.71,512.661C1079.68,512.661 1080.67,512.546 1081.68,512.317C1082.69,512.087 1083.52,511.768 1084.18,511.357L1083.62,509.204C1082.99,509.497 1082.23,509.741 1081.34,509.937C1080.46,510.132 1079.6,510.23 1078.77,510.23C1075.79,510.23 1073.5,509.229 1071.9,507.227C1070.31,505.225 1069.6,502.49 1069.76,499.023C1069.91,495.527 1070.87,492.739 1072.63,490.659C1074.4,488.579 1076.77,487.539 1079.72,487.539C1082.84,487.539 1085.14,488.506 1086.63,490.439C1088.12,492.373 1088.79,495.063 1088.63,498.511C1088.55,500.142 1088.17,501.489 1087.5,502.554C1086.82,503.618 1085.92,504.15 1084.79,504.15C1084.44,504.15 1084.16,503.98 1083.96,503.638C1083.75,503.296 1083.68,502.661 1083.75,501.733L1084.5,493.34L1084.43,493.34L1084.47,493.281C1083.65,492.754 1082.9,492.363 1082.21,492.109C1081.52,491.855 1080.61,491.729 1079.48,491.729C1077.83,491.729 1076.42,492.476 1075.27,493.97C1074.11,495.464 1073.41,497.451 1073.16,499.932C1072.97,501.846 1073.24,503.384 1073.97,504.546C1074.71,505.708 1075.77,506.289 1077.15,506.289C1078.01,506.289 1078.76,506.089 1079.39,505.688C1080.04,505.288 1080.57,504.688 1081,503.887C1081.23,504.658 1081.63,505.259 1082.19,505.688C1082.74,506.118 1083.4,506.333 1084.16,506.333C1086.48,506.333 1088.22,505.562 1089.38,504.019C1090.54,502.476 1091.16,500.64 1091.25,498.511ZM1076.46,499.932C1076.63,498.027 1077.01,496.604 1077.57,495.662C1078.14,494.719 1078.96,494.248 1080.05,494.248C1080.29,494.248 1080.53,494.268 1080.75,494.307C1080.97,494.346 1081.2,494.399 1081.42,494.468L1080.78,501.733C1080.77,501.772 1080.77,501.804 1080.77,501.829L1080.77,501.924C1080.41,502.607 1080.02,503.076 1079.57,503.33C1079.13,503.584 1078.63,503.711 1078.08,503.711C1077.46,503.711 1077.01,503.391 1076.73,502.751C1076.45,502.112 1076.36,501.172 1076.46,499.932Z" style="fill:rgb(28,53,233);"/>
                            </g>
                        </g>
                        <g transform="matrix(0.466606,0,0,0.670818,982.683,245.955)">
                            <g id="At4" serif:id="At">
                                <path d="M1091.25,498.511C1091.16,500.64 1090.54,502.476 1089.38,504.019C1088.22,505.562 1086.48,506.333 1084.16,506.333C1083.4,506.333 1082.74,506.118 1082.19,505.688C1081.63,505.259 1081.23,504.658 1081,503.887C1080.57,504.688 1080.04,505.288 1079.39,505.688C1078.76,506.089 1078.01,506.289 1077.15,506.289C1075.77,506.289 1074.71,505.708 1073.97,504.546C1073.24,503.384 1072.97,501.846 1073.16,499.932C1073.41,497.451 1074.11,495.464 1075.27,493.97C1076.42,492.476 1077.83,491.729 1079.48,491.729C1080.61,491.729 1081.52,491.855 1082.21,492.109C1082.9,492.363 1083.65,492.754 1084.47,493.281L1084.43,493.34L1084.5,493.34L1083.75,501.733C1083.68,502.661 1083.75,503.296 1083.96,503.638C1084.16,503.98 1084.44,504.15 1084.79,504.15C1085.92,504.15 1086.82,503.618 1087.5,502.554C1088.17,501.489 1088.55,500.142 1088.63,498.511C1088.79,495.063 1088.12,492.373 1086.63,490.439C1085.14,488.506 1082.84,487.539 1079.72,487.539C1076.77,487.539 1074.4,488.579 1072.63,490.659C1070.87,492.739 1069.91,495.527 1069.76,499.023C1069.6,502.49 1070.31,505.225 1071.9,507.227C1073.5,509.229 1075.79,510.23 1078.77,510.23C1079.6,510.23 1080.46,510.132 1081.34,509.937C1082.23,509.741 1082.99,509.497 1083.62,509.204L1084.18,511.357C1083.52,511.768 1082.69,512.087 1081.68,512.317C1080.67,512.546 1079.68,512.661 1078.71,512.661C1074.85,512.661 1071.87,511.445 1069.77,509.014C1067.68,506.582 1066.71,503.252 1066.88,499.023C1067.05,494.854 1068.3,491.516 1070.62,489.011C1072.94,486.506 1076,485.254 1079.78,485.254C1083.56,485.254 1086.46,486.438 1088.47,488.806C1090.48,491.174 1091.41,494.409 1091.25,498.511ZM1076.46,499.932C1076.36,501.172 1076.45,502.112 1076.73,502.751C1077.01,503.391 1077.46,503.711 1078.08,503.711C1078.63,503.711 1079.13,503.584 1079.57,503.33C1080.02,503.076 1080.41,502.607 1080.77,501.924L1080.77,501.829C1080.77,501.804 1080.77,501.772 1080.78,501.733L1081.42,494.468C1081.2,494.399 1080.97,494.346 1080.75,494.307C1080.53,494.268 1080.29,494.248 1080.05,494.248C1078.96,494.248 1078.14,494.719 1077.57,495.662C1077.01,496.604 1076.63,498.027 1076.46,499.932Z" style="fill:rgb(0,211,255);fill-rule:nonzero;"/>
                                <path d="M1086.69,509.077L1087.09,510.605C1087.41,511.873 1086.88,513.208 1085.77,513.903C1084.87,514.468 1083.74,514.931 1082.35,515.247C1081.11,515.528 1079.9,515.666 1078.71,515.666C1073.85,515.666 1070.13,514.037 1067.5,510.975C1064.96,508.029 1063.67,504.028 1063.88,498.906L1063.88,498.897C1064.09,493.918 1065.65,489.96 1068.42,486.97C1071.3,483.856 1075.07,482.249 1079.78,482.249C1084.58,482.249 1088.21,483.856 1090.76,486.861C1093.21,489.74 1094.45,493.639 1094.26,498.625L1094.26,498.635C1094.14,501.418 1093.3,503.809 1091.78,505.826C1090.53,507.49 1088.84,508.603 1086.69,509.077ZM1091.25,498.511C1091.41,494.409 1090.48,491.174 1088.47,488.806C1086.46,486.438 1083.56,485.254 1079.78,485.254C1076,485.254 1072.94,486.506 1070.62,489.011C1068.3,491.516 1067.05,494.854 1066.88,499.023C1066.71,503.252 1067.68,506.582 1069.77,509.014C1071.87,511.445 1074.85,512.661 1078.71,512.661C1079.68,512.661 1080.67,512.546 1081.68,512.317C1082.69,512.087 1083.52,511.768 1084.18,511.357L1083.62,509.204C1082.99,509.497 1082.23,509.741 1081.34,509.937C1080.46,510.132 1079.6,510.23 1078.77,510.23C1075.79,510.23 1073.5,509.229 1071.9,507.227C1070.31,505.225 1069.6,502.49 1069.76,499.023C1069.91,495.527 1070.87,492.739 1072.63,490.659C1074.4,488.579 1076.77,487.539 1079.72,487.539C1082.84,487.539 1085.14,488.506 1086.63,490.439C1088.12,492.373 1088.79,495.063 1088.63,498.511C1088.55,500.142 1088.17,501.489 1087.5,502.554C1086.82,503.618 1085.92,504.15 1084.79,504.15C1084.44,504.15 1084.16,503.98 1083.96,503.638C1083.75,503.296 1083.68,502.661 1083.75,501.733L1084.5,493.34L1084.43,493.34L1084.47,493.281C1083.65,492.754 1082.9,492.363 1082.21,492.109C1081.52,491.855 1080.61,491.729 1079.48,491.729C1077.83,491.729 1076.42,492.476 1075.27,493.97C1074.11,495.464 1073.41,497.451 1073.16,499.932C1072.97,501.846 1073.24,503.384 1073.97,504.546C1074.71,505.708 1075.77,506.289 1077.15,506.289C1078.01,506.289 1078.76,506.089 1079.39,505.688C1080.04,505.288 1080.57,504.688 1081,503.887C1081.23,504.658 1081.63,505.259 1082.19,505.688C1082.74,506.118 1083.4,506.333 1084.16,506.333C1086.48,506.333 1088.22,505.562 1089.38,504.019C1090.54,502.476 1091.16,500.64 1091.25,498.511ZM1076.46,499.932C1076.63,498.027 1077.01,496.604 1077.57,495.662C1078.14,494.719 1078.96,494.248 1080.05,494.248C1080.29,494.248 1080.53,494.268 1080.75,494.307C1080.97,494.346 1081.2,494.399 1081.42,494.468L1080.78,501.733C1080.77,501.772 1080.77,501.804 1080.77,501.829L1080.77,501.924C1080.41,502.607 1080.02,503.076 1079.57,503.33C1079.13,503.584 1078.63,503.711 1078.08,503.711C1077.46,503.711 1077.01,503.391 1076.73,502.751C1076.45,502.112 1076.36,501.172 1076.46,499.932ZM1082.04,491.518L1082.3,491.593C1082.36,491.612 1082.42,491.632 1082.48,491.654C1082.31,491.43 1082.17,491.346 1082.07,491.48L1082.04,491.518ZM1084.54,496.285L1084.5,496.286L1084.5,496.289L1084.53,496.291L1084.54,496.285ZM1084.53,496.291L1084.5,496.307L1084.5,496.345L1084.56,496.292L1084.53,496.291ZM1084.56,496.292C1084.73,496.299 1085.12,496.29 1085.59,496.102L1085.59,496.072C1085.27,496.2 1084.92,496.273 1084.57,496.285L1084.56,496.292ZM1084.57,496.285L1084.6,496.259L1084.54,496.285L1084.57,496.285ZM1084.31,495.983L1084.29,496.119L1084.39,496.219L1084.31,495.983Z" style="fill:rgb(28,53,233);"/>
                            </g>
                        </g>
                    </g>
                    <g id="Default-Column" serif:id="Default Column" transform="matrix(1.21576,0,0,1.65405,-970.219,-309.705)">
                        <text x="1418.8px" y="465.679px" style="font-family:'Consolas', monospace;font-size:18px;fill:rgb(185,213,145);">0</text>
                        <text x="1418.8px" y="489.679px" style="font-family:'Consolas', monospace;font-size:18px;fill:rgb(185,213,145);">-1</text>
                        <text x="1418.8px" y="513.679px" style="font-family:'Consolas', monospace;font-size:18px;fill:rgb(185,213,145);">0</text>
                        <text x="1418.8px" y="537.679px" style="font-family:'Consolas', monospace;font-size:18px;fill:rgb(185,213,145);">0</text>
                        <g transform="matrix(18,0,0,18,1428.69,561.679)">
                            <path d="M0.513,-0.611C0.469,-0.62 0.43,-0.625 0.398,-0.625C0.321,-0.625 0.283,-0.585 0.283,-0.505L0.283,-0.419L0.498,-0.419L0.498,-0.348L0.283,-0.348L0.283,-0.069L0.445,-0.069L0.445,-0L0.055,-0L0.055,-0.069L0.197,-0.069L0.197,-0.348L0.039,-0.348L0.039,-0.419L0.197,-0.419L0.197,-0.5C0.197,-0.631 0.265,-0.696 0.401,-0.696C0.435,-0.696 0.472,-0.692 0.513,-0.684L0.513,-0.611Z" style="fill:rgb(185,213,145);fill-rule:nonzero;"/>
                        </g>
                        <g transform="matrix(18,0,0,18,1428.69,561.679)">
                        </g>
                        <g transform="matrix(18,0,0,18,1438.59,561.679)">
                        </g>
                        <text x="1418.8px" y="561.679px" style="font-family:'Consolas', monospace;font-size:18px;fill:rgb(185,213,145);">0</text>
                    </g>
                    <g id="Type-Column" serif:id="Type Column" transform="matrix(1.21576,0,0,1.65405,-1046.41,-309.705)">
                        <text x="1418.8px" y="465.679px" style="font-family:'Consolas', monospace;font-size:18px;fill:rgb(60,158,212);">int</text>
                        <text x="1418.8px" y="489.679px" style="font-family:'Consolas', monospace;font-size:18px;fill:rgb(60,158,212);">int</text>
                        <text x="1418.8px" y="513.679px" style="font-family:'Consolas', monospace;font-size:18px;fill:rgb(60,158,212);">int</text>
                        <text x="1418.8px" y="537.679px" style="font-family:'Consolas', monospace;font-size:18px;fill:rgb(60,158,212);">int</text>
                        <g transform="matrix(18,0,0,18,1418.8,561.679)">
                            <path d="M0.513,-0.611C0.469,-0.62 0.43,-0.625 0.398,-0.625C0.321,-0.625 0.283,-0.585 0.283,-0.505L0.283,-0.419L0.498,-0.419L0.498,-0.348L0.283,-0.348L0.283,-0.069L0.445,-0.069L0.445,-0L0.055,-0L0.055,-0.069L0.197,-0.069L0.197,-0.348L0.039,-0.348L0.039,-0.419L0.197,-0.419L0.197,-0.5C0.197,-0.631 0.265,-0.696 0.401,-0.696C0.435,-0.696 0.472,-0.692 0.513,-0.684L0.513,-0.611Z" style="fill:rgb(60,158,212);fill-rule:nonzero;"/>
                        </g>
                        <g transform="matrix(18,0,0,18,1418.8,561.679)">
                        </g>
                        <g transform="matrix(18,0,0,18,1468.28,561.679)">
                        </g>
                        <text x="1428.69px" y="561.679px" style="font-family:'Consolas', monospace;font-size:18px;fill:rgb(60,158,212);"><tspan x="1428.69px " y="561.679px ">l</tspan>oat</text>
                    </g>
                    <g id="Name-Column" serif:id="Name Column" transform="matrix(1.21576,0,0,1.65405,-215.053,-271.828)">
                        <text x="591.738px" y="442.78px" style="font-family:'Consolas', monospace;font-size:18px;fill:rgb(133,188,233);">id</text>
                        <g transform="matrix(18,0,0,18,611.531,466.78)">
                            <path d="M0.228,-0.49L0.231,-0.411C0.243,-0.425 0.255,-0.438 0.267,-0.448C0.279,-0.459 0.292,-0.469 0.306,-0.476C0.32,-0.484 0.335,-0.489 0.352,-0.493C0.368,-0.497 0.386,-0.499 0.406,-0.499C0.421,-0.499 0.437,-0.498 0.453,-0.497C0.469,-0.495 0.484,-0.493 0.497,-0.49L0.497,-0.407C0.481,-0.412 0.465,-0.416 0.447,-0.419C0.429,-0.422 0.413,-0.424 0.398,-0.424C0.381,-0.424 0.365,-0.422 0.352,-0.418C0.338,-0.415 0.325,-0.409 0.313,-0.401C0.301,-0.393 0.288,-0.383 0.276,-0.37C0.264,-0.358 0.251,-0.343 0.237,-0.325L0.237,-0.069L0.383,-0.069L0.383,-0L0.046,-0L0.046,-0.069L0.151,-0.069L0.151,-0.423L0.046,-0.423L0.046,-0.49L0.228,-0.49Z" style="fill:rgb(133,188,233);fill-rule:nonzero;"/>
                        </g>
                        <g transform="matrix(18,0,0,18,611.531,466.78)">
                        </g>
                        <g transform="matrix(18,0,0,18,670.91,466.78)">
                            <path d="M0.513,-0.611C0.469,-0.62 0.43,-0.625 0.398,-0.625C0.321,-0.625 0.283,-0.585 0.283,-0.505L0.283,-0.419L0.498,-0.419L0.498,-0.348L0.283,-0.348L0.283,-0.069L0.445,-0.069L0.445,-0L0.055,-0L0.055,-0.069L0.197,-0.069L0.197,-0.348L0.039,-0.348L0.039,-0.419L0.197,-0.419L0.197,-0.5C0.197,-0.631 0.265,-0.696 0.401,-0.696C0.435,-0.696 0.472,-0.692 0.513,-0.684L0.513,-0.611Z" style="fill:rgb(133,188,233);fill-rule:nonzero;"/>
                        </g>
                        <g transform="matrix(18,0,0,18,670.91,466.78)">
                        </g>
                        <text x="591.738px" y="466.78px" style="font-family:'Consolas', monospace;font-size:18px;fill:rgb(133,188,233);">pa<tspan x="621.427px " y="466.78px ">e</tspan>ntRe<tspan x="680.806px " y="466.78px ">I</tspan>d</text>
                        <text x="591.738px" y="490.78px" style="font-family:'Consolas', monospace;font-size:18px;fill:rgb(133,188,233);">timelineId</text>
                        <text x="591.738px" y="514.78px" style="font-family:'Consolas', monospace;font-size:18px;fill:rgb(133,188,233);">timelineKeyId</text>
                        <text x="591.738px" y="538.78px" style="font-family:'Consolas', monospace;font-size:18px;fill:rgb(133,188,233);">z_index</text>
                        <g transform="matrix(18,0,0,18,668.018,538.78)">
                        </g>
                        <text x="661.013px" y="538.78px" style="font-family:'ArialMT', 'Arial', sans-serif;font-size:18px;fill:rgb(122,122,122);">*</text>
                    </g>
                    <g id="PK-FK-Column" serif:id="PK FK Column" transform="matrix(1.21576,0,0,1.32139,-1323.74,-164.526)">
                        <g transform="matrix(0.409147,0,0,0.512151,1157.27,22.6364)">
                            <g id="PK">
                                <path d="M804.167,852.56C803.142,853.605 802.436,854.843 802.05,856.274C801.665,857.704 801.696,859.123 802.146,860.529C802.233,860.803 802.336,861.076 802.453,861.349L790.105,873.683C789.597,874.191 789.287,874.787 789.174,875.471C789.062,876.154 789.145,876.818 789.423,877.463C789.702,878.107 790.178,878.625 790.852,879.015C791.516,879.406 792.233,879.533 793.005,879.396C793.776,879.26 794.431,878.918 794.968,878.371C794.968,878.371 795.095,878.246 795.349,877.997C795.603,877.748 795.886,877.47 796.198,877.162C796.511,876.855 796.76,876.613 796.945,876.437C797.248,876.125 797.351,875.783 797.253,875.412C797.185,875.139 797.172,874.833 797.216,874.496C797.26,874.159 797.39,873.864 797.605,873.61C797.81,873.366 798.015,873.215 798.22,873.156C798.425,873.097 798.625,873.058 798.82,873.039C798.977,873.019 799.135,872.99 799.296,872.951C799.458,872.912 799.611,872.814 799.758,872.658C799.904,872.512 800.007,872.35 800.066,872.175C800.124,871.999 800.139,871.74 800.109,871.398C800.1,871.252 800.183,871.047 800.358,870.783C800.534,870.519 800.759,870.339 801.032,870.241C801.501,870.095 801.96,870.085 802.409,870.212C802.79,870.319 803.112,870.241 803.376,869.977C803.523,869.821 803.803,869.538 804.218,869.128C804.633,868.718 805.105,868.246 805.632,867.714C806.159,867.182 806.672,866.667 807.17,866.169C808.176,866.579 809.223,866.784 810.312,866.784C811.401,866.784 812.458,866.579 813.483,866.169C814.509,865.759 815.427,865.139 816.237,864.308C817.165,863.381 817.829,862.319 818.23,861.122C818.63,859.926 818.769,858.705 818.647,857.46C818.525,856.215 818.139,855.041 817.49,853.937C816.84,852.834 815.935,851.906 814.773,851.154C813.649,850.431 812.448,850.021 811.169,849.924C809.89,849.826 808.637,850.004 807.412,850.458C806.186,850.912 805.105,851.613 804.167,852.56ZM812.224,853.937C812.605,853.547 813.066,853.351 813.608,853.351C814.15,853.351 814.611,853.547 814.992,853.937C815.363,854.318 815.549,854.782 815.549,855.329C815.549,855.876 815.363,856.34 814.992,856.721C814.611,857.101 814.152,857.292 813.615,857.292C813.078,857.292 812.614,857.101 812.224,856.721C811.853,856.34 811.667,855.876 811.667,855.329C811.667,854.782 811.853,854.318 812.224,853.937Z" style="fill:rgb(249,194,60);fill-rule:nonzero;"/>
                                <path d="M796.884,882.013L795.98,882.685L793.723,883.448L792.463,883.564L791.171,883.456L789.916,883.113L788.78,882.57L786.96,881.12L785.645,879.094L785.069,876.992L785.114,874.803L785.841,872.611L787.196,870.773L797.827,860.154C797.546,858.514 797.629,856.864 798.077,855.202C798.651,853.073 799.704,851.233 801.23,849.678L801.242,849.666C802.611,848.282 804.192,847.263 805.982,846.6C807.776,845.935 809.61,845.677 811.482,845.82C813.44,845.97 815.281,846.588 816.999,847.694L817.008,847.699C818.736,848.817 820.071,850.209 821.036,851.85C821.996,853.481 822.562,855.218 822.743,857.059C822.922,858.884 822.719,860.674 822.132,862.428C821.533,864.217 820.549,865.811 819.166,867.2C817.944,868.447 816.556,869.372 815.012,869.99C813.492,870.597 811.926,870.899 810.312,870.899C809.669,870.899 809.035,870.851 808.412,870.755C807.93,871.24 807.497,871.673 807.111,872.055C806.75,872.411 806.505,872.656 806.378,872.792L806.286,872.887L805.241,873.695L803.906,874.233L803.594,874.263L803.416,874.637L802.718,875.506L801.479,876.477L801.277,876.555L801.191,877.129L800.633,878.364L799.901,879.301L799.776,879.425C799.604,879.587 799.374,879.811 799.085,880.095L798.23,880.935L797.904,881.255L797.815,881.321L794.968,882.486L793.639,879.228C794.142,879.047 794.585,878.761 794.968,878.371L795.349,877.997L796.198,877.162C796.511,876.855 796.76,876.613 796.945,876.437C797.248,876.125 797.351,875.783 797.253,875.412C797.185,875.139 797.172,874.833 797.216,874.496C797.26,874.159 797.39,873.864 797.605,873.61C797.81,873.366 798.015,873.215 798.22,873.156C798.425,873.097 798.625,873.058 798.82,873.039C798.977,873.019 799.135,872.99 799.296,872.951C799.458,872.912 799.611,872.814 799.758,872.658C799.904,872.512 800.007,872.35 800.066,872.175C800.124,871.999 800.139,871.74 800.109,871.398C800.1,871.252 800.183,871.047 800.358,870.783C800.534,870.519 800.759,870.339 801.032,870.241C801.501,870.095 801.96,870.085 802.409,870.212C802.79,870.319 803.112,870.241 803.376,869.977C803.523,869.821 803.803,869.538 804.218,869.128C804.633,868.718 805.105,868.246 805.632,867.714L807.17,866.169C808.176,866.579 809.223,866.784 810.312,866.784C811.401,866.784 812.458,866.579 813.483,866.169C814.509,865.759 815.427,865.139 816.237,864.308C817.165,863.381 817.829,862.319 818.23,861.122C818.63,859.926 818.769,858.705 818.647,857.46C818.525,856.215 818.139,855.041 817.49,853.937C816.84,852.834 815.935,851.906 814.773,851.154C813.649,850.431 812.448,850.021 811.169,849.924C809.89,849.826 808.637,850.004 807.412,850.458C806.186,850.912 805.105,851.613 804.167,852.56C803.142,853.605 802.436,854.843 802.05,856.274C801.665,857.704 801.696,859.123 802.146,860.529C802.233,860.803 802.336,861.076 802.453,861.349L790.105,873.683C789.597,874.191 789.287,874.787 789.174,875.471C789.062,876.154 789.145,876.818 789.423,877.463C789.702,878.107 790.178,878.625 790.852,879.015C790.871,879.027 790.89,879.038 790.909,879.048C790.96,879.358 791.048,879.665 791.173,879.963C791.814,881.491 793.31,882.486 794.968,882.486C795.642,882.486 796.299,882.321 796.884,882.013ZM797.815,881.321L797.853,881.305C797.564,881.589 797.237,881.827 796.884,882.013L797.815,881.321ZM811.945,854.295C812.022,854.168 812.115,854.049 812.224,853.937C812.605,853.547 813.066,853.351 813.608,853.351C814.15,853.351 814.611,853.547 814.992,853.937C815.363,854.318 815.549,854.782 815.549,855.329C815.549,855.876 815.363,856.34 814.992,856.721C814.816,856.896 814.624,857.032 814.415,857.126C814.309,856.745 814.151,856.378 813.943,856.024C813.611,855.46 813.136,854.997 812.542,854.612C812.347,854.487 812.148,854.381 811.945,854.295ZM801.723,874.242L801.291,874.172C801.434,874.212 801.578,874.237 801.723,874.242Z" style="fill:rgb(28,53,233);"/>
                            </g>
                        </g>
                        <g transform="matrix(1,0,0,1.25175,363.917,-113.046)">
                            <g id="FK">
                                <path d="M1117.92,492.218L1117.92,479.333L1126.61,479.333L1126.61,480.854L1119.62,480.854L1119.62,484.844L1125.67,484.844L1125.67,486.364L1119.62,486.364L1119.62,492.218L1117.92,492.218Z" style="fill:rgb(28,53,233);fill-rule:nonzero;"/>
                                <path d="M1117.02,492.218L1117.02,479.333C1117.02,478.836 1117.42,478.434 1117.92,478.434L1126.61,478.434C1127.11,478.434 1127.51,478.836 1127.51,479.333L1127.51,480.854C1127.51,481.351 1127.11,481.753 1126.61,481.753L1120.52,481.753L1120.52,483.944L1125.67,483.944C1126.17,483.944 1126.57,484.347 1126.57,484.844L1126.57,486.364C1126.57,486.861 1126.17,487.264 1125.67,487.264L1120.52,487.264L1120.52,492.218C1120.52,492.715 1120.12,493.118 1119.62,493.118L1117.92,493.118C1117.42,493.118 1117.02,492.715 1117.02,492.218ZM1117.92,492.218L1119.62,492.218L1119.62,486.364L1125.67,486.364L1125.67,484.844L1119.62,484.844L1119.62,480.854L1126.61,480.854L1126.61,479.333L1117.92,479.333L1117.92,492.218Z" style="fill:rgb(249,194,60);"/>
                            </g>
                        </g>
                        <g transform="matrix(1,0,0,1.25175,363.917,-83.0042)">
                            <g id="FK1" serif:id="FK">
                                <path d="M1117.92,492.218L1117.92,479.333L1126.61,479.333L1126.61,480.854L1119.62,480.854L1119.62,484.844L1125.67,484.844L1125.67,486.364L1119.62,486.364L1119.62,492.218L1117.92,492.218Z" style="fill:rgb(28,53,233);fill-rule:nonzero;"/>
                                <path d="M1117.02,492.218L1117.02,479.333C1117.02,478.836 1117.42,478.434 1117.92,478.434L1126.61,478.434C1127.11,478.434 1127.51,478.836 1127.51,479.333L1127.51,480.854C1127.51,481.351 1127.11,481.753 1126.61,481.753L1120.52,481.753L1120.52,483.944L1125.67,483.944C1126.17,483.944 1126.57,484.347 1126.57,484.844L1126.57,486.364C1126.57,486.861 1126.17,487.264 1125.67,487.264L1120.52,487.264L1120.52,492.218C1120.52,492.715 1120.12,493.118 1119.62,493.118L1117.92,493.118C1117.42,493.118 1117.02,492.715 1117.02,492.218ZM1117.92,492.218L1119.62,492.218L1119.62,486.364L1125.67,486.364L1125.67,484.844L1119.62,484.844L1119.62,480.854L1126.61,480.854L1126.61,479.333L1117.92,479.333L1117.92,492.218Z" style="fill:rgb(249,194,60);"/>
                            </g>
                        </g>
                        <g transform="matrix(1,0,0,1.25175,363.917,-52.9621)">
                            <g id="FK2" serif:id="FK">
                                <path d="M1117.92,492.218L1117.92,479.333L1126.61,479.333L1126.61,480.854L1119.62,480.854L1119.62,484.844L1125.67,484.844L1125.67,486.364L1119.62,486.364L1119.62,492.218L1117.92,492.218Z" style="fill:rgb(28,53,233);fill-rule:nonzero;"/>
                                <path d="M1117.02,492.218L1117.02,479.333C1117.02,478.836 1117.42,478.434 1117.92,478.434L1126.61,478.434C1127.11,478.434 1127.51,478.836 1127.51,479.333L1127.51,480.854C1127.51,481.351 1127.11,481.753 1126.61,481.753L1120.52,481.753L1120.52,483.944L1125.67,483.944C1126.17,483.944 1126.57,484.347 1126.57,484.844L1126.57,486.364C1126.57,486.861 1126.17,487.264 1125.67,487.264L1120.52,487.264L1120.52,492.218C1120.52,492.715 1120.12,493.118 1119.62,493.118L1117.92,493.118C1117.42,493.118 1117.02,492.715 1117.02,492.218ZM1117.92,492.218L1119.62,492.218L1119.62,486.364L1125.67,486.364L1125.67,484.844L1119.62,484.844L1119.62,480.854L1126.61,480.854L1126.61,479.333L1117.92,479.333L1117.92,492.218Z" style="fill:rgb(249,194,60);"/>
                            </g>
                        </g>
                    </g>
                    <g id="Header-Background" serif:id="Header Background" transform="matrix(0.861239,0,0,2.17353,171.341,-257.823)">
                        <rect x="347.803" y="268.787" width="532.459" height="44.59" style="fill:rgb(76,76,76);"/>
                        <g id="SCML-Tag" serif:id="SCML Tag" transform="matrix(1.41164,0,0,0.760997,-1239.15,-27.8803)">
                            <text x="1360px" y="412.934px" style="font-family:'Consolas', monospace;font-size:24px;fill:rgb(146,230,26);">&lt;</text>
                            <g transform="matrix(24,0,0,24,1439.17,412.934)">
                                <path d="M0.228,-0.49L0.231,-0.411C0.243,-0.425 0.255,-0.438 0.267,-0.448C0.279,-0.459 0.292,-0.469 0.306,-0.476C0.32,-0.484 0.335,-0.489 0.352,-0.493C0.368,-0.497 0.386,-0.499 0.406,-0.499C0.421,-0.499 0.437,-0.498 0.453,-0.497C0.469,-0.495 0.484,-0.493 0.497,-0.49L0.497,-0.407C0.481,-0.412 0.465,-0.416 0.447,-0.419C0.429,-0.422 0.413,-0.424 0.398,-0.424C0.381,-0.424 0.365,-0.422 0.352,-0.418C0.338,-0.415 0.325,-0.409 0.313,-0.401C0.301,-0.393 0.288,-0.383 0.276,-0.37C0.264,-0.358 0.251,-0.343 0.237,-0.325L0.237,-0.069L0.383,-0.069L0.383,-0L0.046,-0L0.046,-0.069L0.151,-0.069L0.151,-0.423L0.046,-0.423L0.046,-0.49L0.228,-0.49Z" style="fill:white;fill-rule:nonzero;"/>
                            </g>
                            <g transform="matrix(24,0,0,24,1439.17,412.934)">
                            </g>
                            <g transform="matrix(24,0,0,24,1465.56,412.934)">
                                <path d="M0.513,-0.611C0.469,-0.62 0.43,-0.625 0.398,-0.625C0.321,-0.625 0.283,-0.585 0.283,-0.505L0.283,-0.419L0.498,-0.419L0.498,-0.348L0.283,-0.348L0.283,-0.069L0.445,-0.069L0.445,-0L0.055,-0L0.055,-0.069L0.197,-0.069L0.197,-0.348L0.039,-0.348L0.039,-0.419L0.197,-0.419L0.197,-0.5C0.197,-0.631 0.265,-0.696 0.401,-0.696C0.435,-0.696 0.472,-0.692 0.513,-0.684L0.513,-0.611Z" style="fill:white;fill-rule:nonzero;"/>
                            </g>
                            <g transform="matrix(24,0,0,24,1465.56,412.934)">
                            </g>
                            <text x="1373.19px" y="412.934px" style="font-family:'Consolas', monospace;font-size:24px;fill:white;">bone_<tspan x="1452.37px " y="412.934px ">e</tspan></text>
                            <text x="1478.76px" y="412.934px" style="font-family:'Consolas', monospace;font-size:24px;fill:rgb(146,230,26);">&gt;</text>
                            <text x="1333.61px" y="436.934px" style="font-family:'Consolas', monospace;font-size:24px;fill:rgb(146,230,26);">&lt;</text>
                            <g transform="matrix(24,0,0,24,1439.17,436.934)">
                                <path d="M0.228,-0.49L0.231,-0.411C0.243,-0.425 0.255,-0.438 0.267,-0.448C0.279,-0.459 0.292,-0.469 0.306,-0.476C0.32,-0.484 0.335,-0.489 0.352,-0.493C0.368,-0.497 0.386,-0.499 0.406,-0.499C0.421,-0.499 0.437,-0.498 0.453,-0.497C0.469,-0.495 0.484,-0.493 0.497,-0.49L0.497,-0.407C0.481,-0.412 0.465,-0.416 0.447,-0.419C0.429,-0.422 0.413,-0.424 0.398,-0.424C0.381,-0.424 0.365,-0.422 0.352,-0.418C0.338,-0.415 0.325,-0.409 0.313,-0.401C0.301,-0.393 0.288,-0.383 0.276,-0.37C0.264,-0.358 0.251,-0.343 0.237,-0.325L0.237,-0.069L0.383,-0.069L0.383,-0L0.046,-0L0.046,-0.069L0.151,-0.069L0.151,-0.423L0.046,-0.423L0.046,-0.49L0.228,-0.49Z" style="fill:white;fill-rule:nonzero;"/>
                            </g>
                            <g transform="matrix(24,0,0,24,1439.17,436.934)">
                            </g>
                            <g transform="matrix(24,0,0,24,1465.56,436.934)">
                                <path d="M0.513,-0.611C0.469,-0.62 0.43,-0.625 0.398,-0.625C0.321,-0.625 0.283,-0.585 0.283,-0.505L0.283,-0.419L0.498,-0.419L0.498,-0.348L0.283,-0.348L0.283,-0.069L0.445,-0.069L0.445,-0L0.055,-0L0.055,-0.069L0.197,-0.069L0.197,-0.348L0.039,-0.348L0.039,-0.419L0.197,-0.419L0.197,-0.5C0.197,-0.631 0.265,-0.696 0.401,-0.696C0.435,-0.696 0.472,-0.692 0.513,-0.684L0.513,-0.611Z" style="fill:white;fill-rule:nonzero;"/>
                            </g>
                            <g transform="matrix(24,0,0,24,1465.56,436.934)">
                            </g>
                            <text x="1346.8px" y="436.934px" style="font-family:'Consolas', monospace;font-size:24px;fill:white;">object_<tspan x="1452.37px " y="436.934px ">e</tspan></text>
                            <text x="1478.76px" y="436.934px" style="font-family:'Consolas', monospace;font-size:24px;fill:rgb(146,230,26);">&gt;</text>
                        </g>
                        <g id="Class-Name" serif:id="Class Name" transform="matrix(1.41164,0,0,0.760997,-1420.53,-27.8803)">
                            <g transform="matrix(24,0,0,24,1300.46,426.445)">
                            </g>
                            <text x="1260.88px" y="426.445px" style="font-family:'Consolas-Bold', 'Consolas', monospace;font-weight:700;font-size:24px;fill:white;">Ref</text>
                        </g>
                    </g>
                    <g transform="matrix(1.21576,0,0,1.65405,-996.314,-2200.78)">
                        <text x="1206.38px" y="1743.98px" style="font-family:'ArialMT', 'Arial', sans-serif;font-size:15px;fill:rgb(122,122,122);">*</text>
                        <text x="1216.38px" y="1743.98px" style="font-family:'Consolas', monospace;font-size:15px;fill:rgb(122,122,122);">z_index</text>
                        <text x="1278.28px" y="1743.98px" style="font-family:'ArialMT', 'Arial', sans-serif;font-size:15px;fill:rgb(122,122,122);">is used only for</text>
                        <text x="1383.33px" y="1743.98px" style="font-family:'Consolas', monospace;font-size:15px;fill:rgb(146,230,26);">&lt;</text>
                        <g transform="matrix(15,0,0,15,1449.31,1743.98)">
                            <path d="M0.228,-0.49L0.231,-0.411C0.243,-0.425 0.255,-0.438 0.267,-0.448C0.279,-0.459 0.292,-0.469 0.306,-0.476C0.32,-0.484 0.335,-0.489 0.352,-0.493C0.368,-0.497 0.386,-0.499 0.406,-0.499C0.421,-0.499 0.437,-0.498 0.453,-0.497C0.469,-0.495 0.484,-0.493 0.497,-0.49L0.497,-0.407C0.481,-0.412 0.465,-0.416 0.447,-0.419C0.429,-0.422 0.413,-0.424 0.398,-0.424C0.381,-0.424 0.365,-0.422 0.352,-0.418C0.338,-0.415 0.325,-0.409 0.313,-0.401C0.301,-0.393 0.288,-0.383 0.276,-0.37C0.264,-0.358 0.251,-0.343 0.237,-0.325L0.237,-0.069L0.383,-0.069L0.383,-0L0.046,-0L0.046,-0.069L0.151,-0.069L0.151,-0.423L0.046,-0.423L0.046,-0.49L0.228,-0.49Z" style="fill:rgb(122,122,122);fill-rule:nonzero;"/>
                        </g>
                        <g transform="matrix(15,0,0,15,1449.31,1743.98)">
                        </g>
                        <g transform="matrix(15,0,0,15,1465.8,1743.98)">
                            <path d="M0.513,-0.611C0.469,-0.62 0.43,-0.625 0.398,-0.625C0.321,-0.625 0.283,-0.585 0.283,-0.505L0.283,-0.419L0.498,-0.419L0.498,-0.348L0.283,-0.348L0.283,-0.069L0.445,-0.069L0.445,-0L0.055,-0L0.055,-0.069L0.197,-0.069L0.197,-0.348L0.039,-0.348L0.039,-0.419L0.197,-0.419L0.197,-0.5C0.197,-0.631 0.265,-0.696 0.401,-0.696C0.435,-0.696 0.472,-0.692 0.513,-0.684L0.513,-0.611Z" style="fill:rgb(122,122,122);fill-rule:nonzero;"/>
                        </g>
                        <g transform="matrix(15,0,0,15,1465.8,1743.98)">
                        </g>
                        <text x="1391.58px" y="1743.98px" style="font-family:'Consolas', monospace;font-size:15px;fill:rgb(122,122,122);">object_<tspan x="1457.55px " y="1743.98px ">e</tspan></text>
                        <text x="1474.05px" y="1743.98px" style="font-family:'Consolas', monospace;font-size:15px;fill:rgb(146,230,26);">&gt;</text>
                        <g transform="matrix(15,0,0,15,1489.79,1743.98)">
                        </g>
                        <text x="1482.29px" y="1743.98px" style="font-family:'ArialMT', 'Arial', sans-serif;font-size:15px;fill:rgb(122,122,122);">s</text>
                    </g>
                </g>
            </g>
        </g>
    </g>
</svg>
